<?xml version="1.0" encoding="utf-8" standalone="no"?>
<!DOCTYPE svg PUBLIC "-//W3C//DTD SVG 1.1//EN"
  "http://www.w3.org/Graphics/SVG/1.1/DTD/svg11.dtd">
<svg xmlns:xlink="http://www.w3.org/1999/xlink" width="709.436616pt" height="568.236562pt" viewBox="0 0 709.436616 568.236562" xmlns="http://www.w3.org/2000/svg" version="1.1">
 <metadata>
  <rdf:RDF xmlns:dc="http://purl.org/dc/elements/1.1/" xmlns:cc="http://creativecommons.org/ns#" xmlns:rdf="http://www.w3.org/1999/02/22-rdf-syntax-ns#">
   <cc:Work>
    <dc:type rdf:resource="http://purl.org/dc/dcmitype/StillImage"/>
    <dc:date>2026-07-11T11:47:37.273153</dc:date>
    <dc:format>image/svg+xml</dc:format>
    <dc:creator>
     <cc:Agent>
      <dc:title>Matplotlib v3.11.0, https://matplotlib.org/</dc:title>
     </cc:Agent>
    </dc:creator>
   </cc:Work>
  </rdf:RDF>
 </metadata>
 <defs>
  <style type="text/css">*{stroke-linejoin: round; stroke-linecap: butt}</style>
 </defs>
 <g id="figure_1">
  <g id="patch_1">
   <path d="M 0 568.236562 
L 709.436616 568.236562 
L 709.436616 0 
L 0 0 
z
" style="fill: #ffffff"/>
  </g>
  <g id="axes_1">
   <g id="patch_2">
    <path d="M 120.602344 530.035781 
L 696.922212 530.035781 
L 696.922212 22.318125 
L 120.602344 22.318125 
z
" style="fill: #ffffff"/>
   </g>
   <g id="patch_3">
    <path d="M 120.602344 506.957706 
L 266.049354 506.957706 
L 266.049354 488.308756 
L 120.602344 488.308756 
z
" clip-path="url(#p2aba66207a)" style="fill: #1f77b4"/>
   </g>
   <g id="patch_4">
    <path d="M 120.602344 483.646519 
L 266.082714 483.646519 
L 266.082714 464.997569 
L 120.602344 464.997569 
z
" clip-path="url(#p2aba66207a)" style="fill: #1f77b4"/>
   </g>
   <g id="patch_5">
    <path d="M 120.602344 460.335332 
L 283.475163 460.335332 
L 283.475163 441.686382 
L 120.602344 441.686382 
z
" clip-path="url(#p2aba66207a)" style="fill: #1f77b4"/>
   </g>
   <g id="patch_6">
    <path d="M 120.602344 437.024144 
L 283.494226 437.024144 
L 283.494226 418.375195 
L 120.602344 418.375195 
z
" clip-path="url(#p2aba66207a)" style="fill: #1f77b4"/>
   </g>
   <g id="patch_7">
    <path d="M 120.602344 413.712957 
L 354.469908 413.712957 
L 354.469908 395.064008 
L 120.602344 395.064008 
z
" clip-path="url(#p2aba66207a)" style="fill: #1f77b4"/>
   </g>
   <g id="patch_8">
    <path d="M 120.602344 390.40177 
L 354.508034 390.40177 
L 354.508034 371.75282 
L 120.602344 371.75282 
z
" clip-path="url(#p2aba66207a)" style="fill: #1f77b4"/>
   </g>
   <g id="patch_9">
    <path d="M 120.602344 367.090583 
L 399.19369 367.090583 
L 399.19369 348.441633 
L 120.602344 348.441633 
z
" clip-path="url(#p2aba66207a)" style="fill: #1f77b4"/>
   </g>
   <g id="patch_10">
    <path d="M 120.602344 343.779396 
L 399.212753 343.779396 
L 399.212753 325.130446 
L 120.602344 325.130446 
z
" clip-path="url(#p2aba66207a)" style="fill: #1f77b4"/>
   </g>
   <g id="patch_11">
    <path d="M 120.602344 320.468209 
L 405.775132 320.468209 
L 405.775132 301.819259 
L 120.602344 301.819259 
z
" clip-path="url(#p2aba66207a)" style="fill: #1f77b4"/>
   </g>
   <g id="patch_12">
    <path d="M 120.602344 297.157022 
L 405.806109 297.157022 
L 405.806109 278.508072 
L 120.602344 278.508072 
z
" clip-path="url(#p2aba66207a)" style="fill: #1f77b4"/>
   </g>
   <g id="patch_13">
    <path d="M 120.602344 273.845834 
L 422.476554 273.845834 
L 422.476554 255.196885 
L 120.602344 255.196885 
z
" clip-path="url(#p2aba66207a)" style="fill: #1f77b4"/>
   </g>
   <g id="patch_14">
    <path d="M 120.602344 250.534647 
L 422.495617 250.534647 
L 422.495617 231.885698 
L 120.602344 231.885698 
z
" clip-path="url(#p2aba66207a)" style="fill: #1f77b4"/>
   </g>
   <g id="patch_15">
    <path d="M 120.602344 227.22346 
L 475.852478 227.22346 
L 475.852478 208.57451 
L 120.602344 208.57451 
z
" clip-path="url(#p2aba66207a)" style="fill: #1f77b4"/>
   </g>
   <g id="patch_16">
    <path d="M 120.602344 203.912273 
L 475.86201 203.912273 
L 475.86201 185.263323 
L 120.602344 185.263323 
z
" clip-path="url(#p2aba66207a)" style="fill: #1f77b4"/>
   </g>
   <g id="patch_17">
    <path d="M 120.602344 180.601086 
L 588.780683 180.601086 
L 588.780683 161.952136 
L 120.602344 161.952136 
z
" clip-path="url(#p2aba66207a)" style="fill: #1f77b4"/>
   </g>
   <g id="patch_18">
    <path d="M 120.602344 157.289899 
L 588.780683 157.289899 
L 588.780683 138.640949 
L 120.602344 138.640949 
z
" clip-path="url(#p2aba66207a)" style="fill: #1f77b4"/>
   </g>
   <g id="patch_19">
    <path d="M 120.602344 133.978711 
L 603.144526 133.978711 
L 603.144526 115.329762 
L 120.602344 115.329762 
z
" clip-path="url(#p2aba66207a)" style="fill: #1f77b4"/>
   </g>
   <g id="patch_20">
    <path d="M 120.602344 110.667524 
L 603.185034 110.667524 
L 603.185034 92.018575 
L 120.602344 92.018575 
z
" clip-path="url(#p2aba66207a)" style="fill: #1f77b4"/>
   </g>
   <g id="patch_21">
    <path d="M 120.602344 87.356337 
L 669.476026 87.356337 
L 669.476026 68.707387 
L 120.602344 68.707387 
z
" clip-path="url(#p2aba66207a)" style="fill: #1f77b4"/>
   </g>
   <g id="patch_22">
    <path d="M 120.602344 64.04515 
L 669.478409 64.04515 
L 669.478409 45.3962 
L 120.602344 45.3962 
z
" clip-path="url(#p2aba66207a)" style="fill: #1f77b4"/>
   </g>
   <g id="matplotlib.axis_1">
    <g id="xtick_1">
     <g id="line2d_1">
      <path d="M 120.602344 530.035781 
L 120.602344 22.318125 
" clip-path="url(#p2aba66207a)" style="fill: none; stroke: #b0b0b0; stroke-opacity: 0.25; stroke-width: 0.8; stroke-linecap: square"/>
     </g>
     <g id="line2d_2">
      <defs>
       <path id="m8917bd6a1c" d="M 0 0 
L 0 3.5 
" style="stroke: #000000; stroke-width: 0.8"/>
      </defs>
      <g>
       <use xlink:href="#m8917bd6a1c" x="120.602344" y="530.035781" style="stroke: #000000; stroke-width: 0.8"/>
      </g>
     </g>
     <g id="text_1">
      <!-- 0 -->
      <g transform="translate(117.421094 544.633437) scale(0.1 -0.1)">
       <defs>
        <path id="DejaVuSans-13" d="M 2034 4250 
Q 1547 4250 1301 3770 
Q 1056 3291 1056 2328 
Q 1056 1369 1301 889 
Q 1547 409 2034 409 
Q 2525 409 2770 889 
Q 3016 1369 3016 2328 
Q 3016 3291 2770 3770 
Q 2525 4250 2034 4250 
z
M 2034 4750 
Q 2819 4750 3233 4129 
Q 3647 3509 3647 2328 
Q 3647 1150 3233 529 
Q 2819 -91 2034 -91 
Q 1250 -91 836 529 
Q 422 1150 422 2328 
Q 422 3509 836 4129 
Q 1250 4750 2034 4750 
z
" transform="scale(0.015625)"/>
       </defs>
       <use xlink:href="#DejaVuSans-13"/>
      </g>
     </g>
    </g>
    <g id="xtick_2">
     <g id="line2d_3">
      <path d="M 239.745031 530.035781 
L 239.745031 22.318125 
" clip-path="url(#p2aba66207a)" style="fill: none; stroke: #b0b0b0; stroke-opacity: 0.25; stroke-width: 0.8; stroke-linecap: square"/>
     </g>
     <g id="line2d_4">
      <g>
       <use xlink:href="#m8917bd6a1c" x="239.745031" y="530.035781" style="stroke: #000000; stroke-width: 0.8"/>
      </g>
     </g>
     <g id="text_2">
      <!-- 50 -->
      <g transform="translate(233.382531 544.633437) scale(0.1 -0.1)">
       <defs>
        <path id="DejaVuSans-18" d="M 691 4666 
L 3169 4666 
L 3169 4134 
L 1269 4134 
L 1269 2991 
Q 1406 3038 1543 3061 
Q 1681 3084 1819 3084 
Q 2600 3084 3056 2656 
Q 3513 2228 3513 1497 
Q 3513 744 3044 326 
Q 2575 -91 1722 -91 
Q 1428 -91 1123 -41 
Q 819 9 494 109 
L 494 744 
Q 775 591 1075 516 
Q 1375 441 1709 441 
Q 2250 441 2565 725 
Q 2881 1009 2881 1497 
Q 2881 1984 2565 2268 
Q 2250 2553 1709 2553 
Q 1456 2553 1204 2497 
Q 953 2441 691 2322 
L 691 4666 
z
" transform="scale(0.015625)"/>
       </defs>
       <use xlink:href="#DejaVuSans-18"/>
       <use xlink:href="#DejaVuSans-13" transform="translate(63.625 0)"/>
      </g>
     </g>
    </g>
    <g id="xtick_3">
     <g id="line2d_5">
      <path d="M 358.887719 530.035781 
L 358.887719 22.318125 
" clip-path="url(#p2aba66207a)" style="fill: none; stroke: #b0b0b0; stroke-opacity: 0.25; stroke-width: 0.8; stroke-linecap: square"/>
     </g>
     <g id="line2d_6">
      <g>
       <use xlink:href="#m8917bd6a1c" x="358.887719" y="530.035781" style="stroke: #000000; stroke-width: 0.8"/>
      </g>
     </g>
     <g id="text_3">
      <!-- 100 -->
      <g transform="translate(349.343969 544.633437) scale(0.1 -0.1)">
       <defs>
        <path id="DejaVuSans-14" d="M 794 531 
L 1825 531 
L 1825 4091 
L 703 3866 
L 703 4441 
L 1819 4666 
L 2450 4666 
L 2450 531 
L 3481 531 
L 3481 0 
L 794 0 
L 794 531 
z
" transform="scale(0.015625)"/>
       </defs>
       <use xlink:href="#DejaVuSans-14"/>
       <use xlink:href="#DejaVuSans-13" transform="translate(63.625 0)"/>
       <use xlink:href="#DejaVuSans-13" transform="translate(127.25 0)"/>
      </g>
     </g>
    </g>
    <g id="xtick_4">
     <g id="line2d_7">
      <path d="M 478.030407 530.035781 
L 478.030407 22.318125 
" clip-path="url(#p2aba66207a)" style="fill: none; stroke: #b0b0b0; stroke-opacity: 0.25; stroke-width: 0.8; stroke-linecap: square"/>
     </g>
     <g id="line2d_8">
      <g>
       <use xlink:href="#m8917bd6a1c" x="478.030407" y="530.035781" style="stroke: #000000; stroke-width: 0.8"/>
      </g>
     </g>
     <g id="text_4">
      <!-- 150 -->
      <g transform="translate(468.486657 544.633437) scale(0.1 -0.1)">
       <use xlink:href="#DejaVuSans-14"/>
       <use xlink:href="#DejaVuSans-18" transform="translate(63.625 0)"/>
       <use xlink:href="#DejaVuSans-13" transform="translate(127.25 0)"/>
      </g>
     </g>
    </g>
    <g id="xtick_5">
     <g id="line2d_9">
      <path d="M 597.173094 530.035781 
L 597.173094 22.318125 
" clip-path="url(#p2aba66207a)" style="fill: none; stroke: #b0b0b0; stroke-opacity: 0.25; stroke-width: 0.8; stroke-linecap: square"/>
     </g>
     <g id="line2d_10">
      <g>
       <use xlink:href="#m8917bd6a1c" x="597.173094" y="530.035781" style="stroke: #000000; stroke-width: 0.8"/>
      </g>
     </g>
     <g id="text_5">
      <!-- 200 -->
      <g transform="translate(587.629344 544.633437) scale(0.1 -0.1)">
       <defs>
        <path id="DejaVuSans-15" d="M 1228 531 
L 3431 531 
L 3431 0 
L 469 0 
L 469 531 
Q 828 903 1448 1529 
Q 2069 2156 2228 2338 
Q 2531 2678 2651 2914 
Q 2772 3150 2772 3378 
Q 2772 3750 2511 3984 
Q 2250 4219 1831 4219 
Q 1534 4219 1204 4116 
Q 875 4013 500 3803 
L 500 4441 
Q 881 4594 1212 4672 
Q 1544 4750 1819 4750 
Q 2544 4750 2975 4387 
Q 3406 4025 3406 3419 
Q 3406 3131 3298 2873 
Q 3191 2616 2906 2266 
Q 2828 2175 2409 1742 
Q 1991 1309 1228 531 
z
" transform="scale(0.015625)"/>
       </defs>
       <use xlink:href="#DejaVuSans-15"/>
       <use xlink:href="#DejaVuSans-13" transform="translate(63.625 0)"/>
       <use xlink:href="#DejaVuSans-13" transform="translate(127.25 0)"/>
      </g>
     </g>
    </g>
    <g id="text_6">
     <!-- Median RTT (ms) -->
     <g transform="translate(366.890403 558.634219) scale(0.1 -0.1)">
      <defs>
       <path id="DejaVuSans-30" d="M 628 4666 
L 1569 4666 
L 2759 1491 
L 3956 4666 
L 4897 4666 
L 4897 0 
L 4281 0 
L 4281 4097 
L 3078 897 
L 2444 897 
L 1241 4097 
L 1241 0 
L 628 0 
L 628 4666 
z
" transform="scale(0.015625)"/>
       <path id="DejaVuSans-48" d="M 3597 1894 
L 3597 1613 
L 953 1613 
Q 991 1019 1311 708 
Q 1631 397 2203 397 
Q 2534 397 2845 478 
Q 3156 559 3463 722 
L 3463 178 
Q 3153 47 2828 -22 
Q 2503 -91 2169 -91 
Q 1331 -91 842 396 
Q 353 884 353 1716 
Q 353 2575 817 3079 
Q 1281 3584 2069 3584 
Q 2775 3584 3186 3129 
Q 3597 2675 3597 1894 
z
M 3022 2063 
Q 3016 2534 2758 2815 
Q 2500 3097 2075 3097 
Q 1594 3097 1305 2825 
Q 1016 2553 972 2059 
L 3022 2063 
z
" transform="scale(0.015625)"/>
       <path id="DejaVuSans-47" d="M 2906 2969 
L 2906 4863 
L 3481 4863 
L 3481 0 
L 2906 0 
L 2906 525 
Q 2725 213 2448 61 
Q 2172 -91 1784 -91 
Q 1150 -91 751 415 
Q 353 922 353 1747 
Q 353 2572 751 3078 
Q 1150 3584 1784 3584 
Q 2172 3584 2448 3432 
Q 2725 3281 2906 2969 
z
M 947 1747 
Q 947 1113 1208 752 
Q 1469 391 1925 391 
Q 2381 391 2643 752 
Q 2906 1113 2906 1747 
Q 2906 2381 2643 2742 
Q 2381 3103 1925 3103 
Q 1469 3103 1208 2742 
Q 947 2381 947 1747 
z
" transform="scale(0.015625)"/>
       <path id="DejaVuSans-4c" d="M 603 3500 
L 1178 3500 
L 1178 0 
L 603 0 
L 603 3500 
z
M 603 4863 
L 1178 4863 
L 1178 4134 
L 603 4134 
L 603 4863 
z
" transform="scale(0.015625)"/>
       <path id="DejaVuSans-44" d="M 2194 1759 
Q 1497 1759 1228 1600 
Q 959 1441 959 1056 
Q 959 750 1161 570 
Q 1363 391 1709 391 
Q 2188 391 2477 730 
Q 2766 1069 2766 1631 
L 2766 1759 
L 2194 1759 
z
M 3341 1997 
L 3341 0 
L 2766 0 
L 2766 531 
Q 2569 213 2275 61 
Q 1981 -91 1556 -91 
Q 1019 -91 701 211 
Q 384 513 384 1019 
Q 384 1609 779 1909 
Q 1175 2209 1959 2209 
L 2766 2209 
L 2766 2266 
Q 2766 2663 2505 2880 
Q 2244 3097 1772 3097 
Q 1472 3097 1187 3025 
Q 903 2953 641 2809 
L 641 3341 
Q 956 3463 1253 3523 
Q 1550 3584 1831 3584 
Q 2591 3584 2966 3190 
Q 3341 2797 3341 1997 
z
" transform="scale(0.015625)"/>
       <path id="DejaVuSans-51" d="M 3513 2113 
L 3513 0 
L 2938 0 
L 2938 2094 
Q 2938 2591 2744 2837 
Q 2550 3084 2163 3084 
Q 1697 3084 1428 2787 
Q 1159 2491 1159 1978 
L 1159 0 
L 581 0 
L 581 3500 
L 1159 3500 
L 1159 2956 
Q 1366 3272 1645 3428 
Q 1925 3584 2291 3584 
Q 2894 3584 3203 3211 
Q 3513 2838 3513 2113 
z
" transform="scale(0.015625)"/>
       <path id="DejaVuSans-3" transform="scale(0.015625)"/>
       <path id="DejaVuSans-35" d="M 2841 2188 
Q 3044 2119 3236 1894 
Q 3428 1669 3622 1275 
L 4263 0 
L 3584 0 
L 2988 1197 
Q 2756 1666 2539 1819 
Q 2322 1972 1947 1972 
L 1259 1972 
L 1259 0 
L 628 0 
L 628 4666 
L 2053 4666 
Q 2853 4666 3247 4331 
Q 3641 3997 3641 3322 
Q 3641 2881 3436 2590 
Q 3231 2300 2841 2188 
z
M 1259 4147 
L 1259 2491 
L 2053 2491 
Q 2509 2491 2742 2702 
Q 2975 2913 2975 3322 
Q 2975 3731 2742 3939 
Q 2509 4147 2053 4147 
L 1259 4147 
z
" transform="scale(0.015625)"/>
       <path id="DejaVuSans-37" d="M -19 4666 
L 3928 4666 
L 3928 4134 
L 2272 4134 
L 2272 0 
L 1638 0 
L 1638 4134 
L -19 4134 
L -19 4666 
z
" transform="scale(0.015625)"/>
       <path id="DejaVuSans-b" d="M 1984 4856 
Q 1566 4138 1362 3434 
Q 1159 2731 1159 2009 
Q 1159 1288 1364 580 
Q 1569 -128 1984 -844 
L 1484 -844 
Q 1016 -109 783 600 
Q 550 1309 550 2009 
Q 550 2706 781 3412 
Q 1013 4119 1484 4856 
L 1984 4856 
z
" transform="scale(0.015625)"/>
       <path id="DejaVuSans-50" d="M 3328 2828 
Q 3544 3216 3844 3400 
Q 4144 3584 4550 3584 
Q 5097 3584 5394 3201 
Q 5691 2819 5691 2113 
L 5691 0 
L 5113 0 
L 5113 2094 
Q 5113 2597 4934 2840 
Q 4756 3084 4391 3084 
Q 3944 3084 3684 2787 
Q 3425 2491 3425 1978 
L 3425 0 
L 2847 0 
L 2847 2094 
Q 2847 2600 2669 2842 
Q 2491 3084 2119 3084 
Q 1678 3084 1418 2786 
Q 1159 2488 1159 1978 
L 1159 0 
L 581 0 
L 581 3500 
L 1159 3500 
L 1159 2956 
Q 1356 3278 1631 3431 
Q 1906 3584 2284 3584 
Q 2666 3584 2933 3390 
Q 3200 3197 3328 2828 
z
" transform="scale(0.015625)"/>
       <path id="DejaVuSans-56" d="M 2834 3397 
L 2834 2853 
Q 2591 2978 2328 3040 
Q 2066 3103 1784 3103 
Q 1356 3103 1142 2972 
Q 928 2841 928 2578 
Q 928 2378 1081 2264 
Q 1234 2150 1697 2047 
L 1894 2003 
Q 2506 1872 2764 1633 
Q 3022 1394 3022 966 
Q 3022 478 2636 193 
Q 2250 -91 1575 -91 
Q 1294 -91 989 -36 
Q 684 19 347 128 
L 347 722 
Q 666 556 975 473 
Q 1284 391 1588 391 
Q 1994 391 2212 530 
Q 2431 669 2431 922 
Q 2431 1156 2273 1281 
Q 2116 1406 1581 1522 
L 1381 1569 
Q 847 1681 609 1914 
Q 372 2147 372 2553 
Q 372 3047 722 3315 
Q 1072 3584 1716 3584 
Q 2034 3584 2315 3537 
Q 2597 3491 2834 3397 
z
" transform="scale(0.015625)"/>
       <path id="DejaVuSans-c" d="M 513 4856 
L 1013 4856 
Q 1481 4119 1714 3412 
Q 1947 2706 1947 2009 
Q 1947 1309 1714 600 
Q 1481 -109 1013 -844 
L 513 -844 
Q 928 -128 1133 580 
Q 1338 1288 1338 2009 
Q 1338 2731 1133 3434 
Q 928 4138 513 4856 
z
" transform="scale(0.015625)"/>
      </defs>
      <use xlink:href="#DejaVuSans-30"/>
      <use xlink:href="#DejaVuSans-48" transform="translate(86.28125 0)"/>
      <use xlink:href="#DejaVuSans-47" transform="translate(147.8125 0)"/>
      <use xlink:href="#DejaVuSans-4c" transform="translate(211.296875 0)"/>
      <use xlink:href="#DejaVuSans-44" transform="translate(239.078125 0)"/>
      <use xlink:href="#DejaVuSans-51" transform="translate(300.359375 0)"/>
      <use xlink:href="#DejaVuSans-3" transform="translate(363.734375 0)"/>
      <use xlink:href="#DejaVuSans-35" transform="translate(395.515625 0)"/>
      <use xlink:href="#DejaVuSans-37" transform="translate(457.71875 0)"/>
      <use xlink:href="#DejaVuSans-37" transform="translate(517.046875 0)"/>
      <use xlink:href="#DejaVuSans-3" transform="translate(578.125 0)"/>
      <use xlink:href="#DejaVuSans-b" transform="translate(609.90625 0)"/>
      <use xlink:href="#DejaVuSans-50" transform="translate(648.921875 0)"/>
      <use xlink:href="#DejaVuSans-56" transform="translate(746.328125 0)"/>
      <use xlink:href="#DejaVuSans-c" transform="translate(798.421875 0)"/>
     </g>
    </g>
   </g>
   <g id="matplotlib.axis_2">
    <g id="ytick_1">
     <g id="line2d_11">
      <defs>
       <path id="m14e3a4196c" d="M 0 0 
L -3.5 0 
" style="stroke: #000000; stroke-width: 0.8"/>
      </defs>
      <g>
       <use xlink:href="#m14e3a4196c" x="120.602344" y="497.633231" style="stroke: #000000; stroke-width: 0.8"/>
      </g>
     </g>
     <g id="text_7">
      <!-- Oregon → Virginia -->
      <g transform="translate(24.441406 501.43245) scale(0.1 -0.1)">
       <defs>
        <path id="DejaVuSans-32" d="M 2522 4238 
Q 1834 4238 1429 3725 
Q 1025 3213 1025 2328 
Q 1025 1447 1429 934 
Q 1834 422 2522 422 
Q 3209 422 3611 934 
Q 4013 1447 4013 2328 
Q 4013 3213 3611 3725 
Q 3209 4238 2522 4238 
z
M 2522 4750 
Q 3503 4750 4090 4092 
Q 4678 3434 4678 2328 
Q 4678 1225 4090 567 
Q 3503 -91 2522 -91 
Q 1538 -91 948 565 
Q 359 1222 359 2328 
Q 359 3434 948 4092 
Q 1538 4750 2522 4750 
z
" transform="scale(0.015625)"/>
        <path id="DejaVuSans-55" d="M 2631 2963 
Q 2534 3019 2420 3045 
Q 2306 3072 2169 3072 
Q 1681 3072 1420 2755 
Q 1159 2438 1159 1844 
L 1159 0 
L 581 0 
L 581 3500 
L 1159 3500 
L 1159 2956 
Q 1341 3275 1631 3429 
Q 1922 3584 2338 3584 
Q 2397 3584 2469 3576 
Q 2541 3569 2628 3553 
L 2631 2963 
z
" transform="scale(0.015625)"/>
        <path id="DejaVuSans-4a" d="M 2906 1791 
Q 2906 2416 2648 2759 
Q 2391 3103 1925 3103 
Q 1463 3103 1205 2759 
Q 947 2416 947 1791 
Q 947 1169 1205 825 
Q 1463 481 1925 481 
Q 2391 481 2648 825 
Q 2906 1169 2906 1791 
z
M 3481 434 
Q 3481 -459 3084 -895 
Q 2688 -1331 1869 -1331 
Q 1566 -1331 1297 -1286 
Q 1028 -1241 775 -1147 
L 775 -588 
Q 1028 -725 1275 -790 
Q 1522 -856 1778 -856 
Q 2344 -856 2625 -561 
Q 2906 -266 2906 331 
L 2906 616 
Q 2728 306 2450 153 
Q 2172 0 1784 0 
Q 1141 0 747 490 
Q 353 981 353 1791 
Q 353 2603 747 3093 
Q 1141 3584 1784 3584 
Q 2172 3584 2450 3431 
Q 2728 3278 2906 2969 
L 2906 3500 
L 3481 3500 
L 3481 434 
z
" transform="scale(0.015625)"/>
        <path id="DejaVuSans-52" d="M 1959 3097 
Q 1497 3097 1228 2736 
Q 959 2375 959 1747 
Q 959 1119 1226 758 
Q 1494 397 1959 397 
Q 2419 397 2687 759 
Q 2956 1122 2956 1747 
Q 2956 2369 2687 2733 
Q 2419 3097 1959 3097 
z
M 1959 3584 
Q 2709 3584 3137 3096 
Q 3566 2609 3566 1747 
Q 3566 888 3137 398 
Q 2709 -91 1959 -91 
Q 1206 -91 779 398 
Q 353 888 353 1747 
Q 353 2609 779 3096 
Q 1206 3584 1959 3584 
z
" transform="scale(0.015625)"/>
        <path id="DejaVuSans-c1c" d="M 5050 2147 
L 5050 1866 
L 3822 638 
L 3447 1013 
L 4175 1741 
L 366 1741 
L 366 2272 
L 4175 2272 
L 3447 3000 
L 3822 3375 
L 5050 2147 
z
" transform="scale(0.015625)"/>
        <path id="DejaVuSans-39" d="M 1831 0 
L 50 4666 
L 709 4666 
L 2188 738 
L 3669 4666 
L 4325 4666 
L 2547 0 
L 1831 0 
z
" transform="scale(0.015625)"/>
       </defs>
       <use xlink:href="#DejaVuSans-32"/>
       <use xlink:href="#DejaVuSans-55" transform="translate(78.71875 0)"/>
       <use xlink:href="#DejaVuSans-48" transform="translate(117.625 0)"/>
       <use xlink:href="#DejaVuSans-4a" transform="translate(179.15625 0)"/>
       <use xlink:href="#DejaVuSans-52" transform="translate(242.640625 0)"/>
       <use xlink:href="#DejaVuSans-51" transform="translate(303.828125 0)"/>
       <use xlink:href="#DejaVuSans-3" transform="translate(367.203125 0)"/>
       <use xlink:href="#DejaVuSans-c1c" transform="translate(398.984375 0)"/>
       <use xlink:href="#DejaVuSans-3" transform="translate(482.78125 0)"/>
       <use xlink:href="#DejaVuSans-39" transform="translate(514.5625 0)"/>
       <use xlink:href="#DejaVuSans-4c" transform="translate(580.765625 0)"/>
       <use xlink:href="#DejaVuSans-55" transform="translate(608.546875 0)"/>
       <use xlink:href="#DejaVuSans-4a" transform="translate(647.90625 0)"/>
       <use xlink:href="#DejaVuSans-4c" transform="translate(711.390625 0)"/>
       <use xlink:href="#DejaVuSans-51" transform="translate(739.171875 0)"/>
       <use xlink:href="#DejaVuSans-4c" transform="translate(802.546875 0)"/>
       <use xlink:href="#DejaVuSans-44" transform="translate(830.328125 0)"/>
      </g>
     </g>
    </g>
    <g id="ytick_2">
     <g id="line2d_12">
      <g>
       <use xlink:href="#m14e3a4196c" x="120.602344" y="474.322044" style="stroke: #000000; stroke-width: 0.8"/>
      </g>
     </g>
     <g id="text_8">
      <!-- Virginia → Oregon -->
      <g transform="translate(24.441406 478.121263) scale(0.1 -0.1)">
       <use xlink:href="#DejaVuSans-39"/>
       <use xlink:href="#DejaVuSans-4c" transform="translate(66.203125 0)"/>
       <use xlink:href="#DejaVuSans-55" transform="translate(93.984375 0)"/>
       <use xlink:href="#DejaVuSans-4a" transform="translate(133.34375 0)"/>
       <use xlink:href="#DejaVuSans-4c" transform="translate(196.828125 0)"/>
       <use xlink:href="#DejaVuSans-51" transform="translate(224.609375 0)"/>
       <use xlink:href="#DejaVuSans-4c" transform="translate(287.984375 0)"/>
       <use xlink:href="#DejaVuSans-44" transform="translate(315.765625 0)"/>
       <use xlink:href="#DejaVuSans-3" transform="translate(377.046875 0)"/>
       <use xlink:href="#DejaVuSans-c1c" transform="translate(408.828125 0)"/>
       <use xlink:href="#DejaVuSans-3" transform="translate(492.625 0)"/>
       <use xlink:href="#DejaVuSans-32" transform="translate(524.40625 0)"/>
       <use xlink:href="#DejaVuSans-55" transform="translate(603.125 0)"/>
       <use xlink:href="#DejaVuSans-48" transform="translate(642.03125 0)"/>
       <use xlink:href="#DejaVuSans-4a" transform="translate(703.5625 0)"/>
       <use xlink:href="#DejaVuSans-52" transform="translate(767.046875 0)"/>
       <use xlink:href="#DejaVuSans-51" transform="translate(828.234375 0)"/>
      </g>
     </g>
    </g>
    <g id="ytick_3">
     <g id="line2d_13">
      <g>
       <use xlink:href="#m14e3a4196c" x="120.602344" y="451.010857" style="stroke: #000000; stroke-width: 0.8"/>
      </g>
     </g>
     <g id="text_9">
      <!-- Virginia → Ireland -->
      <g transform="translate(26.575781 454.810076) scale(0.1 -0.1)">
       <defs>
        <path id="DejaVuSans-2c" d="M 628 4666 
L 1259 4666 
L 1259 0 
L 628 0 
L 628 4666 
z
" transform="scale(0.015625)"/>
        <path id="DejaVuSans-4f" d="M 603 4863 
L 1178 4863 
L 1178 0 
L 603 0 
L 603 4863 
z
" transform="scale(0.015625)"/>
       </defs>
       <use xlink:href="#DejaVuSans-39"/>
       <use xlink:href="#DejaVuSans-4c" transform="translate(66.203125 0)"/>
       <use xlink:href="#DejaVuSans-55" transform="translate(93.984375 0)"/>
       <use xlink:href="#DejaVuSans-4a" transform="translate(133.34375 0)"/>
       <use xlink:href="#DejaVuSans-4c" transform="translate(196.828125 0)"/>
       <use xlink:href="#DejaVuSans-51" transform="translate(224.609375 0)"/>
       <use xlink:href="#DejaVuSans-4c" transform="translate(287.984375 0)"/>
       <use xlink:href="#DejaVuSans-44" transform="translate(315.765625 0)"/>
       <use xlink:href="#DejaVuSans-3" transform="translate(377.046875 0)"/>
       <use xlink:href="#DejaVuSans-c1c" transform="translate(408.828125 0)"/>
       <use xlink:href="#DejaVuSans-3" transform="translate(492.625 0)"/>
       <use xlink:href="#DejaVuSans-2c" transform="translate(524.40625 0)"/>
       <use xlink:href="#DejaVuSans-55" transform="translate(553.90625 0)"/>
       <use xlink:href="#DejaVuSans-48" transform="translate(592.8125 0)"/>
       <use xlink:href="#DejaVuSans-4f" transform="translate(654.34375 0)"/>
       <use xlink:href="#DejaVuSans-44" transform="translate(682.125 0)"/>
       <use xlink:href="#DejaVuSans-51" transform="translate(743.40625 0)"/>
       <use xlink:href="#DejaVuSans-47" transform="translate(806.78125 0)"/>
      </g>
     </g>
    </g>
    <g id="ytick_4">
     <g id="line2d_14">
      <g>
       <use xlink:href="#m14e3a4196c" x="120.602344" y="427.69967" style="stroke: #000000; stroke-width: 0.8"/>
      </g>
     </g>
     <g id="text_10">
      <!-- Ireland → Virginia -->
      <g transform="translate(26.575781 431.498888) scale(0.1 -0.1)">
       <use xlink:href="#DejaVuSans-2c"/>
       <use xlink:href="#DejaVuSans-55" transform="translate(29.5 0)"/>
       <use xlink:href="#DejaVuSans-48" transform="translate(68.40625 0)"/>
       <use xlink:href="#DejaVuSans-4f" transform="translate(129.9375 0)"/>
       <use xlink:href="#DejaVuSans-44" transform="translate(157.71875 0)"/>
       <use xlink:href="#DejaVuSans-51" transform="translate(219 0)"/>
       <use xlink:href="#DejaVuSans-47" transform="translate(282.375 0)"/>
       <use xlink:href="#DejaVuSans-3" transform="translate(345.859375 0)"/>
       <use xlink:href="#DejaVuSans-c1c" transform="translate(377.640625 0)"/>
       <use xlink:href="#DejaVuSans-3" transform="translate(461.4375 0)"/>
       <use xlink:href="#DejaVuSans-39" transform="translate(493.21875 0)"/>
       <use xlink:href="#DejaVuSans-4c" transform="translate(559.421875 0)"/>
       <use xlink:href="#DejaVuSans-55" transform="translate(587.203125 0)"/>
       <use xlink:href="#DejaVuSans-4a" transform="translate(626.5625 0)"/>
       <use xlink:href="#DejaVuSans-4c" transform="translate(690.046875 0)"/>
       <use xlink:href="#DejaVuSans-51" transform="translate(717.828125 0)"/>
       <use xlink:href="#DejaVuSans-4c" transform="translate(781.203125 0)"/>
       <use xlink:href="#DejaVuSans-44" transform="translate(808.984375 0)"/>
      </g>
     </g>
    </g>
    <g id="ytick_5">
     <g id="line2d_15">
      <g>
       <use xlink:href="#m14e3a4196c" x="120.602344" y="404.388482" style="stroke: #000000; stroke-width: 0.8"/>
      </g>
     </g>
     <g id="text_11">
      <!-- Tokyo → Oregon -->
      <g transform="translate(34.146094 408.187701) scale(0.1 -0.1)">
       <defs>
        <path id="DejaVuSans-4e" d="M 581 4863 
L 1159 4863 
L 1159 1991 
L 2875 3500 
L 3609 3500 
L 1753 1863 
L 3688 0 
L 2938 0 
L 1159 1709 
L 1159 0 
L 581 0 
L 581 4863 
z
" transform="scale(0.015625)"/>
        <path id="DejaVuSans-5c" d="M 2059 -325 
Q 1816 -950 1584 -1140 
Q 1353 -1331 966 -1331 
L 506 -1331 
L 506 -850 
L 844 -850 
Q 1081 -850 1212 -737 
Q 1344 -625 1503 -206 
L 1606 56 
L 191 3500 
L 800 3500 
L 1894 763 
L 2988 3500 
L 3597 3500 
L 2059 -325 
z
" transform="scale(0.015625)"/>
       </defs>
       <use xlink:href="#DejaVuSans-37"/>
       <use xlink:href="#DejaVuSans-52" transform="translate(44.09375 0)"/>
       <use xlink:href="#DejaVuSans-4e" transform="translate(105.28125 0)"/>
       <use xlink:href="#DejaVuSans-5c" transform="translate(159.625 0)"/>
       <use xlink:href="#DejaVuSans-52" transform="translate(218.8125 0)"/>
       <use xlink:href="#DejaVuSans-3" transform="translate(280 0)"/>
       <use xlink:href="#DejaVuSans-c1c" transform="translate(311.78125 0)"/>
       <use xlink:href="#DejaVuSans-3" transform="translate(395.578125 0)"/>
       <use xlink:href="#DejaVuSans-32" transform="translate(427.359375 0)"/>
       <use xlink:href="#DejaVuSans-55" transform="translate(506.078125 0)"/>
       <use xlink:href="#DejaVuSans-48" transform="translate(544.984375 0)"/>
       <use xlink:href="#DejaVuSans-4a" transform="translate(606.515625 0)"/>
       <use xlink:href="#DejaVuSans-52" transform="translate(670 0)"/>
       <use xlink:href="#DejaVuSans-51" transform="translate(731.1875 0)"/>
      </g>
     </g>
    </g>
    <g id="ytick_6">
     <g id="line2d_16">
      <g>
       <use xlink:href="#m14e3a4196c" x="120.602344" y="381.077295" style="stroke: #000000; stroke-width: 0.8"/>
      </g>
     </g>
     <g id="text_12">
      <!-- Oregon → Tokyo -->
      <g transform="translate(34.146094 384.876514) scale(0.1 -0.1)">
       <use xlink:href="#DejaVuSans-32"/>
       <use xlink:href="#DejaVuSans-55" transform="translate(78.71875 0)"/>
       <use xlink:href="#DejaVuSans-48" transform="translate(117.625 0)"/>
       <use xlink:href="#DejaVuSans-4a" transform="translate(179.15625 0)"/>
       <use xlink:href="#DejaVuSans-52" transform="translate(242.640625 0)"/>
       <use xlink:href="#DejaVuSans-51" transform="translate(303.828125 0)"/>
       <use xlink:href="#DejaVuSans-3" transform="translate(367.203125 0)"/>
       <use xlink:href="#DejaVuSans-c1c" transform="translate(398.984375 0)"/>
       <use xlink:href="#DejaVuSans-3" transform="translate(482.78125 0)"/>
       <use xlink:href="#DejaVuSans-37" transform="translate(514.5625 0)"/>
       <use xlink:href="#DejaVuSans-52" transform="translate(558.65625 0)"/>
       <use xlink:href="#DejaVuSans-4e" transform="translate(619.84375 0)"/>
       <use xlink:href="#DejaVuSans-5c" transform="translate(674.1875 0)"/>
       <use xlink:href="#DejaVuSans-52" transform="translate(733.375 0)"/>
      </g>
     </g>
    </g>
    <g id="ytick_7">
     <g id="line2d_17">
      <g>
       <use xlink:href="#m14e3a4196c" x="120.602344" y="357.766108" style="stroke: #000000; stroke-width: 0.8"/>
      </g>
     </g>
     <g id="text_13">
      <!-- Oregon → Ireland -->
      <g transform="translate(27.560156 361.565327) scale(0.1 -0.1)">
       <use xlink:href="#DejaVuSans-32"/>
       <use xlink:href="#DejaVuSans-55" transform="translate(78.71875 0)"/>
       <use xlink:href="#DejaVuSans-48" transform="translate(117.625 0)"/>
       <use xlink:href="#DejaVuSans-4a" transform="translate(179.15625 0)"/>
       <use xlink:href="#DejaVuSans-52" transform="translate(242.640625 0)"/>
       <use xlink:href="#DejaVuSans-51" transform="translate(303.828125 0)"/>
       <use xlink:href="#DejaVuSans-3" transform="translate(367.203125 0)"/>
       <use xlink:href="#DejaVuSans-c1c" transform="translate(398.984375 0)"/>
       <use xlink:href="#DejaVuSans-3" transform="translate(482.78125 0)"/>
       <use xlink:href="#DejaVuSans-2c" transform="translate(514.5625 0)"/>
       <use xlink:href="#DejaVuSans-55" transform="translate(544.0625 0)"/>
       <use xlink:href="#DejaVuSans-48" transform="translate(582.96875 0)"/>
       <use xlink:href="#DejaVuSans-4f" transform="translate(644.5 0)"/>
       <use xlink:href="#DejaVuSans-44" transform="translate(672.28125 0)"/>
       <use xlink:href="#DejaVuSans-51" transform="translate(733.5625 0)"/>
       <use xlink:href="#DejaVuSans-47" transform="translate(796.9375 0)"/>
      </g>
     </g>
    </g>
    <g id="ytick_8">
     <g id="line2d_18">
      <g>
       <use xlink:href="#m14e3a4196c" x="120.602344" y="334.454921" style="stroke: #000000; stroke-width: 0.8"/>
      </g>
     </g>
     <g id="text_14">
      <!-- Ireland → Oregon -->
      <g transform="translate(27.560156 338.25414) scale(0.1 -0.1)">
       <use xlink:href="#DejaVuSans-2c"/>
       <use xlink:href="#DejaVuSans-55" transform="translate(29.5 0)"/>
       <use xlink:href="#DejaVuSans-48" transform="translate(68.40625 0)"/>
       <use xlink:href="#DejaVuSans-4f" transform="translate(129.9375 0)"/>
       <use xlink:href="#DejaVuSans-44" transform="translate(157.71875 0)"/>
       <use xlink:href="#DejaVuSans-51" transform="translate(219 0)"/>
       <use xlink:href="#DejaVuSans-47" transform="translate(282.375 0)"/>
       <use xlink:href="#DejaVuSans-3" transform="translate(345.859375 0)"/>
       <use xlink:href="#DejaVuSans-c1c" transform="translate(377.640625 0)"/>
       <use xlink:href="#DejaVuSans-3" transform="translate(461.4375 0)"/>
       <use xlink:href="#DejaVuSans-32" transform="translate(493.21875 0)"/>
       <use xlink:href="#DejaVuSans-55" transform="translate(571.9375 0)"/>
       <use xlink:href="#DejaVuSans-48" transform="translate(610.84375 0)"/>
       <use xlink:href="#DejaVuSans-4a" transform="translate(672.375 0)"/>
       <use xlink:href="#DejaVuSans-52" transform="translate(735.859375 0)"/>
       <use xlink:href="#DejaVuSans-51" transform="translate(797.046875 0)"/>
      </g>
     </g>
    </g>
    <g id="ytick_9">
     <g id="line2d_19">
      <g>
       <use xlink:href="#m14e3a4196c" x="120.602344" y="311.143734" style="stroke: #000000; stroke-width: 0.8"/>
      </g>
     </g>
     <g id="text_15">
      <!-- Ireland → Mumbai -->
      <g transform="translate(24.319531 314.942953) scale(0.1 -0.1)">
       <defs>
        <path id="DejaVuSans-58" d="M 544 1381 
L 544 3500 
L 1119 3500 
L 1119 1403 
Q 1119 906 1312 657 
Q 1506 409 1894 409 
Q 2359 409 2629 706 
Q 2900 1003 2900 1516 
L 2900 3500 
L 3475 3500 
L 3475 0 
L 2900 0 
L 2900 538 
Q 2691 219 2414 64 
Q 2138 -91 1772 -91 
Q 1169 -91 856 284 
Q 544 659 544 1381 
z
M 1991 3584 
L 1991 3584 
z
" transform="scale(0.015625)"/>
        <path id="DejaVuSans-45" d="M 3116 1747 
Q 3116 2381 2855 2742 
Q 2594 3103 2138 3103 
Q 1681 3103 1420 2742 
Q 1159 2381 1159 1747 
Q 1159 1113 1420 752 
Q 1681 391 2138 391 
Q 2594 391 2855 752 
Q 3116 1113 3116 1747 
z
M 1159 2969 
Q 1341 3281 1617 3432 
Q 1894 3584 2278 3584 
Q 2916 3584 3314 3078 
Q 3713 2572 3713 1747 
Q 3713 922 3314 415 
Q 2916 -91 2278 -91 
Q 1894 -91 1617 61 
Q 1341 213 1159 525 
L 1159 0 
L 581 0 
L 581 4863 
L 1159 4863 
L 1159 2969 
z
" transform="scale(0.015625)"/>
       </defs>
       <use xlink:href="#DejaVuSans-2c"/>
       <use xlink:href="#DejaVuSans-55" transform="translate(29.5 0)"/>
       <use xlink:href="#DejaVuSans-48" transform="translate(68.40625 0)"/>
       <use xlink:href="#DejaVuSans-4f" transform="translate(129.9375 0)"/>
       <use xlink:href="#DejaVuSans-44" transform="translate(157.71875 0)"/>
       <use xlink:href="#DejaVuSans-51" transform="translate(219 0)"/>
       <use xlink:href="#DejaVuSans-47" transform="translate(282.375 0)"/>
       <use xlink:href="#DejaVuSans-3" transform="translate(345.859375 0)"/>
       <use xlink:href="#DejaVuSans-c1c" transform="translate(377.640625 0)"/>
       <use xlink:href="#DejaVuSans-3" transform="translate(461.4375 0)"/>
       <use xlink:href="#DejaVuSans-30" transform="translate(493.21875 0)"/>
       <use xlink:href="#DejaVuSans-58" transform="translate(579.5 0)"/>
       <use xlink:href="#DejaVuSans-50" transform="translate(642.875 0)"/>
       <use xlink:href="#DejaVuSans-45" transform="translate(740.28125 0)"/>
       <use xlink:href="#DejaVuSans-44" transform="translate(803.765625 0)"/>
       <use xlink:href="#DejaVuSans-4c" transform="translate(865.046875 0)"/>
      </g>
     </g>
    </g>
    <g id="ytick_10">
     <g id="line2d_20">
      <g>
       <use xlink:href="#m14e3a4196c" x="120.602344" y="287.832547" style="stroke: #000000; stroke-width: 0.8"/>
      </g>
     </g>
     <g id="text_16">
      <!-- Mumbai → Ireland -->
      <g transform="translate(24.319531 291.631765) scale(0.1 -0.1)">
       <use xlink:href="#DejaVuSans-30"/>
       <use xlink:href="#DejaVuSans-58" transform="translate(86.28125 0)"/>
       <use xlink:href="#DejaVuSans-50" transform="translate(149.65625 0)"/>
       <use xlink:href="#DejaVuSans-45" transform="translate(247.0625 0)"/>
       <use xlink:href="#DejaVuSans-44" transform="translate(310.546875 0)"/>
       <use xlink:href="#DejaVuSans-4c" transform="translate(371.828125 0)"/>
       <use xlink:href="#DejaVuSans-3" transform="translate(399.609375 0)"/>
       <use xlink:href="#DejaVuSans-c1c" transform="translate(431.390625 0)"/>
       <use xlink:href="#DejaVuSans-3" transform="translate(515.1875 0)"/>
       <use xlink:href="#DejaVuSans-2c" transform="translate(546.96875 0)"/>
       <use xlink:href="#DejaVuSans-55" transform="translate(576.46875 0)"/>
       <use xlink:href="#DejaVuSans-48" transform="translate(615.375 0)"/>
       <use xlink:href="#DejaVuSans-4f" transform="translate(676.90625 0)"/>
       <use xlink:href="#DejaVuSans-44" transform="translate(704.6875 0)"/>
       <use xlink:href="#DejaVuSans-51" transform="translate(765.96875 0)"/>
       <use xlink:href="#DejaVuSans-47" transform="translate(829.34375 0)"/>
      </g>
     </g>
    </g>
    <g id="ytick_11">
     <g id="line2d_21">
      <g>
       <use xlink:href="#m14e3a4196c" x="120.602344" y="264.52136" style="stroke: #000000; stroke-width: 0.8"/>
      </g>
     </g>
     <g id="text_17">
      <!-- Mumbai → Tokyo -->
      <g transform="translate(30.905469 268.320578) scale(0.1 -0.1)">
       <use xlink:href="#DejaVuSans-30"/>
       <use xlink:href="#DejaVuSans-58" transform="translate(86.28125 0)"/>
       <use xlink:href="#DejaVuSans-50" transform="translate(149.65625 0)"/>
       <use xlink:href="#DejaVuSans-45" transform="translate(247.0625 0)"/>
       <use xlink:href="#DejaVuSans-44" transform="translate(310.546875 0)"/>
       <use xlink:href="#DejaVuSans-4c" transform="translate(371.828125 0)"/>
       <use xlink:href="#DejaVuSans-3" transform="translate(399.609375 0)"/>
       <use xlink:href="#DejaVuSans-c1c" transform="translate(431.390625 0)"/>
       <use xlink:href="#DejaVuSans-3" transform="translate(515.1875 0)"/>
       <use xlink:href="#DejaVuSans-37" transform="translate(546.96875 0)"/>
       <use xlink:href="#DejaVuSans-52" transform="translate(591.0625 0)"/>
       <use xlink:href="#DejaVuSans-4e" transform="translate(652.25 0)"/>
       <use xlink:href="#DejaVuSans-5c" transform="translate(706.59375 0)"/>
       <use xlink:href="#DejaVuSans-52" transform="translate(765.78125 0)"/>
      </g>
     </g>
    </g>
    <g id="ytick_12">
     <g id="line2d_22">
      <g>
       <use xlink:href="#m14e3a4196c" x="120.602344" y="241.210172" style="stroke: #000000; stroke-width: 0.8"/>
      </g>
     </g>
     <g id="text_18">
      <!-- Tokyo → Mumbai -->
      <g transform="translate(30.905469 245.009391) scale(0.1 -0.1)">
       <use xlink:href="#DejaVuSans-37"/>
       <use xlink:href="#DejaVuSans-52" transform="translate(44.09375 0)"/>
       <use xlink:href="#DejaVuSans-4e" transform="translate(105.28125 0)"/>
       <use xlink:href="#DejaVuSans-5c" transform="translate(159.625 0)"/>
       <use xlink:href="#DejaVuSans-52" transform="translate(218.8125 0)"/>
       <use xlink:href="#DejaVuSans-3" transform="translate(280 0)"/>
       <use xlink:href="#DejaVuSans-c1c" transform="translate(311.78125 0)"/>
       <use xlink:href="#DejaVuSans-3" transform="translate(395.578125 0)"/>
       <use xlink:href="#DejaVuSans-30" transform="translate(427.359375 0)"/>
       <use xlink:href="#DejaVuSans-58" transform="translate(513.640625 0)"/>
       <use xlink:href="#DejaVuSans-50" transform="translate(577.015625 0)"/>
       <use xlink:href="#DejaVuSans-45" transform="translate(674.421875 0)"/>
       <use xlink:href="#DejaVuSans-44" transform="translate(737.90625 0)"/>
       <use xlink:href="#DejaVuSans-4c" transform="translate(799.1875 0)"/>
      </g>
     </g>
    </g>
    <g id="ytick_13">
     <g id="line2d_23">
      <g>
       <use xlink:href="#m14e3a4196c" x="120.602344" y="217.898985" style="stroke: #000000; stroke-width: 0.8"/>
      </g>
     </g>
     <g id="text_19">
      <!-- Virginia → Tokyo -->
      <g transform="translate(33.161719 221.698204) scale(0.1 -0.1)">
       <use xlink:href="#DejaVuSans-39"/>
       <use xlink:href="#DejaVuSans-4c" transform="translate(66.203125 0)"/>
       <use xlink:href="#DejaVuSans-55" transform="translate(93.984375 0)"/>
       <use xlink:href="#DejaVuSans-4a" transform="translate(133.34375 0)"/>
       <use xlink:href="#DejaVuSans-4c" transform="translate(196.828125 0)"/>
       <use xlink:href="#DejaVuSans-51" transform="translate(224.609375 0)"/>
       <use xlink:href="#DejaVuSans-4c" transform="translate(287.984375 0)"/>
       <use xlink:href="#DejaVuSans-44" transform="translate(315.765625 0)"/>
       <use xlink:href="#DejaVuSans-3" transform="translate(377.046875 0)"/>
       <use xlink:href="#DejaVuSans-c1c" transform="translate(408.828125 0)"/>
       <use xlink:href="#DejaVuSans-3" transform="translate(492.625 0)"/>
       <use xlink:href="#DejaVuSans-37" transform="translate(524.40625 0)"/>
       <use xlink:href="#DejaVuSans-52" transform="translate(568.5 0)"/>
       <use xlink:href="#DejaVuSans-4e" transform="translate(629.6875 0)"/>
       <use xlink:href="#DejaVuSans-5c" transform="translate(684.03125 0)"/>
       <use xlink:href="#DejaVuSans-52" transform="translate(743.21875 0)"/>
      </g>
     </g>
    </g>
    <g id="ytick_14">
     <g id="line2d_24">
      <g>
       <use xlink:href="#m14e3a4196c" x="120.602344" y="194.587798" style="stroke: #000000; stroke-width: 0.8"/>
      </g>
     </g>
     <g id="text_20">
      <!-- Tokyo → Virginia -->
      <g transform="translate(33.161719 198.387017) scale(0.1 -0.1)">
       <use xlink:href="#DejaVuSans-37"/>
       <use xlink:href="#DejaVuSans-52" transform="translate(44.09375 0)"/>
       <use xlink:href="#DejaVuSans-4e" transform="translate(105.28125 0)"/>
       <use xlink:href="#DejaVuSans-5c" transform="translate(159.625 0)"/>
       <use xlink:href="#DejaVuSans-52" transform="translate(218.8125 0)"/>
       <use xlink:href="#DejaVuSans-3" transform="translate(280 0)"/>
       <use xlink:href="#DejaVuSans-c1c" transform="translate(311.78125 0)"/>
       <use xlink:href="#DejaVuSans-3" transform="translate(395.578125 0)"/>
       <use xlink:href="#DejaVuSans-39" transform="translate(427.359375 0)"/>
       <use xlink:href="#DejaVuSans-4c" transform="translate(493.5625 0)"/>
       <use xlink:href="#DejaVuSans-55" transform="translate(521.34375 0)"/>
       <use xlink:href="#DejaVuSans-4a" transform="translate(560.703125 0)"/>
       <use xlink:href="#DejaVuSans-4c" transform="translate(624.1875 0)"/>
       <use xlink:href="#DejaVuSans-51" transform="translate(651.96875 0)"/>
       <use xlink:href="#DejaVuSans-4c" transform="translate(715.34375 0)"/>
       <use xlink:href="#DejaVuSans-44" transform="translate(743.125 0)"/>
      </g>
     </g>
    </g>
    <g id="ytick_15">
     <g id="line2d_25">
      <g>
       <use xlink:href="#m14e3a4196c" x="120.602344" y="171.276611" style="stroke: #000000; stroke-width: 0.8"/>
      </g>
     </g>
     <g id="text_21">
      <!-- Virginia → Mumbai -->
      <g transform="translate(21.200781 175.07583) scale(0.1 -0.1)">
       <use xlink:href="#DejaVuSans-39"/>
       <use xlink:href="#DejaVuSans-4c" transform="translate(66.203125 0)"/>
       <use xlink:href="#DejaVuSans-55" transform="translate(93.984375 0)"/>
       <use xlink:href="#DejaVuSans-4a" transform="translate(133.34375 0)"/>
       <use xlink:href="#DejaVuSans-4c" transform="translate(196.828125 0)"/>
       <use xlink:href="#DejaVuSans-51" transform="translate(224.609375 0)"/>
       <use xlink:href="#DejaVuSans-4c" transform="translate(287.984375 0)"/>
       <use xlink:href="#DejaVuSans-44" transform="translate(315.765625 0)"/>
       <use xlink:href="#DejaVuSans-3" transform="translate(377.046875 0)"/>
       <use xlink:href="#DejaVuSans-c1c" transform="translate(408.828125 0)"/>
       <use xlink:href="#DejaVuSans-3" transform="translate(492.625 0)"/>
       <use xlink:href="#DejaVuSans-30" transform="translate(524.40625 0)"/>
       <use xlink:href="#DejaVuSans-58" transform="translate(610.6875 0)"/>
       <use xlink:href="#DejaVuSans-50" transform="translate(674.0625 0)"/>
       <use xlink:href="#DejaVuSans-45" transform="translate(771.46875 0)"/>
       <use xlink:href="#DejaVuSans-44" transform="translate(834.953125 0)"/>
       <use xlink:href="#DejaVuSans-4c" transform="translate(896.234375 0)"/>
      </g>
     </g>
    </g>
    <g id="ytick_16">
     <g id="line2d_26">
      <g>
       <use xlink:href="#m14e3a4196c" x="120.602344" y="147.965424" style="stroke: #000000; stroke-width: 0.8"/>
      </g>
     </g>
     <g id="text_22">
      <!-- Mumbai → Virginia -->
      <g transform="translate(21.200781 151.764643) scale(0.1 -0.1)">
       <use xlink:href="#DejaVuSans-30"/>
       <use xlink:href="#DejaVuSans-58" transform="translate(86.28125 0)"/>
       <use xlink:href="#DejaVuSans-50" transform="translate(149.65625 0)"/>
       <use xlink:href="#DejaVuSans-45" transform="translate(247.0625 0)"/>
       <use xlink:href="#DejaVuSans-44" transform="translate(310.546875 0)"/>
       <use xlink:href="#DejaVuSans-4c" transform="translate(371.828125 0)"/>
       <use xlink:href="#DejaVuSans-3" transform="translate(399.609375 0)"/>
       <use xlink:href="#DejaVuSans-c1c" transform="translate(431.390625 0)"/>
       <use xlink:href="#DejaVuSans-3" transform="translate(515.1875 0)"/>
       <use xlink:href="#DejaVuSans-39" transform="translate(546.96875 0)"/>
       <use xlink:href="#DejaVuSans-4c" transform="translate(613.171875 0)"/>
       <use xlink:href="#DejaVuSans-55" transform="translate(640.953125 0)"/>
       <use xlink:href="#DejaVuSans-4a" transform="translate(680.3125 0)"/>
       <use xlink:href="#DejaVuSans-4c" transform="translate(743.796875 0)"/>
       <use xlink:href="#DejaVuSans-51" transform="translate(771.578125 0)"/>
       <use xlink:href="#DejaVuSans-4c" transform="translate(834.953125 0)"/>
       <use xlink:href="#DejaVuSans-44" transform="translate(862.734375 0)"/>
      </g>
     </g>
    </g>
    <g id="ytick_17">
     <g id="line2d_27">
      <g>
       <use xlink:href="#m14e3a4196c" x="120.602344" y="124.654237" style="stroke: #000000; stroke-width: 0.8"/>
      </g>
     </g>
     <g id="text_23">
      <!-- Tokyo → Ireland -->
      <g transform="translate(36.280469 128.453455) scale(0.1 -0.1)">
       <use xlink:href="#DejaVuSans-37"/>
       <use xlink:href="#DejaVuSans-52" transform="translate(44.09375 0)"/>
       <use xlink:href="#DejaVuSans-4e" transform="translate(105.28125 0)"/>
       <use xlink:href="#DejaVuSans-5c" transform="translate(159.625 0)"/>
       <use xlink:href="#DejaVuSans-52" transform="translate(218.8125 0)"/>
       <use xlink:href="#DejaVuSans-3" transform="translate(280 0)"/>
       <use xlink:href="#DejaVuSans-c1c" transform="translate(311.78125 0)"/>
       <use xlink:href="#DejaVuSans-3" transform="translate(395.578125 0)"/>
       <use xlink:href="#DejaVuSans-2c" transform="translate(427.359375 0)"/>
       <use xlink:href="#DejaVuSans-55" transform="translate(456.859375 0)"/>
       <use xlink:href="#DejaVuSans-48" transform="translate(495.765625 0)"/>
       <use xlink:href="#DejaVuSans-4f" transform="translate(557.296875 0)"/>
       <use xlink:href="#DejaVuSans-44" transform="translate(585.078125 0)"/>
       <use xlink:href="#DejaVuSans-51" transform="translate(646.359375 0)"/>
       <use xlink:href="#DejaVuSans-47" transform="translate(709.734375 0)"/>
      </g>
     </g>
    </g>
    <g id="ytick_18">
     <g id="line2d_28">
      <g>
       <use xlink:href="#m14e3a4196c" x="120.602344" y="101.343049" style="stroke: #000000; stroke-width: 0.8"/>
      </g>
     </g>
     <g id="text_24">
      <!-- Ireland → Tokyo -->
      <g transform="translate(36.280469 105.142268) scale(0.1 -0.1)">
       <use xlink:href="#DejaVuSans-2c"/>
       <use xlink:href="#DejaVuSans-55" transform="translate(29.5 0)"/>
       <use xlink:href="#DejaVuSans-48" transform="translate(68.40625 0)"/>
       <use xlink:href="#DejaVuSans-4f" transform="translate(129.9375 0)"/>
       <use xlink:href="#DejaVuSans-44" transform="translate(157.71875 0)"/>
       <use xlink:href="#DejaVuSans-51" transform="translate(219 0)"/>
       <use xlink:href="#DejaVuSans-47" transform="translate(282.375 0)"/>
       <use xlink:href="#DejaVuSans-3" transform="translate(345.859375 0)"/>
       <use xlink:href="#DejaVuSans-c1c" transform="translate(377.640625 0)"/>
       <use xlink:href="#DejaVuSans-3" transform="translate(461.4375 0)"/>
       <use xlink:href="#DejaVuSans-37" transform="translate(493.21875 0)"/>
       <use xlink:href="#DejaVuSans-52" transform="translate(537.3125 0)"/>
       <use xlink:href="#DejaVuSans-4e" transform="translate(598.5 0)"/>
       <use xlink:href="#DejaVuSans-5c" transform="translate(652.84375 0)"/>
       <use xlink:href="#DejaVuSans-52" transform="translate(712.03125 0)"/>
      </g>
     </g>
    </g>
    <g id="ytick_19">
     <g id="line2d_29">
      <g>
       <use xlink:href="#m14e3a4196c" x="120.602344" y="78.031862" style="stroke: #000000; stroke-width: 0.8"/>
      </g>
     </g>
     <g id="text_25">
      <!-- Mumbai → Oregon -->
      <g transform="translate(22.185156 81.831081) scale(0.1 -0.1)">
       <use xlink:href="#DejaVuSans-30"/>
       <use xlink:href="#DejaVuSans-58" transform="translate(86.28125 0)"/>
       <use xlink:href="#DejaVuSans-50" transform="translate(149.65625 0)"/>
       <use xlink:href="#DejaVuSans-45" transform="translate(247.0625 0)"/>
       <use xlink:href="#DejaVuSans-44" transform="translate(310.546875 0)"/>
       <use xlink:href="#DejaVuSans-4c" transform="translate(371.828125 0)"/>
       <use xlink:href="#DejaVuSans-3" transform="translate(399.609375 0)"/>
       <use xlink:href="#DejaVuSans-c1c" transform="translate(431.390625 0)"/>
       <use xlink:href="#DejaVuSans-3" transform="translate(515.1875 0)"/>
       <use xlink:href="#DejaVuSans-32" transform="translate(546.96875 0)"/>
       <use xlink:href="#DejaVuSans-55" transform="translate(625.6875 0)"/>
       <use xlink:href="#DejaVuSans-48" transform="translate(664.59375 0)"/>
       <use xlink:href="#DejaVuSans-4a" transform="translate(726.125 0)"/>
       <use xlink:href="#DejaVuSans-52" transform="translate(789.609375 0)"/>
       <use xlink:href="#DejaVuSans-51" transform="translate(850.796875 0)"/>
      </g>
     </g>
    </g>
    <g id="ytick_20">
     <g id="line2d_30">
      <g>
       <use xlink:href="#m14e3a4196c" x="120.602344" y="54.720675" style="stroke: #000000; stroke-width: 0.8"/>
      </g>
     </g>
     <g id="text_26">
      <!-- Oregon → Mumbai -->
      <g transform="translate(22.185156 58.519894) scale(0.1 -0.1)">
       <use xlink:href="#DejaVuSans-32"/>
       <use xlink:href="#DejaVuSans-55" transform="translate(78.71875 0)"/>
       <use xlink:href="#DejaVuSans-48" transform="translate(117.625 0)"/>
       <use xlink:href="#DejaVuSans-4a" transform="translate(179.15625 0)"/>
       <use xlink:href="#DejaVuSans-52" transform="translate(242.640625 0)"/>
       <use xlink:href="#DejaVuSans-51" transform="translate(303.828125 0)"/>
       <use xlink:href="#DejaVuSans-3" transform="translate(367.203125 0)"/>
       <use xlink:href="#DejaVuSans-c1c" transform="translate(398.984375 0)"/>
       <use xlink:href="#DejaVuSans-3" transform="translate(482.78125 0)"/>
       <use xlink:href="#DejaVuSans-30" transform="translate(514.5625 0)"/>
       <use xlink:href="#DejaVuSans-58" transform="translate(600.84375 0)"/>
       <use xlink:href="#DejaVuSans-50" transform="translate(664.21875 0)"/>
       <use xlink:href="#DejaVuSans-45" transform="translate(761.625 0)"/>
       <use xlink:href="#DejaVuSans-44" transform="translate(825.109375 0)"/>
       <use xlink:href="#DejaVuSans-4c" transform="translate(886.390625 0)"/>
      </g>
     </g>
    </g>
    <g id="text_27">
     <!-- Directed region pair -->
     <g transform="translate(14.798438 326.072266) rotate(-90) scale(0.1 -0.1)">
      <defs>
       <path id="DejaVuSans-27" d="M 1259 4147 
L 1259 519 
L 2022 519 
Q 2988 519 3436 956 
Q 3884 1394 3884 2338 
Q 3884 3275 3436 3711 
Q 2988 4147 2022 4147 
L 1259 4147 
z
M 628 4666 
L 1925 4666 
Q 3281 4666 3915 4102 
Q 4550 3538 4550 2338 
Q 4550 1131 3912 565 
Q 3275 0 1925 0 
L 628 0 
L 628 4666 
z
" transform="scale(0.015625)"/>
       <path id="DejaVuSans-46" d="M 3122 3366 
L 3122 2828 
Q 2878 2963 2633 3030 
Q 2388 3097 2138 3097 
Q 1578 3097 1268 2742 
Q 959 2388 959 1747 
Q 959 1106 1268 751 
Q 1578 397 2138 397 
Q 2388 397 2633 464 
Q 2878 531 3122 666 
L 3122 134 
Q 2881 22 2623 -34 
Q 2366 -91 2075 -91 
Q 1284 -91 818 406 
Q 353 903 353 1747 
Q 353 2603 823 3093 
Q 1294 3584 2113 3584 
Q 2378 3584 2631 3529 
Q 2884 3475 3122 3366 
z
" transform="scale(0.015625)"/>
       <path id="DejaVuSans-57" d="M 1172 4494 
L 1172 3500 
L 2356 3500 
L 2356 3053 
L 1172 3053 
L 1172 1153 
Q 1172 725 1289 603 
Q 1406 481 1766 481 
L 2356 481 
L 2356 0 
L 1766 0 
Q 1100 0 847 248 
Q 594 497 594 1153 
L 594 3053 
L 172 3053 
L 172 3500 
L 594 3500 
L 594 4494 
L 1172 4494 
z
" transform="scale(0.015625)"/>
       <path id="DejaVuSans-53" d="M 1159 525 
L 1159 -1331 
L 581 -1331 
L 581 3500 
L 1159 3500 
L 1159 2969 
Q 1341 3281 1617 3432 
Q 1894 3584 2278 3584 
Q 2916 3584 3314 3078 
Q 3713 2572 3713 1747 
Q 3713 922 3314 415 
Q 2916 -91 2278 -91 
Q 1894 -91 1617 61 
Q 1341 213 1159 525 
z
M 3116 1747 
Q 3116 2381 2855 2742 
Q 2594 3103 2138 3103 
Q 1681 3103 1420 2742 
Q 1159 2381 1159 1747 
Q 1159 1113 1420 752 
Q 1681 391 2138 391 
Q 2594 391 2855 752 
Q 3116 1113 3116 1747 
z
" transform="scale(0.015625)"/>
      </defs>
      <use xlink:href="#DejaVuSans-27"/>
      <use xlink:href="#DejaVuSans-4c" transform="translate(77 0)"/>
      <use xlink:href="#DejaVuSans-55" transform="translate(104.78125 0)"/>
      <use xlink:href="#DejaVuSans-48" transform="translate(143.6875 0)"/>
      <use xlink:href="#DejaVuSans-46" transform="translate(205.21875 0)"/>
      <use xlink:href="#DejaVuSans-57" transform="translate(260.203125 0)"/>
      <use xlink:href="#DejaVuSans-48" transform="translate(299.40625 0)"/>
      <use xlink:href="#DejaVuSans-47" transform="translate(360.9375 0)"/>
      <use xlink:href="#DejaVuSans-3" transform="translate(424.421875 0)"/>
      <use xlink:href="#DejaVuSans-55" transform="translate(456.203125 0)"/>
      <use xlink:href="#DejaVuSans-48" transform="translate(495.109375 0)"/>
      <use xlink:href="#DejaVuSans-4a" transform="translate(556.640625 0)"/>
      <use xlink:href="#DejaVuSans-4c" transform="translate(620.125 0)"/>
      <use xlink:href="#DejaVuSans-52" transform="translate(647.90625 0)"/>
      <use xlink:href="#DejaVuSans-51" transform="translate(709.09375 0)"/>
      <use xlink:href="#DejaVuSans-3" transform="translate(772.46875 0)"/>
      <use xlink:href="#DejaVuSans-53" transform="translate(804.25 0)"/>
      <use xlink:href="#DejaVuSans-44" transform="translate(867.734375 0)"/>
      <use xlink:href="#DejaVuSans-4c" transform="translate(929.015625 0)"/>
      <use xlink:href="#DejaVuSans-55" transform="translate(956.796875 0)"/>
     </g>
    </g>
   </g>
   <g id="patch_23">
    <path d="M 120.602344 530.035781 
L 120.602344 22.318125 
" style="fill: none; stroke: #000000; stroke-width: 0.8; stroke-linejoin: miter; stroke-linecap: square"/>
   </g>
   <g id="patch_24">
    <path d="M 696.922212 530.035781 
L 696.922212 22.318125 
" style="fill: none; stroke: #000000; stroke-width: 0.8; stroke-linejoin: miter; stroke-linecap: square"/>
   </g>
   <g id="patch_25">
    <path d="M 120.602344 530.035781 
L 696.922212 530.035781 
" style="fill: none; stroke: #000000; stroke-width: 0.8; stroke-linejoin: miter; stroke-linecap: square"/>
   </g>
   <g id="patch_26">
    <path d="M 120.602344 22.318125 
L 696.922212 22.318125 
" style="fill: none; stroke: #000000; stroke-width: 0.8; stroke-linejoin: miter; stroke-linecap: square"/>
   </g>
   <g id="text_28">
    <!-- 61.04 -->
    <g transform="translate(270.815061 499.711356) scale(0.08 -0.08)">
     <defs>
      <path id="DejaVuSans-19" d="M 2113 2584 
Q 1688 2584 1439 2293 
Q 1191 2003 1191 1497 
Q 1191 994 1439 701 
Q 1688 409 2113 409 
Q 2538 409 2786 701 
Q 3034 994 3034 1497 
Q 3034 2003 2786 2293 
Q 2538 2584 2113 2584 
z
M 3366 4563 
L 3366 3988 
Q 3128 4100 2886 4159 
Q 2644 4219 2406 4219 
Q 1781 4219 1451 3797 
Q 1122 3375 1075 2522 
Q 1259 2794 1537 2939 
Q 1816 3084 2150 3084 
Q 2853 3084 3261 2657 
Q 3669 2231 3669 1497 
Q 3669 778 3244 343 
Q 2819 -91 2113 -91 
Q 1303 -91 875 529 
Q 447 1150 447 2328 
Q 447 3434 972 4092 
Q 1497 4750 2381 4750 
Q 2619 4750 2861 4703 
Q 3103 4656 3366 4563 
z
" transform="scale(0.015625)"/>
      <path id="DejaVuSans-11" d="M 684 794 
L 1344 794 
L 1344 0 
L 684 0 
L 684 794 
z
" transform="scale(0.015625)"/>
      <path id="DejaVuSans-17" d="M 2419 4116 
L 825 1625 
L 2419 1625 
L 2419 4116 
z
M 2253 4666 
L 3047 4666 
L 3047 1625 
L 3713 1625 
L 3713 1100 
L 3047 1100 
L 3047 0 
L 2419 0 
L 2419 1100 
L 313 1100 
L 313 1709 
L 2253 4666 
z
" transform="scale(0.015625)"/>
     </defs>
     <use xlink:href="#DejaVuSans-19"/>
     <use xlink:href="#DejaVuSans-14" transform="translate(63.625 0)"/>
     <use xlink:href="#DejaVuSans-11" transform="translate(127.25 0)"/>
     <use xlink:href="#DejaVuSans-13" transform="translate(159.03125 0)"/>
     <use xlink:href="#DejaVuSans-17" transform="translate(222.65625 0)"/>
    </g>
   </g>
   <g id="text_29">
    <!-- 61.05 -->
    <g transform="translate(270.848421 476.400169) scale(0.08 -0.08)">
     <use xlink:href="#DejaVuSans-19"/>
     <use xlink:href="#DejaVuSans-14" transform="translate(63.625 0)"/>
     <use xlink:href="#DejaVuSans-11" transform="translate(127.25 0)"/>
     <use xlink:href="#DejaVuSans-13" transform="translate(159.03125 0)"/>
     <use xlink:href="#DejaVuSans-18" transform="translate(222.65625 0)"/>
    </g>
   </g>
   <g id="text_30">
    <!-- 68.35 -->
    <g transform="translate(288.240871 453.088982) scale(0.08 -0.08)">
     <defs>
      <path id="DejaVuSans-1b" d="M 2034 2216 
Q 1584 2216 1326 1975 
Q 1069 1734 1069 1313 
Q 1069 891 1326 650 
Q 1584 409 2034 409 
Q 2484 409 2743 651 
Q 3003 894 3003 1313 
Q 3003 1734 2745 1975 
Q 2488 2216 2034 2216 
z
M 1403 2484 
Q 997 2584 770 2862 
Q 544 3141 544 3541 
Q 544 4100 942 4425 
Q 1341 4750 2034 4750 
Q 2731 4750 3128 4425 
Q 3525 4100 3525 3541 
Q 3525 3141 3298 2862 
Q 3072 2584 2669 2484 
Q 3125 2378 3379 2068 
Q 3634 1759 3634 1313 
Q 3634 634 3220 271 
Q 2806 -91 2034 -91 
Q 1263 -91 848 271 
Q 434 634 434 1313 
Q 434 1759 690 2068 
Q 947 2378 1403 2484 
z
M 1172 3481 
Q 1172 3119 1398 2916 
Q 1625 2713 2034 2713 
Q 2441 2713 2670 2916 
Q 2900 3119 2900 3481 
Q 2900 3844 2670 4047 
Q 2441 4250 2034 4250 
Q 1625 4250 1398 4047 
Q 1172 3844 1172 3481 
z
" transform="scale(0.015625)"/>
      <path id="DejaVuSans-16" d="M 2597 2516 
Q 3050 2419 3304 2112 
Q 3559 1806 3559 1356 
Q 3559 666 3084 287 
Q 2609 -91 1734 -91 
Q 1441 -91 1130 -33 
Q 819 25 488 141 
L 488 750 
Q 750 597 1062 519 
Q 1375 441 1716 441 
Q 2309 441 2620 675 
Q 2931 909 2931 1356 
Q 2931 1769 2642 2001 
Q 2353 2234 1838 2234 
L 1294 2234 
L 1294 2753 
L 1863 2753 
Q 2328 2753 2575 2939 
Q 2822 3125 2822 3475 
Q 2822 3834 2567 4026 
Q 2313 4219 1838 4219 
Q 1578 4219 1281 4162 
Q 984 4106 628 3988 
L 628 4550 
Q 988 4650 1302 4700 
Q 1616 4750 1894 4750 
Q 2613 4750 3031 4423 
Q 3450 4097 3450 3541 
Q 3450 3153 3228 2886 
Q 3006 2619 2597 2516 
z
" transform="scale(0.015625)"/>
     </defs>
     <use xlink:href="#DejaVuSans-19"/>
     <use xlink:href="#DejaVuSans-1b" transform="translate(63.625 0)"/>
     <use xlink:href="#DejaVuSans-11" transform="translate(127.25 0)"/>
     <use xlink:href="#DejaVuSans-16" transform="translate(159.03125 0)"/>
     <use xlink:href="#DejaVuSans-18" transform="translate(222.65625 0)"/>
    </g>
   </g>
   <g id="text_31">
    <!-- 68.36 -->
    <g transform="translate(288.259934 429.777795) scale(0.08 -0.08)">
     <use xlink:href="#DejaVuSans-19"/>
     <use xlink:href="#DejaVuSans-1b" transform="translate(63.625 0)"/>
     <use xlink:href="#DejaVuSans-11" transform="translate(127.25 0)"/>
     <use xlink:href="#DejaVuSans-16" transform="translate(159.03125 0)"/>
     <use xlink:href="#DejaVuSans-19" transform="translate(222.65625 0)"/>
    </g>
   </g>
   <g id="text_32">
    <!-- 98.15 -->
    <g transform="translate(359.235616 406.466607) scale(0.08 -0.08)">
     <defs>
      <path id="DejaVuSans-1c" d="M 703 97 
L 703 672 
Q 941 559 1184 500 
Q 1428 441 1663 441 
Q 2288 441 2617 861 
Q 2947 1281 2994 2138 
Q 2813 1869 2534 1725 
Q 2256 1581 1919 1581 
Q 1219 1581 811 2004 
Q 403 2428 403 3163 
Q 403 3881 828 4315 
Q 1253 4750 1959 4750 
Q 2769 4750 3195 4129 
Q 3622 3509 3622 2328 
Q 3622 1225 3098 567 
Q 2575 -91 1691 -91 
Q 1453 -91 1209 -44 
Q 966 3 703 97 
z
M 1959 2075 
Q 2384 2075 2632 2365 
Q 2881 2656 2881 3163 
Q 2881 3666 2632 3958 
Q 2384 4250 1959 4250 
Q 1534 4250 1286 3958 
Q 1038 3666 1038 3163 
Q 1038 2656 1286 2365 
Q 1534 2075 1959 2075 
z
" transform="scale(0.015625)"/>
     </defs>
     <use xlink:href="#DejaVuSans-1c"/>
     <use xlink:href="#DejaVuSans-1b" transform="translate(63.625 0)"/>
     <use xlink:href="#DejaVuSans-11" transform="translate(127.25 0)"/>
     <use xlink:href="#DejaVuSans-14" transform="translate(159.03125 0)"/>
     <use xlink:href="#DejaVuSans-18" transform="translate(222.65625 0)"/>
    </g>
   </g>
   <g id="text_33">
    <!-- 98.16 -->
    <g transform="translate(359.273741 383.15542) scale(0.08 -0.08)">
     <use xlink:href="#DejaVuSans-1c"/>
     <use xlink:href="#DejaVuSans-1b" transform="translate(63.625 0)"/>
     <use xlink:href="#DejaVuSans-11" transform="translate(127.25 0)"/>
     <use xlink:href="#DejaVuSans-14" transform="translate(159.03125 0)"/>
     <use xlink:href="#DejaVuSans-19" transform="translate(222.65625 0)"/>
    </g>
   </g>
   <g id="text_34">
    <!-- 116.92 -->
    <g transform="translate(403.959398 359.844233) scale(0.08 -0.08)">
     <use xlink:href="#DejaVuSans-14"/>
     <use xlink:href="#DejaVuSans-14" transform="translate(63.625 0)"/>
     <use xlink:href="#DejaVuSans-19" transform="translate(127.25 0)"/>
     <use xlink:href="#DejaVuSans-11" transform="translate(190.875 0)"/>
     <use xlink:href="#DejaVuSans-1c" transform="translate(222.65625 0)"/>
     <use xlink:href="#DejaVuSans-15" transform="translate(286.28125 0)"/>
    </g>
   </g>
   <g id="text_35">
    <!-- 116.92 -->
    <g transform="translate(403.978461 336.533046) scale(0.08 -0.08)">
     <use xlink:href="#DejaVuSans-14"/>
     <use xlink:href="#DejaVuSans-14" transform="translate(63.625 0)"/>
     <use xlink:href="#DejaVuSans-19" transform="translate(127.25 0)"/>
     <use xlink:href="#DejaVuSans-11" transform="translate(190.875 0)"/>
     <use xlink:href="#DejaVuSans-1c" transform="translate(222.65625 0)"/>
     <use xlink:href="#DejaVuSans-15" transform="translate(286.28125 0)"/>
    </g>
   </g>
   <g id="text_36">
    <!-- 119.68 -->
    <g transform="translate(410.54084 313.221859) scale(0.08 -0.08)">
     <use xlink:href="#DejaVuSans-14"/>
     <use xlink:href="#DejaVuSans-14" transform="translate(63.625 0)"/>
     <use xlink:href="#DejaVuSans-1c" transform="translate(127.25 0)"/>
     <use xlink:href="#DejaVuSans-11" transform="translate(190.875 0)"/>
     <use xlink:href="#DejaVuSans-19" transform="translate(222.65625 0)"/>
     <use xlink:href="#DejaVuSans-1b" transform="translate(286.28125 0)"/>
    </g>
   </g>
   <g id="text_37">
    <!-- 119.69 -->
    <g transform="translate(410.571817 289.910672) scale(0.08 -0.08)">
     <use xlink:href="#DejaVuSans-14"/>
     <use xlink:href="#DejaVuSans-14" transform="translate(63.625 0)"/>
     <use xlink:href="#DejaVuSans-1c" transform="translate(127.25 0)"/>
     <use xlink:href="#DejaVuSans-11" transform="translate(190.875 0)"/>
     <use xlink:href="#DejaVuSans-19" transform="translate(222.65625 0)"/>
     <use xlink:href="#DejaVuSans-1c" transform="translate(286.28125 0)"/>
    </g>
   </g>
   <g id="text_38">
    <!-- 126.69 -->
    <g transform="translate(427.242262 266.599485) scale(0.08 -0.08)">
     <use xlink:href="#DejaVuSans-14"/>
     <use xlink:href="#DejaVuSans-15" transform="translate(63.625 0)"/>
     <use xlink:href="#DejaVuSans-19" transform="translate(127.25 0)"/>
     <use xlink:href="#DejaVuSans-11" transform="translate(190.875 0)"/>
     <use xlink:href="#DejaVuSans-19" transform="translate(222.65625 0)"/>
     <use xlink:href="#DejaVuSans-1c" transform="translate(286.28125 0)"/>
    </g>
   </g>
   <g id="text_39">
    <!-- 126.69 -->
    <g transform="translate(427.261325 243.288297) scale(0.08 -0.08)">
     <use xlink:href="#DejaVuSans-14"/>
     <use xlink:href="#DejaVuSans-15" transform="translate(63.625 0)"/>
     <use xlink:href="#DejaVuSans-19" transform="translate(127.25 0)"/>
     <use xlink:href="#DejaVuSans-11" transform="translate(190.875 0)"/>
     <use xlink:href="#DejaVuSans-19" transform="translate(222.65625 0)"/>
     <use xlink:href="#DejaVuSans-1c" transform="translate(286.28125 0)"/>
    </g>
   </g>
   <g id="text_40">
    <!-- 149.09 -->
    <g transform="translate(480.618186 219.97711) scale(0.08 -0.08)">
     <use xlink:href="#DejaVuSans-14"/>
     <use xlink:href="#DejaVuSans-17" transform="translate(63.625 0)"/>
     <use xlink:href="#DejaVuSans-1c" transform="translate(127.25 0)"/>
     <use xlink:href="#DejaVuSans-11" transform="translate(190.875 0)"/>
     <use xlink:href="#DejaVuSans-13" transform="translate(222.65625 0)"/>
     <use xlink:href="#DejaVuSans-1c" transform="translate(286.28125 0)"/>
    </g>
   </g>
   <g id="text_41">
    <!-- 149.09 -->
    <g transform="translate(480.627717 196.665923) scale(0.08 -0.08)">
     <use xlink:href="#DejaVuSans-14"/>
     <use xlink:href="#DejaVuSans-17" transform="translate(63.625 0)"/>
     <use xlink:href="#DejaVuSans-1c" transform="translate(127.25 0)"/>
     <use xlink:href="#DejaVuSans-11" transform="translate(190.875 0)"/>
     <use xlink:href="#DejaVuSans-13" transform="translate(222.65625 0)"/>
     <use xlink:href="#DejaVuSans-1c" transform="translate(286.28125 0)"/>
    </g>
   </g>
   <g id="text_42">
    <!-- 196.48 -->
    <g transform="translate(593.546391 173.354736) scale(0.08 -0.08)">
     <use xlink:href="#DejaVuSans-14"/>
     <use xlink:href="#DejaVuSans-1c" transform="translate(63.625 0)"/>
     <use xlink:href="#DejaVuSans-19" transform="translate(127.25 0)"/>
     <use xlink:href="#DejaVuSans-11" transform="translate(190.875 0)"/>
     <use xlink:href="#DejaVuSans-17" transform="translate(222.65625 0)"/>
     <use xlink:href="#DejaVuSans-1b" transform="translate(286.28125 0)"/>
    </g>
   </g>
   <g id="text_43">
    <!-- 196.48 -->
    <g transform="translate(593.546391 150.043549) scale(0.08 -0.08)">
     <use xlink:href="#DejaVuSans-14"/>
     <use xlink:href="#DejaVuSans-1c" transform="translate(63.625 0)"/>
     <use xlink:href="#DejaVuSans-19" transform="translate(127.25 0)"/>
     <use xlink:href="#DejaVuSans-11" transform="translate(190.875 0)"/>
     <use xlink:href="#DejaVuSans-17" transform="translate(222.65625 0)"/>
     <use xlink:href="#DejaVuSans-1b" transform="translate(286.28125 0)"/>
    </g>
   </g>
   <g id="text_44">
    <!-- 202.51 -->
    <g transform="translate(607.910233 126.732362) scale(0.08 -0.08)">
     <use xlink:href="#DejaVuSans-15"/>
     <use xlink:href="#DejaVuSans-13" transform="translate(63.625 0)"/>
     <use xlink:href="#DejaVuSans-15" transform="translate(127.25 0)"/>
     <use xlink:href="#DejaVuSans-11" transform="translate(190.875 0)"/>
     <use xlink:href="#DejaVuSans-18" transform="translate(222.65625 0)"/>
     <use xlink:href="#DejaVuSans-14" transform="translate(286.28125 0)"/>
    </g>
   </g>
   <g id="text_45">
    <!-- 202.52 -->
    <g transform="translate(607.950742 103.421174) scale(0.08 -0.08)">
     <use xlink:href="#DejaVuSans-15"/>
     <use xlink:href="#DejaVuSans-13" transform="translate(63.625 0)"/>
     <use xlink:href="#DejaVuSans-15" transform="translate(127.25 0)"/>
     <use xlink:href="#DejaVuSans-11" transform="translate(190.875 0)"/>
     <use xlink:href="#DejaVuSans-18" transform="translate(222.65625 0)"/>
     <use xlink:href="#DejaVuSans-15" transform="translate(286.28125 0)"/>
    </g>
   </g>
   <g id="text_46">
    <!-- 230.34 -->
    <g transform="translate(674.241733 80.109987) scale(0.08 -0.08)">
     <use xlink:href="#DejaVuSans-15"/>
     <use xlink:href="#DejaVuSans-16" transform="translate(63.625 0)"/>
     <use xlink:href="#DejaVuSans-13" transform="translate(127.25 0)"/>
     <use xlink:href="#DejaVuSans-11" transform="translate(190.875 0)"/>
     <use xlink:href="#DejaVuSans-16" transform="translate(222.65625 0)"/>
     <use xlink:href="#DejaVuSans-17" transform="translate(286.28125 0)"/>
    </g>
   </g>
   <g id="text_47">
    <!-- 230.34 -->
    <g transform="translate(674.244116 56.7988) scale(0.08 -0.08)">
     <use xlink:href="#DejaVuSans-15"/>
     <use xlink:href="#DejaVuSans-16" transform="translate(63.625 0)"/>
     <use xlink:href="#DejaVuSans-13" transform="translate(127.25 0)"/>
     <use xlink:href="#DejaVuSans-11" transform="translate(190.875 0)"/>
     <use xlink:href="#DejaVuSans-16" transform="translate(222.65625 0)"/>
     <use xlink:href="#DejaVuSans-17" transform="translate(286.28125 0)"/>
    </g>
   </g>
   <g id="text_48">
    <!-- Median Inter-Region RTT by Directed Pair -->
    <g transform="translate(286.056653 16.318125) scale(0.12 -0.12)">
     <defs>
      <path id="DejaVuSans-10" d="M 313 2009 
L 1997 2009 
L 1997 1497 
L 313 1497 
L 313 2009 
z
" transform="scale(0.015625)"/>
      <path id="DejaVuSans-33" d="M 1259 4147 
L 1259 2394 
L 2053 2394 
Q 2494 2394 2734 2622 
Q 2975 2850 2975 3272 
Q 2975 3691 2734 3919 
Q 2494 4147 2053 4147 
L 1259 4147 
z
M 628 4666 
L 2053 4666 
Q 2838 4666 3239 4311 
Q 3641 3956 3641 3272 
Q 3641 2581 3239 2228 
Q 2838 1875 2053 1875 
L 1259 1875 
L 1259 0 
L 628 0 
L 628 4666 
z
" transform="scale(0.015625)"/>
     </defs>
     <use xlink:href="#DejaVuSans-30"/>
     <use xlink:href="#DejaVuSans-48" transform="translate(86.28125 0)"/>
     <use xlink:href="#DejaVuSans-47" transform="translate(147.8125 0)"/>
     <use xlink:href="#DejaVuSans-4c" transform="translate(211.296875 0)"/>
     <use xlink:href="#DejaVuSans-44" transform="translate(239.078125 0)"/>
     <use xlink:href="#DejaVuSans-51" transform="translate(300.359375 0)"/>
     <use xlink:href="#DejaVuSans-3" transform="translate(363.734375 0)"/>
     <use xlink:href="#DejaVuSans-2c" transform="translate(395.515625 0)"/>
     <use xlink:href="#DejaVuSans-51" transform="translate(425.015625 0)"/>
     <use xlink:href="#DejaVuSans-57" transform="translate(488.390625 0)"/>
     <use xlink:href="#DejaVuSans-48" transform="translate(527.59375 0)"/>
     <use xlink:href="#DejaVuSans-55" transform="translate(589.125 0)"/>
     <use xlink:href="#DejaVuSans-10" transform="translate(623.84375 0)"/>
     <use xlink:href="#DejaVuSans-35" transform="translate(659.921875 0)"/>
     <use xlink:href="#DejaVuSans-48" transform="translate(724.921875 0)"/>
     <use xlink:href="#DejaVuSans-4a" transform="translate(786.453125 0)"/>
     <use xlink:href="#DejaVuSans-4c" transform="translate(849.9375 0)"/>
     <use xlink:href="#DejaVuSans-52" transform="translate(877.71875 0)"/>
     <use xlink:href="#DejaVuSans-51" transform="translate(938.90625 0)"/>
     <use xlink:href="#DejaVuSans-3" transform="translate(1002.28125 0)"/>
     <use xlink:href="#DejaVuSans-35" transform="translate(1034.0625 0)"/>
     <use xlink:href="#DejaVuSans-37" transform="translate(1096.265625 0)"/>
     <use xlink:href="#DejaVuSans-37" transform="translate(1155.59375 0)"/>
     <use xlink:href="#DejaVuSans-3" transform="translate(1216.671875 0)"/>
     <use xlink:href="#DejaVuSans-45" transform="translate(1248.453125 0)"/>
     <use xlink:href="#DejaVuSans-5c" transform="translate(1311.9375 0)"/>
     <use xlink:href="#DejaVuSans-3" transform="translate(1371.125 0)"/>
     <use xlink:href="#DejaVuSans-27" transform="translate(1402.90625 0)"/>
     <use xlink:href="#DejaVuSans-4c" transform="translate(1479.90625 0)"/>
     <use xlink:href="#DejaVuSans-55" transform="translate(1507.6875 0)"/>
     <use xlink:href="#DejaVuSans-48" transform="translate(1546.59375 0)"/>
     <use xlink:href="#DejaVuSans-46" transform="translate(1608.125 0)"/>
     <use xlink:href="#DejaVuSans-57" transform="translate(1663.109375 0)"/>
     <use xlink:href="#DejaVuSans-48" transform="translate(1702.3125 0)"/>
     <use xlink:href="#DejaVuSans-47" transform="translate(1763.84375 0)"/>
     <use xlink:href="#DejaVuSans-3" transform="translate(1827.328125 0)"/>
     <use xlink:href="#DejaVuSans-33" transform="translate(1859.109375 0)"/>
     <use xlink:href="#DejaVuSans-44" transform="translate(1914.921875 0)"/>
     <use xlink:href="#DejaVuSans-4c" transform="translate(1976.203125 0)"/>
     <use xlink:href="#DejaVuSans-55" transform="translate(2003.984375 0)"/>
    </g>
   </g>
  </g>
 </g>
 <defs>
  <clipPath id="p2aba66207a">
   <rect x="120.602344" y="22.318125" width="576.319868" height="507.717656"/>
  </clipPath>
 </defs>
</svg>
