<?xml version="1.0" encoding="utf-8" standalone="no"?>
<!DOCTYPE svg PUBLIC "-//W3C//DTD SVG 1.1//EN"
  "http://www.w3.org/Graphics/SVG/1.1/DTD/svg11.dtd">
<svg xmlns:xlink="http://www.w3.org/1999/xlink" width="640.541562pt" height="460.235781pt" viewBox="0 0 640.541562 460.235781" xmlns="http://www.w3.org/2000/svg" version="1.1">
 <metadata>
  <rdf:RDF xmlns:dc="http://purl.org/dc/elements/1.1/" xmlns:cc="http://creativecommons.org/ns#" xmlns:rdf="http://www.w3.org/1999/02/22-rdf-syntax-ns#">
   <cc:Work>
    <dc:type rdf:resource="http://purl.org/dc/dcmitype/StillImage"/>
    <dc:date>2026-07-11T11:47:35.546010</dc:date>
    <dc:format>image/svg+xml</dc:format>
    <dc:creator>
     <cc:Agent>
      <dc:title>Matplotlib v3.11.0, https://matplotlib.org/</dc:title>
     </cc:Agent>
    </dc:creator>
   </cc:Work>
  </rdf:RDF>
 </metadata>
 <defs>
  <style type="text/css">*{stroke-linejoin: round; stroke-linecap: butt}</style>
 </defs>
 <g id="figure_1">
  <g id="patch_1">
   <path d="M 0 460.235781 
L 640.541562 460.235781 
L 640.541562 0 
L 0 0 
z
" style="fill: #ffffff"/>
  </g>
  <g id="axes_1">
   <g id="patch_2">
    <path d="M 44.103906 422.035781 
L 633.341562 422.035781 
L 633.341562 22.318125 
L 44.103906 22.318125 
z
" style="fill: #ffffff"/>
   </g>
   <g id="matplotlib.axis_1">
    <g id="xtick_1">
     <g id="line2d_1">
      <path d="M 55.797447 422.035781 
L 55.797447 22.318125 
" clip-path="url(#pfb0e307fc5)" style="fill: none; stroke: #b0b0b0; stroke-opacity: 0.25; stroke-width: 0.8; stroke-linecap: square"/>
     </g>
     <g id="line2d_2">
      <defs>
       <path id="m10a544a3c2" d="M 0 0 
L 0 3.5 
" style="stroke: #000000; stroke-width: 0.8"/>
      </defs>
      <g>
       <use xlink:href="#m10a544a3c2" x="55.797447" y="422.035781" style="stroke: #000000; stroke-width: 0.8"/>
      </g>
     </g>
     <g id="text_1">
      <!-- 50 -->
      <g transform="translate(49.434947 436.633437) scale(0.1 -0.1)">
       <defs>
        <path id="DejaVuSans-18" d="M 691 4666 
L 3169 4666 
L 3169 4134 
L 1269 4134 
L 1269 2991 
Q 1406 3038 1543 3061 
Q 1681 3084 1819 3084 
Q 2600 3084 3056 2656 
Q 3513 2228 3513 1497 
Q 3513 744 3044 326 
Q 2575 -91 1722 -91 
Q 1428 -91 1123 -41 
Q 819 9 494 109 
L 494 744 
Q 775 591 1075 516 
Q 1375 441 1709 441 
Q 2250 441 2565 725 
Q 2881 1009 2881 1497 
Q 2881 1984 2565 2268 
Q 2250 2553 1709 2553 
Q 1456 2553 1204 2497 
Q 953 2441 691 2322 
L 691 4666 
z
" transform="scale(0.015625)"/>
        <path id="DejaVuSans-13" d="M 2034 4250 
Q 1547 4250 1301 3770 
Q 1056 3291 1056 2328 
Q 1056 1369 1301 889 
Q 1547 409 2034 409 
Q 2525 409 2770 889 
Q 3016 1369 3016 2328 
Q 3016 3291 2770 3770 
Q 2525 4250 2034 4250 
z
M 2034 4750 
Q 2819 4750 3233 4129 
Q 3647 3509 3647 2328 
Q 3647 1150 3233 529 
Q 2819 -91 2034 -91 
Q 1250 -91 836 529 
Q 422 1150 422 2328 
Q 422 3509 836 4129 
Q 1250 4750 2034 4750 
z
" transform="scale(0.015625)"/>
       </defs>
       <use xlink:href="#DejaVuSans-18"/>
       <use xlink:href="#DejaVuSans-13" transform="translate(63.625 0)"/>
      </g>
     </g>
    </g>
    <g id="xtick_2">
     <g id="line2d_3">
      <path d="M 126.483176 422.035781 
L 126.483176 22.318125 
" clip-path="url(#pfb0e307fc5)" style="fill: none; stroke: #b0b0b0; stroke-opacity: 0.25; stroke-width: 0.8; stroke-linecap: square"/>
     </g>
     <g id="line2d_4">
      <g>
       <use xlink:href="#m10a544a3c2" x="126.483176" y="422.035781" style="stroke: #000000; stroke-width: 0.8"/>
      </g>
     </g>
     <g id="text_2">
      <!-- 75 -->
      <g transform="translate(120.120676 436.633437) scale(0.1 -0.1)">
       <defs>
        <path id="DejaVuSans-1a" d="M 525 4666 
L 3525 4666 
L 3525 4397 
L 1831 0 
L 1172 0 
L 2766 4134 
L 525 4134 
L 525 4666 
z
" transform="scale(0.015625)"/>
       </defs>
       <use xlink:href="#DejaVuSans-1a"/>
       <use xlink:href="#DejaVuSans-18" transform="translate(63.625 0)"/>
      </g>
     </g>
    </g>
    <g id="xtick_3">
     <g id="line2d_5">
      <path d="M 197.168906 422.035781 
L 197.168906 22.318125 
" clip-path="url(#pfb0e307fc5)" style="fill: none; stroke: #b0b0b0; stroke-opacity: 0.25; stroke-width: 0.8; stroke-linecap: square"/>
     </g>
     <g id="line2d_6">
      <g>
       <use xlink:href="#m10a544a3c2" x="197.168906" y="422.035781" style="stroke: #000000; stroke-width: 0.8"/>
      </g>
     </g>
     <g id="text_3">
      <!-- 100 -->
      <g transform="translate(187.625156 436.633437) scale(0.1 -0.1)">
       <defs>
        <path id="DejaVuSans-14" d="M 794 531 
L 1825 531 
L 1825 4091 
L 703 3866 
L 703 4441 
L 1819 4666 
L 2450 4666 
L 2450 531 
L 3481 531 
L 3481 0 
L 794 0 
L 794 531 
z
" transform="scale(0.015625)"/>
       </defs>
       <use xlink:href="#DejaVuSans-14"/>
       <use xlink:href="#DejaVuSans-13" transform="translate(63.625 0)"/>
       <use xlink:href="#DejaVuSans-13" transform="translate(127.25 0)"/>
      </g>
     </g>
    </g>
    <g id="xtick_4">
     <g id="line2d_7">
      <path d="M 267.854636 422.035781 
L 267.854636 22.318125 
" clip-path="url(#pfb0e307fc5)" style="fill: none; stroke: #b0b0b0; stroke-opacity: 0.25; stroke-width: 0.8; stroke-linecap: square"/>
     </g>
     <g id="line2d_8">
      <g>
       <use xlink:href="#m10a544a3c2" x="267.854636" y="422.035781" style="stroke: #000000; stroke-width: 0.8"/>
      </g>
     </g>
     <g id="text_4">
      <!-- 125 -->
      <g transform="translate(258.310886 436.633437) scale(0.1 -0.1)">
       <defs>
        <path id="DejaVuSans-15" d="M 1228 531 
L 3431 531 
L 3431 0 
L 469 0 
L 469 531 
Q 828 903 1448 1529 
Q 2069 2156 2228 2338 
Q 2531 2678 2651 2914 
Q 2772 3150 2772 3378 
Q 2772 3750 2511 3984 
Q 2250 4219 1831 4219 
Q 1534 4219 1204 4116 
Q 875 4013 500 3803 
L 500 4441 
Q 881 4594 1212 4672 
Q 1544 4750 1819 4750 
Q 2544 4750 2975 4387 
Q 3406 4025 3406 3419 
Q 3406 3131 3298 2873 
Q 3191 2616 2906 2266 
Q 2828 2175 2409 1742 
Q 1991 1309 1228 531 
z
" transform="scale(0.015625)"/>
       </defs>
       <use xlink:href="#DejaVuSans-14"/>
       <use xlink:href="#DejaVuSans-15" transform="translate(63.625 0)"/>
       <use xlink:href="#DejaVuSans-18" transform="translate(127.25 0)"/>
      </g>
     </g>
    </g>
    <g id="xtick_5">
     <g id="line2d_9">
      <path d="M 338.540365 422.035781 
L 338.540365 22.318125 
" clip-path="url(#pfb0e307fc5)" style="fill: none; stroke: #b0b0b0; stroke-opacity: 0.25; stroke-width: 0.8; stroke-linecap: square"/>
     </g>
     <g id="line2d_10">
      <g>
       <use xlink:href="#m10a544a3c2" x="338.540365" y="422.035781" style="stroke: #000000; stroke-width: 0.8"/>
      </g>
     </g>
     <g id="text_5">
      <!-- 150 -->
      <g transform="translate(328.996615 436.633437) scale(0.1 -0.1)">
       <use xlink:href="#DejaVuSans-14"/>
       <use xlink:href="#DejaVuSans-18" transform="translate(63.625 0)"/>
       <use xlink:href="#DejaVuSans-13" transform="translate(127.25 0)"/>
      </g>
     </g>
    </g>
    <g id="xtick_6">
     <g id="line2d_11">
      <path d="M 409.226095 422.035781 
L 409.226095 22.318125 
" clip-path="url(#pfb0e307fc5)" style="fill: none; stroke: #b0b0b0; stroke-opacity: 0.25; stroke-width: 0.8; stroke-linecap: square"/>
     </g>
     <g id="line2d_12">
      <g>
       <use xlink:href="#m10a544a3c2" x="409.226095" y="422.035781" style="stroke: #000000; stroke-width: 0.8"/>
      </g>
     </g>
     <g id="text_6">
      <!-- 175 -->
      <g transform="translate(399.682345 436.633437) scale(0.1 -0.1)">
       <use xlink:href="#DejaVuSans-14"/>
       <use xlink:href="#DejaVuSans-1a" transform="translate(63.625 0)"/>
       <use xlink:href="#DejaVuSans-18" transform="translate(127.25 0)"/>
      </g>
     </g>
    </g>
    <g id="xtick_7">
     <g id="line2d_13">
      <path d="M 479.911825 422.035781 
L 479.911825 22.318125 
" clip-path="url(#pfb0e307fc5)" style="fill: none; stroke: #b0b0b0; stroke-opacity: 0.25; stroke-width: 0.8; stroke-linecap: square"/>
     </g>
     <g id="line2d_14">
      <g>
       <use xlink:href="#m10a544a3c2" x="479.911825" y="422.035781" style="stroke: #000000; stroke-width: 0.8"/>
      </g>
     </g>
     <g id="text_7">
      <!-- 200 -->
      <g transform="translate(470.368075 436.633437) scale(0.1 -0.1)">
       <use xlink:href="#DejaVuSans-15"/>
       <use xlink:href="#DejaVuSans-13" transform="translate(63.625 0)"/>
       <use xlink:href="#DejaVuSans-13" transform="translate(127.25 0)"/>
      </g>
     </g>
    </g>
    <g id="xtick_8">
     <g id="line2d_15">
      <path d="M 550.597554 422.035781 
L 550.597554 22.318125 
" clip-path="url(#pfb0e307fc5)" style="fill: none; stroke: #b0b0b0; stroke-opacity: 0.25; stroke-width: 0.8; stroke-linecap: square"/>
     </g>
     <g id="line2d_16">
      <g>
       <use xlink:href="#m10a544a3c2" x="550.597554" y="422.035781" style="stroke: #000000; stroke-width: 0.8"/>
      </g>
     </g>
     <g id="text_8">
      <!-- 225 -->
      <g transform="translate(541.053804 436.633437) scale(0.1 -0.1)">
       <use xlink:href="#DejaVuSans-15"/>
       <use xlink:href="#DejaVuSans-15" transform="translate(63.625 0)"/>
       <use xlink:href="#DejaVuSans-18" transform="translate(127.25 0)"/>
      </g>
     </g>
    </g>
    <g id="xtick_9">
     <g id="line2d_17">
      <path d="M 621.283284 422.035781 
L 621.283284 22.318125 
" clip-path="url(#pfb0e307fc5)" style="fill: none; stroke: #b0b0b0; stroke-opacity: 0.25; stroke-width: 0.8; stroke-linecap: square"/>
     </g>
     <g id="line2d_18">
      <g>
       <use xlink:href="#m10a544a3c2" x="621.283284" y="422.035781" style="stroke: #000000; stroke-width: 0.8"/>
      </g>
     </g>
     <g id="text_9">
      <!-- 250 -->
      <g transform="translate(611.739534 436.633437) scale(0.1 -0.1)">
       <use xlink:href="#DejaVuSans-15"/>
       <use xlink:href="#DejaVuSans-18" transform="translate(63.625 0)"/>
       <use xlink:href="#DejaVuSans-13" transform="translate(127.25 0)"/>
      </g>
     </g>
    </g>
    <g id="text_10">
     <!-- RTT (ms) -->
     <g transform="translate(316.626641 450.633437) scale(0.1 -0.1)">
      <defs>
       <path id="DejaVuSans-35" d="M 2841 2188 
Q 3044 2119 3236 1894 
Q 3428 1669 3622 1275 
L 4263 0 
L 3584 0 
L 2988 1197 
Q 2756 1666 2539 1819 
Q 2322 1972 1947 1972 
L 1259 1972 
L 1259 0 
L 628 0 
L 628 4666 
L 2053 4666 
Q 2853 4666 3247 4331 
Q 3641 3997 3641 3322 
Q 3641 2881 3436 2590 
Q 3231 2300 2841 2188 
z
M 1259 4147 
L 1259 2491 
L 2053 2491 
Q 2509 2491 2742 2702 
Q 2975 2913 2975 3322 
Q 2975 3731 2742 3939 
Q 2509 4147 2053 4147 
L 1259 4147 
z
" transform="scale(0.015625)"/>
       <path id="DejaVuSans-37" d="M -19 4666 
L 3928 4666 
L 3928 4134 
L 2272 4134 
L 2272 0 
L 1638 0 
L 1638 4134 
L -19 4134 
L -19 4666 
z
" transform="scale(0.015625)"/>
       <path id="DejaVuSans-3" transform="scale(0.015625)"/>
       <path id="DejaVuSans-b" d="M 1984 4856 
Q 1566 4138 1362 3434 
Q 1159 2731 1159 2009 
Q 1159 1288 1364 580 
Q 1569 -128 1984 -844 
L 1484 -844 
Q 1016 -109 783 600 
Q 550 1309 550 2009 
Q 550 2706 781 3412 
Q 1013 4119 1484 4856 
L 1984 4856 
z
" transform="scale(0.015625)"/>
       <path id="DejaVuSans-50" d="M 3328 2828 
Q 3544 3216 3844 3400 
Q 4144 3584 4550 3584 
Q 5097 3584 5394 3201 
Q 5691 2819 5691 2113 
L 5691 0 
L 5113 0 
L 5113 2094 
Q 5113 2597 4934 2840 
Q 4756 3084 4391 3084 
Q 3944 3084 3684 2787 
Q 3425 2491 3425 1978 
L 3425 0 
L 2847 0 
L 2847 2094 
Q 2847 2600 2669 2842 
Q 2491 3084 2119 3084 
Q 1678 3084 1418 2786 
Q 1159 2488 1159 1978 
L 1159 0 
L 581 0 
L 581 3500 
L 1159 3500 
L 1159 2956 
Q 1356 3278 1631 3431 
Q 1906 3584 2284 3584 
Q 2666 3584 2933 3390 
Q 3200 3197 3328 2828 
z
" transform="scale(0.015625)"/>
       <path id="DejaVuSans-56" d="M 2834 3397 
L 2834 2853 
Q 2591 2978 2328 3040 
Q 2066 3103 1784 3103 
Q 1356 3103 1142 2972 
Q 928 2841 928 2578 
Q 928 2378 1081 2264 
Q 1234 2150 1697 2047 
L 1894 2003 
Q 2506 1872 2764 1633 
Q 3022 1394 3022 966 
Q 3022 478 2636 193 
Q 2250 -91 1575 -91 
Q 1294 -91 989 -36 
Q 684 19 347 128 
L 347 722 
Q 666 556 975 473 
Q 1284 391 1588 391 
Q 1994 391 2212 530 
Q 2431 669 2431 922 
Q 2431 1156 2273 1281 
Q 2116 1406 1581 1522 
L 1381 1569 
Q 847 1681 609 1914 
Q 372 2147 372 2553 
Q 372 3047 722 3315 
Q 1072 3584 1716 3584 
Q 2034 3584 2315 3537 
Q 2597 3491 2834 3397 
z
" transform="scale(0.015625)"/>
       <path id="DejaVuSans-c" d="M 513 4856 
L 1013 4856 
Q 1481 4119 1714 3412 
Q 1947 2706 1947 2009 
Q 1947 1309 1714 600 
Q 1481 -109 1013 -844 
L 513 -844 
Q 928 -128 1133 580 
Q 1338 1288 1338 2009 
Q 1338 2731 1133 3434 
Q 928 4138 513 4856 
z
" transform="scale(0.015625)"/>
      </defs>
      <use xlink:href="#DejaVuSans-35"/>
      <use xlink:href="#DejaVuSans-37" transform="translate(62.203125 0)"/>
      <use xlink:href="#DejaVuSans-37" transform="translate(121.53125 0)"/>
      <use xlink:href="#DejaVuSans-3" transform="translate(182.609375 0)"/>
      <use xlink:href="#DejaVuSans-b" transform="translate(214.390625 0)"/>
      <use xlink:href="#DejaVuSans-50" transform="translate(253.40625 0)"/>
      <use xlink:href="#DejaVuSans-56" transform="translate(350.8125 0)"/>
      <use xlink:href="#DejaVuSans-c" transform="translate(402.90625 0)"/>
     </g>
    </g>
   </g>
   <g id="matplotlib.axis_2">
    <g id="ytick_1">
     <g id="line2d_19">
      <path d="M 44.103906 403.874065 
L 633.341562 403.874065 
" clip-path="url(#pfb0e307fc5)" style="fill: none; stroke: #b0b0b0; stroke-opacity: 0.25; stroke-width: 0.8; stroke-linecap: square"/>
     </g>
     <g id="line2d_20">
      <defs>
       <path id="me75ece49b1" d="M 0 0 
L -3.5 0 
" style="stroke: #000000; stroke-width: 0.8"/>
      </defs>
      <g>
       <use xlink:href="#me75ece49b1" x="44.103906" y="403.874065" style="stroke: #000000; stroke-width: 0.8"/>
      </g>
     </g>
     <g id="text_11">
      <!-- 0.0 -->
      <g transform="translate(21.200781 407.672893) scale(0.1 -0.1)">
       <defs>
        <path id="DejaVuSans-11" d="M 684 794 
L 1344 794 
L 1344 0 
L 684 0 
L 684 794 
z
" transform="scale(0.015625)"/>
       </defs>
       <use xlink:href="#DejaVuSans-13"/>
       <use xlink:href="#DejaVuSans-11" transform="translate(63.625 0)"/>
       <use xlink:href="#DejaVuSans-13" transform="translate(95.40625 0)"/>
      </g>
     </g>
    </g>
    <g id="ytick_2">
     <g id="line2d_21">
      <path d="M 44.103906 331.196674 
L 633.341562 331.196674 
" clip-path="url(#pfb0e307fc5)" style="fill: none; stroke: #b0b0b0; stroke-opacity: 0.25; stroke-width: 0.8; stroke-linecap: square"/>
     </g>
     <g id="line2d_22">
      <g>
       <use xlink:href="#me75ece49b1" x="44.103906" y="331.196674" style="stroke: #000000; stroke-width: 0.8"/>
      </g>
     </g>
     <g id="text_12">
      <!-- 0.2 -->
      <g transform="translate(21.200781 334.995502) scale(0.1 -0.1)">
       <use xlink:href="#DejaVuSans-13"/>
       <use xlink:href="#DejaVuSans-11" transform="translate(63.625 0)"/>
       <use xlink:href="#DejaVuSans-15" transform="translate(95.40625 0)"/>
      </g>
     </g>
    </g>
    <g id="ytick_3">
     <g id="line2d_23">
      <path d="M 44.103906 258.519283 
L 633.341562 258.519283 
" clip-path="url(#pfb0e307fc5)" style="fill: none; stroke: #b0b0b0; stroke-opacity: 0.25; stroke-width: 0.8; stroke-linecap: square"/>
     </g>
     <g id="line2d_24">
      <g>
       <use xlink:href="#me75ece49b1" x="44.103906" y="258.519283" style="stroke: #000000; stroke-width: 0.8"/>
      </g>
     </g>
     <g id="text_13">
      <!-- 0.4 -->
      <g transform="translate(21.200781 262.318111) scale(0.1 -0.1)">
       <defs>
        <path id="DejaVuSans-17" d="M 2419 4116 
L 825 1625 
L 2419 1625 
L 2419 4116 
z
M 2253 4666 
L 3047 4666 
L 3047 1625 
L 3713 1625 
L 3713 1100 
L 3047 1100 
L 3047 0 
L 2419 0 
L 2419 1100 
L 313 1100 
L 313 1709 
L 2253 4666 
z
" transform="scale(0.015625)"/>
       </defs>
       <use xlink:href="#DejaVuSans-13"/>
       <use xlink:href="#DejaVuSans-11" transform="translate(63.625 0)"/>
       <use xlink:href="#DejaVuSans-17" transform="translate(95.40625 0)"/>
      </g>
     </g>
    </g>
    <g id="ytick_4">
     <g id="line2d_25">
      <path d="M 44.103906 185.841891 
L 633.341562 185.841891 
" clip-path="url(#pfb0e307fc5)" style="fill: none; stroke: #b0b0b0; stroke-opacity: 0.25; stroke-width: 0.8; stroke-linecap: square"/>
     </g>
     <g id="line2d_26">
      <g>
       <use xlink:href="#me75ece49b1" x="44.103906" y="185.841891" style="stroke: #000000; stroke-width: 0.8"/>
      </g>
     </g>
     <g id="text_14">
      <!-- 0.6 -->
      <g transform="translate(21.200781 189.64072) scale(0.1 -0.1)">
       <defs>
        <path id="DejaVuSans-19" d="M 2113 2584 
Q 1688 2584 1439 2293 
Q 1191 2003 1191 1497 
Q 1191 994 1439 701 
Q 1688 409 2113 409 
Q 2538 409 2786 701 
Q 3034 994 3034 1497 
Q 3034 2003 2786 2293 
Q 2538 2584 2113 2584 
z
M 3366 4563 
L 3366 3988 
Q 3128 4100 2886 4159 
Q 2644 4219 2406 4219 
Q 1781 4219 1451 3797 
Q 1122 3375 1075 2522 
Q 1259 2794 1537 2939 
Q 1816 3084 2150 3084 
Q 2853 3084 3261 2657 
Q 3669 2231 3669 1497 
Q 3669 778 3244 343 
Q 2819 -91 2113 -91 
Q 1303 -91 875 529 
Q 447 1150 447 2328 
Q 447 3434 972 4092 
Q 1497 4750 2381 4750 
Q 2619 4750 2861 4703 
Q 3103 4656 3366 4563 
z
" transform="scale(0.015625)"/>
       </defs>
       <use xlink:href="#DejaVuSans-13"/>
       <use xlink:href="#DejaVuSans-11" transform="translate(63.625 0)"/>
       <use xlink:href="#DejaVuSans-19" transform="translate(95.40625 0)"/>
      </g>
     </g>
    </g>
    <g id="ytick_5">
     <g id="line2d_27">
      <path d="M 44.103906 113.1645 
L 633.341562 113.1645 
" clip-path="url(#pfb0e307fc5)" style="fill: none; stroke: #b0b0b0; stroke-opacity: 0.25; stroke-width: 0.8; stroke-linecap: square"/>
     </g>
     <g id="line2d_28">
      <g>
       <use xlink:href="#me75ece49b1" x="44.103906" y="113.1645" style="stroke: #000000; stroke-width: 0.8"/>
      </g>
     </g>
     <g id="text_15">
      <!-- 0.8 -->
      <g transform="translate(21.200781 116.963329) scale(0.1 -0.1)">
       <defs>
        <path id="DejaVuSans-1b" d="M 2034 2216 
Q 1584 2216 1326 1975 
Q 1069 1734 1069 1313 
Q 1069 891 1326 650 
Q 1584 409 2034 409 
Q 2484 409 2743 651 
Q 3003 894 3003 1313 
Q 3003 1734 2745 1975 
Q 2488 2216 2034 2216 
z
M 1403 2484 
Q 997 2584 770 2862 
Q 544 3141 544 3541 
Q 544 4100 942 4425 
Q 1341 4750 2034 4750 
Q 2731 4750 3128 4425 
Q 3525 4100 3525 3541 
Q 3525 3141 3298 2862 
Q 3072 2584 2669 2484 
Q 3125 2378 3379 2068 
Q 3634 1759 3634 1313 
Q 3634 634 3220 271 
Q 2806 -91 2034 -91 
Q 1263 -91 848 271 
Q 434 634 434 1313 
Q 434 1759 690 2068 
Q 947 2378 1403 2484 
z
M 1172 3481 
Q 1172 3119 1398 2916 
Q 1625 2713 2034 2713 
Q 2441 2713 2670 2916 
Q 2900 3119 2900 3481 
Q 2900 3844 2670 4047 
Q 2441 4250 2034 4250 
Q 1625 4250 1398 4047 
Q 1172 3844 1172 3481 
z
" transform="scale(0.015625)"/>
       </defs>
       <use xlink:href="#DejaVuSans-13"/>
       <use xlink:href="#DejaVuSans-11" transform="translate(63.625 0)"/>
       <use xlink:href="#DejaVuSans-1b" transform="translate(95.40625 0)"/>
      </g>
     </g>
    </g>
    <g id="ytick_6">
     <g id="line2d_29">
      <path d="M 44.103906 40.487109 
L 633.341562 40.487109 
" clip-path="url(#pfb0e307fc5)" style="fill: none; stroke: #b0b0b0; stroke-opacity: 0.25; stroke-width: 0.8; stroke-linecap: square"/>
     </g>
     <g id="line2d_30">
      <g>
       <use xlink:href="#me75ece49b1" x="44.103906" y="40.487109" style="stroke: #000000; stroke-width: 0.8"/>
      </g>
     </g>
     <g id="text_16">
      <!-- 1.0 -->
      <g transform="translate(21.200781 44.285937) scale(0.1 -0.1)">
       <use xlink:href="#DejaVuSans-14"/>
       <use xlink:href="#DejaVuSans-11" transform="translate(63.625 0)"/>
       <use xlink:href="#DejaVuSans-13" transform="translate(95.40625 0)"/>
      </g>
     </g>
    </g>
    <g id="text_17">
     <!-- Empirical cumulative probability -->
     <g transform="translate(14.798438 303.068359) rotate(-90) scale(0.1 -0.1)">
      <defs>
       <path id="DejaVuSans-28" d="M 628 4666 
L 3578 4666 
L 3578 4134 
L 1259 4134 
L 1259 2753 
L 3481 2753 
L 3481 2222 
L 1259 2222 
L 1259 531 
L 3634 531 
L 3634 0 
L 628 0 
L 628 4666 
z
" transform="scale(0.015625)"/>
       <path id="DejaVuSans-53" d="M 1159 525 
L 1159 -1331 
L 581 -1331 
L 581 3500 
L 1159 3500 
L 1159 2969 
Q 1341 3281 1617 3432 
Q 1894 3584 2278 3584 
Q 2916 3584 3314 3078 
Q 3713 2572 3713 1747 
Q 3713 922 3314 415 
Q 2916 -91 2278 -91 
Q 1894 -91 1617 61 
Q 1341 213 1159 525 
z
M 3116 1747 
Q 3116 2381 2855 2742 
Q 2594 3103 2138 3103 
Q 1681 3103 1420 2742 
Q 1159 2381 1159 1747 
Q 1159 1113 1420 752 
Q 1681 391 2138 391 
Q 2594 391 2855 752 
Q 3116 1113 3116 1747 
z
" transform="scale(0.015625)"/>
       <path id="DejaVuSans-4c" d="M 603 3500 
L 1178 3500 
L 1178 0 
L 603 0 
L 603 3500 
z
M 603 4863 
L 1178 4863 
L 1178 4134 
L 603 4134 
L 603 4863 
z
" transform="scale(0.015625)"/>
       <path id="DejaVuSans-55" d="M 2631 2963 
Q 2534 3019 2420 3045 
Q 2306 3072 2169 3072 
Q 1681 3072 1420 2755 
Q 1159 2438 1159 1844 
L 1159 0 
L 581 0 
L 581 3500 
L 1159 3500 
L 1159 2956 
Q 1341 3275 1631 3429 
Q 1922 3584 2338 3584 
Q 2397 3584 2469 3576 
Q 2541 3569 2628 3553 
L 2631 2963 
z
" transform="scale(0.015625)"/>
       <path id="DejaVuSans-46" d="M 3122 3366 
L 3122 2828 
Q 2878 2963 2633 3030 
Q 2388 3097 2138 3097 
Q 1578 3097 1268 2742 
Q 959 2388 959 1747 
Q 959 1106 1268 751 
Q 1578 397 2138 397 
Q 2388 397 2633 464 
Q 2878 531 3122 666 
L 3122 134 
Q 2881 22 2623 -34 
Q 2366 -91 2075 -91 
Q 1284 -91 818 406 
Q 353 903 353 1747 
Q 353 2603 823 3093 
Q 1294 3584 2113 3584 
Q 2378 3584 2631 3529 
Q 2884 3475 3122 3366 
z
" transform="scale(0.015625)"/>
       <path id="DejaVuSans-44" d="M 2194 1759 
Q 1497 1759 1228 1600 
Q 959 1441 959 1056 
Q 959 750 1161 570 
Q 1363 391 1709 391 
Q 2188 391 2477 730 
Q 2766 1069 2766 1631 
L 2766 1759 
L 2194 1759 
z
M 3341 1997 
L 3341 0 
L 2766 0 
L 2766 531 
Q 2569 213 2275 61 
Q 1981 -91 1556 -91 
Q 1019 -91 701 211 
Q 384 513 384 1019 
Q 384 1609 779 1909 
Q 1175 2209 1959 2209 
L 2766 2209 
L 2766 2266 
Q 2766 2663 2505 2880 
Q 2244 3097 1772 3097 
Q 1472 3097 1187 3025 
Q 903 2953 641 2809 
L 641 3341 
Q 956 3463 1253 3523 
Q 1550 3584 1831 3584 
Q 2591 3584 2966 3190 
Q 3341 2797 3341 1997 
z
" transform="scale(0.015625)"/>
       <path id="DejaVuSans-4f" d="M 603 4863 
L 1178 4863 
L 1178 0 
L 603 0 
L 603 4863 
z
" transform="scale(0.015625)"/>
       <path id="DejaVuSans-58" d="M 544 1381 
L 544 3500 
L 1119 3500 
L 1119 1403 
Q 1119 906 1312 657 
Q 1506 409 1894 409 
Q 2359 409 2629 706 
Q 2900 1003 2900 1516 
L 2900 3500 
L 3475 3500 
L 3475 0 
L 2900 0 
L 2900 538 
Q 2691 219 2414 64 
Q 2138 -91 1772 -91 
Q 1169 -91 856 284 
Q 544 659 544 1381 
z
M 1991 3584 
L 1991 3584 
z
" transform="scale(0.015625)"/>
       <path id="DejaVuSans-57" d="M 1172 4494 
L 1172 3500 
L 2356 3500 
L 2356 3053 
L 1172 3053 
L 1172 1153 
Q 1172 725 1289 603 
Q 1406 481 1766 481 
L 2356 481 
L 2356 0 
L 1766 0 
Q 1100 0 847 248 
Q 594 497 594 1153 
L 594 3053 
L 172 3053 
L 172 3500 
L 594 3500 
L 594 4494 
L 1172 4494 
z
" transform="scale(0.015625)"/>
       <path id="DejaVuSans-59" d="M 191 3500 
L 800 3500 
L 1894 563 
L 2988 3500 
L 3597 3500 
L 2284 0 
L 1503 0 
L 191 3500 
z
" transform="scale(0.015625)"/>
       <path id="DejaVuSans-48" d="M 3597 1894 
L 3597 1613 
L 953 1613 
Q 991 1019 1311 708 
Q 1631 397 2203 397 
Q 2534 397 2845 478 
Q 3156 559 3463 722 
L 3463 178 
Q 3153 47 2828 -22 
Q 2503 -91 2169 -91 
Q 1331 -91 842 396 
Q 353 884 353 1716 
Q 353 2575 817 3079 
Q 1281 3584 2069 3584 
Q 2775 3584 3186 3129 
Q 3597 2675 3597 1894 
z
M 3022 2063 
Q 3016 2534 2758 2815 
Q 2500 3097 2075 3097 
Q 1594 3097 1305 2825 
Q 1016 2553 972 2059 
L 3022 2063 
z
" transform="scale(0.015625)"/>
       <path id="DejaVuSans-52" d="M 1959 3097 
Q 1497 3097 1228 2736 
Q 959 2375 959 1747 
Q 959 1119 1226 758 
Q 1494 397 1959 397 
Q 2419 397 2687 759 
Q 2956 1122 2956 1747 
Q 2956 2369 2687 2733 
Q 2419 3097 1959 3097 
z
M 1959 3584 
Q 2709 3584 3137 3096 
Q 3566 2609 3566 1747 
Q 3566 888 3137 398 
Q 2709 -91 1959 -91 
Q 1206 -91 779 398 
Q 353 888 353 1747 
Q 353 2609 779 3096 
Q 1206 3584 1959 3584 
z
" transform="scale(0.015625)"/>
       <path id="DejaVuSans-45" d="M 3116 1747 
Q 3116 2381 2855 2742 
Q 2594 3103 2138 3103 
Q 1681 3103 1420 2742 
Q 1159 2381 1159 1747 
Q 1159 1113 1420 752 
Q 1681 391 2138 391 
Q 2594 391 2855 752 
Q 3116 1113 3116 1747 
z
M 1159 2969 
Q 1341 3281 1617 3432 
Q 1894 3584 2278 3584 
Q 2916 3584 3314 3078 
Q 3713 2572 3713 1747 
Q 3713 922 3314 415 
Q 2916 -91 2278 -91 
Q 1894 -91 1617 61 
Q 1341 213 1159 525 
L 1159 0 
L 581 0 
L 581 4863 
L 1159 4863 
L 1159 2969 
z
" transform="scale(0.015625)"/>
       <path id="DejaVuSans-5c" d="M 2059 -325 
Q 1816 -950 1584 -1140 
Q 1353 -1331 966 -1331 
L 506 -1331 
L 506 -850 
L 844 -850 
Q 1081 -850 1212 -737 
Q 1344 -625 1503 -206 
L 1606 56 
L 191 3500 
L 800 3500 
L 1894 763 
L 2988 3500 
L 3597 3500 
L 2059 -325 
z
" transform="scale(0.015625)"/>
      </defs>
      <use xlink:href="#DejaVuSans-28"/>
      <use xlink:href="#DejaVuSans-50" transform="translate(63.1875 0)"/>
      <use xlink:href="#DejaVuSans-53" transform="translate(160.59375 0)"/>
      <use xlink:href="#DejaVuSans-4c" transform="translate(224.078125 0)"/>
      <use xlink:href="#DejaVuSans-55" transform="translate(251.859375 0)"/>
      <use xlink:href="#DejaVuSans-4c" transform="translate(292.96875 0)"/>
      <use xlink:href="#DejaVuSans-46" transform="translate(320.75 0)"/>
      <use xlink:href="#DejaVuSans-44" transform="translate(375.734375 0)"/>
      <use xlink:href="#DejaVuSans-4f" transform="translate(437.015625 0)"/>
      <use xlink:href="#DejaVuSans-3" transform="translate(464.796875 0)"/>
      <use xlink:href="#DejaVuSans-46" transform="translate(496.578125 0)"/>
      <use xlink:href="#DejaVuSans-58" transform="translate(551.5625 0)"/>
      <use xlink:href="#DejaVuSans-50" transform="translate(614.9375 0)"/>
      <use xlink:href="#DejaVuSans-58" transform="translate(712.34375 0)"/>
      <use xlink:href="#DejaVuSans-4f" transform="translate(775.71875 0)"/>
      <use xlink:href="#DejaVuSans-44" transform="translate(803.5 0)"/>
      <use xlink:href="#DejaVuSans-57" transform="translate(864.78125 0)"/>
      <use xlink:href="#DejaVuSans-4c" transform="translate(903.984375 0)"/>
      <use xlink:href="#DejaVuSans-59" transform="translate(931.765625 0)"/>
      <use xlink:href="#DejaVuSans-48" transform="translate(990.953125 0)"/>
      <use xlink:href="#DejaVuSans-3" transform="translate(1052.484375 0)"/>
      <use xlink:href="#DejaVuSans-53" transform="translate(1084.265625 0)"/>
      <use xlink:href="#DejaVuSans-55" transform="translate(1147.75 0)"/>
      <use xlink:href="#DejaVuSans-52" transform="translate(1186.65625 0)"/>
      <use xlink:href="#DejaVuSans-45" transform="translate(1247.84375 0)"/>
      <use xlink:href="#DejaVuSans-44" transform="translate(1311.328125 0)"/>
      <use xlink:href="#DejaVuSans-45" transform="translate(1372.609375 0)"/>
      <use xlink:href="#DejaVuSans-4c" transform="translate(1436.09375 0)"/>
      <use xlink:href="#DejaVuSans-4f" transform="translate(1463.875 0)"/>
      <use xlink:href="#DejaVuSans-4c" transform="translate(1491.65625 0)"/>
      <use xlink:href="#DejaVuSans-57" transform="translate(1519.4375 0)"/>
      <use xlink:href="#DejaVuSans-5c" transform="translate(1558.640625 0)"/>
     </g>
    </g>
   </g>
   <g id="line2d_31">
    <path d="M 70.887436 403.866797 
L 70.904401 403.517945 
L 71.01467 368.320285 
L 71.020325 368.000504 
L 71.130595 363.4509 
L 71.178661 363.022103 
L 71.286104 361.067081 
L 71.297413 360.87812 
L 71.407683 347.716245 
L 71.41051 347.403732 
L 71.52078 342.759646 
L 71.554709 342.367189 
L 71.664979 333.878469 
L 71.667807 333.565957 
L 71.778076 321.188997 
L 71.803523 320.818342 
L 71.913793 315.600105 
L 72.2135 315.105899 
L 72.267222 315.076828 
L 75.055067 314.946009 
L 75.165336 313.637816 
L 75.173819 313.310768 
L 75.275606 311.660991 
L 75.340637 311.508368 
L 75.357602 311.159517 
L 75.459389 309.873127 
L 75.747787 309.749575 
L 75.815645 309.604221 
L 75.925915 307.29308 
L 76.03053 306.718928 
L 76.1408 291.514818 
L 76.149282 291.18777 
L 76.259552 290.235696 
L 76.30479 290.054002 
L 76.381131 289.952254 
L 76.485746 289.828703 
L 76.596016 287.154175 
L 76.61298 286.805323 
L 76.717595 286.39833 
L 76.788281 286.369259 
L 81.620357 286.252975 
L 81.722145 285.671556 
L 81.747592 285.526201 
L 81.857861 284.508718 
L 81.880481 284.145331 
L 81.99075 283.040634 
L 82.019025 282.662712 
L 82.129295 276.208959 
L 82.174533 275.787431 
L 82.284803 270.351162 
L 82.307423 269.987775 
L 82.417692 269.646191 
L 82.522307 269.07204 
L 82.632577 267.102482 
L 82.949249 266.521063 
L 83.059519 260.794085 
L 83.076483 260.445233 
L 83.175443 260.023705 
L 83.675898 259.776601 
L 85.635307 259.660318 
L 85.745576 259.187915 
L 85.776678 258.802724 
L 85.886948 257.974202 
L 85.940669 257.53087 
L 86.050939 246.912703 
L 86.243204 246.694671 
L 86.517465 246.578387 
L 86.735177 245.713526 
L 86.845446 237.399233 
L 86.848274 237.08672 
L 86.958544 227.943904 
L 86.989645 227.558714 
L 87.099915 214.74569 
L 87.102742 214.433177 
L 87.213012 210.748433 
L 87.221494 210.421385 
L 87.331764 206.969209 
L 87.524029 206.77298 
L 87.620162 206.584019 
L 87.727604 206.424129 
L 87.982073 206.2279 
L 88.092343 205.893584 
L 88.222404 205.254023 
L 88.329847 204.767084 
L 88.41467 204.549052 
L 88.476873 204.294681 
L 88.584315 204.076649 
L 88.621072 203.902223 
L 88.703067 203.713262 
L 88.892505 203.575175 
L 88.946226 203.524301 
L 89.551296 203.408017 
L 89.661566 202.310588 
L 89.670048 201.98354 
L 89.780318 189.853683 
L 89.791628 189.519367 
L 89.89907 188.581829 
L 90.00934 188.262049 
L 90.119609 182.513267 
L 90.235534 182.404251 
L 90.473038 182.287967 
L 90.512622 181.880974 
L 90.622892 176.29935 
L 90.628547 175.97957 
L 90.738816 171.916903 
L 91.230789 170.347072 
L 91.304302 169.990952 
L 91.615319 169.867401 
L 91.866961 169.438604 
L 91.946129 169.315053 
L 92.056398 154.983071 
L 92.073363 154.63422 
L 92.169496 153.987391 
L 92.344796 153.863839 
L 92.438101 153.318759 
L 92.548371 152.889962 
L 92.712362 152.606521 
L 92.822632 142.540702 
L 92.845251 142.177315 
L 92.955521 141.03628 
L 93.150613 140.767374 
L 93.413564 140.622019 
L 93.467286 140.600216 
L 93.699135 140.483932 
L 93.80375 140.280435 
L 94.414474 140.142348 
L 94.442749 139.764426 
L 94.553018 137.409678 
L 94.637841 137.286127 
L 95.17788 137.169843 
L 95.28815 130.737894 
L 95.322079 130.345436 
L 95.395592 130.163742 
L 96.39933 129.94571 
L 96.523737 129.8803 
L 96.817789 129.713142 
L 96.874338 129.640465 
L 97.759323 129.49511 
L 97.852628 128.95003 
L 97.962898 128.761069 
L 98.019447 128.310469 
L 98.129716 124.54578 
L 98.485972 123.928022 
L 98.556658 123.789935 
L 98.666928 122.663435 
L 98.833746 122.459939 
L 99.051458 122.307316 
L 99.39075 122.016607 
L 99.495365 121.893055 
L 99.551913 121.863984 
L 99.809209 121.740433 
L 100.419934 120.781091 
L 100.527376 120.570327 
L 100.668748 120.454043 
L 101.327539 120.330491 
L 101.737516 119.814482 
L 102.079635 119.69093 
L 102.090945 119.669127 
L 102.229489 119.552843 
L 102.339758 117.968476 
L 102.86566 117.503341 
L 103.001377 117.401592 
L 103.17385 117.24897 
L 103.28412 116.86378 
L 103.414181 116.224219 
L 103.524451 113.288052 
L 103.552725 112.91013 
L 103.662995 111.601937 
L 103.863743 110.780682 
L 103.95422 110.504508 
L 104.270892 110.344618 
L 104.293512 110.279208 
L 104.58191 110.155656 
L 104.638458 110.133853 
L 105.192634 110.003034 
L 105.376417 109.632379 
L 105.537581 109.516095 
L 105.673297 109.167244 
L 105.783567 107.074135 
L 106.07762 106.70348 
L 106.286849 106.587197 
L 106.357535 106.398235 
L 106.493252 106.274684 
L 106.657243 105.889494 
L 106.767512 104.683049 
L 106.835371 104.42141 
L 106.94564 92.26975 
L 106.97957 91.877293 
L 107.089839 80.009075 
L 107.095494 79.689294 
L 107.205764 45.058517 
L 107.214246 44.731469 
L 107.324516 43.793931 
L 107.460233 43.495953 
L 107.765595 43.37967 
L 107.909794 43.147102 
L 111.359257 42.914534 
L 111.461045 40.508913 
L 111.489319 40.494377 
L 139.172678 40.487109 
L 139.172678 40.487109 
" clip-path="url(#pfb0e307fc5)" style="fill: none; stroke: #1f77b4; stroke-width: 1.5; stroke-linecap: square"/>
   </g>
   <g id="line2d_32">
    <path d="M 106.371672 403.866797 
L 106.419739 403.438 
L 106.530008 396.199332 
L 106.535663 395.879552 
L 106.645933 393.357646 
L 106.665725 393.001527 
L 106.775995 389.920006 
L 106.795787 389.563886 
L 106.906056 385.893678 
L 106.908884 385.581165 
L 107.019154 353.828413 
L 107.021981 353.5159 
L 107.132251 345.354229 
L 107.143561 345.019913 
L 107.25383 319.582826 
L 107.256658 319.270314 
L 107.366927 280.64228 
L 107.372582 280.3225 
L 107.482852 268.534227 
L 107.496989 268.192643 
L 107.607259 262.022333 
L 107.612914 261.702552 
L 107.723184 200.726221 
L 107.726011 200.413708 
L 107.836281 181.146932 
L 107.84759 180.812616 
L 107.95786 177.789237 
L 107.963515 177.469456 
L 108.073785 157.025306 
L 108.076612 156.712793 
L 108.186882 107.684625 
L 108.189709 107.372112 
L 108.299979 92.415105 
L 108.302807 92.102592 
L 108.413076 77.690666 
L 108.415904 77.378153 
L 108.526173 63.736607 
L 108.531828 63.416826 
L 108.642098 61.745246 
L 108.659063 61.396395 
L 108.769332 42.158689 
L 108.774987 41.838909 
L 108.862637 40.647 
L 109.676937 40.508913 
L 110.313109 40.487109 
L 110.313109 40.487109 
" clip-path="url(#pfb0e307fc5)" style="fill: none; stroke: #ff7f0e; stroke-width: 1.5; stroke-linecap: square"/>
   </g>
   <g id="line2d_33">
    <path d="M 248.127662 403.866797 
L 248.161591 403.648765 
L 248.269034 400.429156 
L 248.430197 400.043966 
L 248.534812 398.357851 
L 248.783626 398.110748 
L 248.893895 386.591381 
L 248.89955 386.271601 
L 249.00982 383.473521 
L 249.148364 382.812157 
L 249.258634 364.410241 
L 249.264289 364.090461 
L 249.374558 361.910139 
L 249.462209 361.379594 
L 249.572478 334.031092 
L 249.575306 333.718579 
L 249.685576 318.776107 
L 249.70254 318.427256 
L 249.81281 310.374601 
L 249.818465 310.054821 
L 249.928734 306.275596 
L 250.282163 305.614232 
L 250.488565 305.468877 
L 250.598835 278.280265 
L 250.601663 277.967752 
L 250.711932 272.822193 
L 250.723242 272.487877 
L 250.833512 270.169468 
L 250.858959 269.798814 
L 250.966401 269.399088 
L 251.475338 269.101111 
L 252.28681 268.730456 
L 252.39708 265.074783 
L 252.399908 264.76227 
L 252.510177 239.906603 
L 252.513005 239.59409 
L 252.623274 232.558918 
L 252.756164 231.91209 
L 252.866433 218.466772 
L 252.869261 218.15426 
L 252.979531 201.075073 
L 253.004977 200.704418 
L 253.115247 199.919502 
L 253.140694 199.548847 
L 253.250964 198.749396 
L 253.465848 198.465954 
L 253.559154 198.342403 
L 253.669423 196.023994 
L 253.677906 195.696946 
L 253.788175 193.509356 
L 253.833414 193.087827 
L 253.943684 188.538223 
L 254.09071 187.855055 
L 254.20098 184.889818 
L 254.206635 184.570037 
L 254.316905 181.503051 
L 254.571373 181.103326 
L 254.673161 180.965239 
L 254.78343 174.358864 
L 254.791913 174.031815 
L 254.902182 170.870349 
L 254.967213 170.397946 
L 255.077483 170.238056 
L 255.105757 169.860133 
L 255.216027 162.301685 
L 255.230164 161.960101 
L 255.340434 161.502233 
L 255.365881 161.131579 
L 255.476151 145.622223 
L 255.490288 145.28064 
L 255.600557 144.364904 
L 255.648624 143.936108 
L 255.758893 122.590758 
L 255.775858 122.241907 
L 255.886128 121.471526 
L 256.129287 121.144478 
L 256.171698 120.991855 
L 256.281968 104.290591 
L 256.287623 103.97081 
L 256.397892 100.925628 
L 256.423339 100.554973 
L 256.533609 89.951342 
L 256.559056 89.580687 
L 256.669326 88.977465 
L 256.805042 88.323368 
L 256.915312 79.420388 
L 256.929449 79.078804 
L 257.036891 78.461046 
L 257.311152 78.279353 
L 257.497762 78.061321 
L 257.608032 69.187411 
L 257.721129 68.591456 
L 257.831399 67.559438 
L 257.944496 67.443154 
L 258.063248 67.32687 
L 258.295097 67.072499 
L 258.591978 66.956215 
L 258.702247 59.201538 
L 258.727694 58.830883 
L 258.835136 58.474764 
L 258.990645 58.271267 
L 259.100915 44.004695 
L 259.109397 43.677647 
L 259.219667 42.493005 
L 259.296007 42.282241 
L 259.428897 42.173225 
L 260.401532 41.998799 
L 261.311964 41.933389 
L 268.37771 41.809838 
L 292.673809 41.533664 
L 292.784079 40.596125 
L 292.993308 40.552519 
L 311.4027 40.494377 
L 320.122491 40.487109 
L 320.122491 40.487109 
" clip-path="url(#pfb0e307fc5)" style="fill: none; stroke: #2ca02c; stroke-width: 1.5; stroke-linecap: square"/>
   </g>
   <g id="line2d_34">
    <path d="M 187.391656 403.866797 
L 187.501925 402.231556 
L 187.538682 401.83183 
L 187.646124 401.693743 
L 187.787496 401.679207 
L 189.373684 401.555656 
L 189.483953 391.002899 
L 189.489608 390.683118 
L 189.599878 369.417714 
L 189.602705 369.105201 
L 189.712975 341.502328 
L 189.715803 341.189815 
L 189.826072 328.660233 
L 189.857174 328.275042 
L 189.967444 327.83171 
L 190.038129 327.344772 
L 190.148399 315.113167 
L 190.151227 314.800654 
L 190.261496 294.988797 
L 190.264324 294.676285 
L 190.374594 277.677043 
L 190.383076 277.349995 
L 190.484863 276.172621 
L 190.566859 276.019998 
L 190.677128 241.614521 
L 190.679956 241.302009 
L 190.790226 234.259569 
L 190.835464 233.838041 
L 190.945734 233.22755 
L 191.251097 232.718809 
L 191.858994 232.340886 
L 191.969264 211.555152 
L 191.972091 211.24264 
L 192.082361 202.034414 
L 192.088016 201.714634 
L 192.195458 200.064857 
L 192.319865 199.817754 
L 192.430135 186.292491 
L 192.432962 185.979979 
L 192.543232 167.890576 
L 192.546059 167.578063 
L 192.656329 156.945361 
L 192.749634 156.40028 
L 192.859904 136.799188 
L 192.865559 136.479407 
L 192.975828 135.113073 
L 193.247262 134.647937 
L 193.829712 134.480779 
L 193.846677 134.131928 
L 193.956946 101.085518 
L 193.959774 100.773005 
L 194.070043 89.791451 
L 194.488503 88.410581 
L 194.598773 70.844456 
L 194.6016 70.531943 
L 194.71187 59.96465 
L 194.714697 59.652137 
L 194.824967 49.600854 
L 194.901308 49.09938 
L 195.011577 48.852277 
L 195.070953 48.706922 
L 195.181223 41.715357 
L 195.203843 41.35197 
L 195.314112 40.974048 
L 195.497895 40.756016 
L 197.91252 40.552519 
L 201.4977 40.51618 
L 204.661593 40.494377 
L 297.969584 40.487109 
L 297.969584 40.487109 
" clip-path="url(#pfb0e307fc5)" style="fill: none; stroke: #d62728; stroke-width: 1.5; stroke-linecap: square"/>
   </g>
   <g id="line2d_35">
    <path d="M 564.208798 403.866797 
L 564.231418 403.6633 
L 564.341687 396.14119 
L 564.533953 395.341739 
L 564.644222 381.344073 
L 564.65836 381.00249 
L 564.768629 377.136052 
L 565.0542 376.096766 
L 565.164469 340.419434 
L 565.167297 340.106922 
L 565.277567 319.822662 
L 565.283221 319.502881 
L 565.393491 307.489309 
L 565.43873 307.06778 
L 565.549 306.726196 
L 565.594239 306.493628 
L 565.704508 220.087478 
L 565.707336 219.774965 
L 565.817606 171.604391 
L 565.828915 171.270075 
L 565.939185 168.508334 
L 565.961804 168.144947 
L 566.072074 149.961064 
L 566.074902 149.648551 
L 566.185171 97.248152 
L 566.187999 96.935639 
L 566.298268 90.685383 
L 566.363299 90.21298 
L 566.473569 87.284081 
L 566.476397 86.971569 
L 566.586666 70.103146 
L 566.606458 69.747027 
L 566.716728 68.976647 
L 566.841135 68.351621 
L 566.948577 66.854467 
L 567.217183 66.33119 
L 567.327453 48.161842 
L 567.335935 47.834794 
L 567.446205 45.567259 
L 567.460342 45.225675 
L 567.570612 43.416008 
L 567.884456 42.914534 
L 568.008863 42.783715 
L 568.119133 41.228419 
L 568.625243 40.930441 
L 574.678769 40.545251 
L 587.453094 40.508913 
L 599.608212 40.494377 
L 606.558033 40.487109 
L 606.558033 40.487109 
" clip-path="url(#pfb0e307fc5)" style="fill: none; stroke: #9467bd; stroke-width: 1.5; stroke-linecap: square"/>
   </g>
   <g id="patch_3">
    <path d="M 44.103906 422.035781 
L 44.103906 22.318125 
" style="fill: none; stroke: #000000; stroke-width: 0.8; stroke-linejoin: miter; stroke-linecap: square"/>
   </g>
   <g id="patch_4">
    <path d="M 633.341562 422.035781 
L 633.341562 22.318125 
" style="fill: none; stroke: #000000; stroke-width: 0.8; stroke-linejoin: miter; stroke-linecap: square"/>
   </g>
   <g id="patch_5">
    <path d="M 44.103906 422.035781 
L 633.341562 422.035781 
" style="fill: none; stroke: #000000; stroke-width: 0.8; stroke-linejoin: miter; stroke-linecap: square"/>
   </g>
   <g id="patch_6">
    <path d="M 44.103906 22.318125 
L 633.341562 22.318125 
" style="fill: none; stroke: #000000; stroke-width: 0.8; stroke-linejoin: miter; stroke-linecap: square"/>
   </g>
   <g id="text_18">
    <!-- Empirical CDF of Selected Inter-Region RTT Pairs -->
    <g transform="translate(193.690547 16.318125) scale(0.12 -0.12)">
     <defs>
      <path id="DejaVuSans-26" d="M 4122 4306 
L 4122 3641 
Q 3803 3938 3442 4084 
Q 3081 4231 2675 4231 
Q 1875 4231 1450 3742 
Q 1025 3253 1025 2328 
Q 1025 1406 1450 917 
Q 1875 428 2675 428 
Q 3081 428 3442 575 
Q 3803 722 4122 1019 
L 4122 359 
Q 3791 134 3420 21 
Q 3050 -91 2638 -91 
Q 1578 -91 968 557 
Q 359 1206 359 2328 
Q 359 3453 968 4101 
Q 1578 4750 2638 4750 
Q 3056 4750 3426 4639 
Q 3797 4528 4122 4306 
z
" transform="scale(0.015625)"/>
      <path id="DejaVuSans-27" d="M 1259 4147 
L 1259 519 
L 2022 519 
Q 2988 519 3436 956 
Q 3884 1394 3884 2338 
Q 3884 3275 3436 3711 
Q 2988 4147 2022 4147 
L 1259 4147 
z
M 628 4666 
L 1925 4666 
Q 3281 4666 3915 4102 
Q 4550 3538 4550 2338 
Q 4550 1131 3912 565 
Q 3275 0 1925 0 
L 628 0 
L 628 4666 
z
" transform="scale(0.015625)"/>
      <path id="DejaVuSans-29" d="M 628 4666 
L 3309 4666 
L 3309 4134 
L 1259 4134 
L 1259 2759 
L 3109 2759 
L 3109 2228 
L 1259 2228 
L 1259 0 
L 628 0 
L 628 4666 
z
" transform="scale(0.015625)"/>
      <path id="DejaVuSans-49" d="M 2375 4863 
L 2375 4384 
L 1825 4384 
Q 1516 4384 1395 4259 
Q 1275 4134 1275 3809 
L 1275 3500 
L 2222 3500 
L 2222 3053 
L 1275 3053 
L 1275 0 
L 697 0 
L 697 3053 
L 147 3053 
L 147 3500 
L 697 3500 
L 697 3744 
Q 697 4328 969 4595 
Q 1241 4863 1831 4863 
L 2375 4863 
z
" transform="scale(0.015625)"/>
      <path id="DejaVuSans-36" d="M 3425 4513 
L 3425 3897 
Q 3066 4069 2747 4153 
Q 2428 4238 2131 4238 
Q 1616 4238 1336 4038 
Q 1056 3838 1056 3469 
Q 1056 3159 1242 3001 
Q 1428 2844 1947 2747 
L 2328 2669 
Q 3034 2534 3370 2195 
Q 3706 1856 3706 1288 
Q 3706 609 3251 259 
Q 2797 -91 1919 -91 
Q 1588 -91 1214 -16 
Q 841 59 441 206 
L 441 856 
Q 825 641 1194 531 
Q 1563 422 1919 422 
Q 2459 422 2753 634 
Q 3047 847 3047 1241 
Q 3047 1584 2836 1778 
Q 2625 1972 2144 2069 
L 1759 2144 
Q 1053 2284 737 2584 
Q 422 2884 422 3419 
Q 422 4038 858 4394 
Q 1294 4750 2059 4750 
Q 2388 4750 2728 4690 
Q 3069 4631 3425 4513 
z
" transform="scale(0.015625)"/>
      <path id="DejaVuSans-47" d="M 2906 2969 
L 2906 4863 
L 3481 4863 
L 3481 0 
L 2906 0 
L 2906 525 
Q 2725 213 2448 61 
Q 2172 -91 1784 -91 
Q 1150 -91 751 415 
Q 353 922 353 1747 
Q 353 2572 751 3078 
Q 1150 3584 1784 3584 
Q 2172 3584 2448 3432 
Q 2725 3281 2906 2969 
z
M 947 1747 
Q 947 1113 1208 752 
Q 1469 391 1925 391 
Q 2381 391 2643 752 
Q 2906 1113 2906 1747 
Q 2906 2381 2643 2742 
Q 2381 3103 1925 3103 
Q 1469 3103 1208 2742 
Q 947 2381 947 1747 
z
" transform="scale(0.015625)"/>
      <path id="DejaVuSans-2c" d="M 628 4666 
L 1259 4666 
L 1259 0 
L 628 0 
L 628 4666 
z
" transform="scale(0.015625)"/>
      <path id="DejaVuSans-51" d="M 3513 2113 
L 3513 0 
L 2938 0 
L 2938 2094 
Q 2938 2591 2744 2837 
Q 2550 3084 2163 3084 
Q 1697 3084 1428 2787 
Q 1159 2491 1159 1978 
L 1159 0 
L 581 0 
L 581 3500 
L 1159 3500 
L 1159 2956 
Q 1366 3272 1645 3428 
Q 1925 3584 2291 3584 
Q 2894 3584 3203 3211 
Q 3513 2838 3513 2113 
z
" transform="scale(0.015625)"/>
      <path id="DejaVuSans-10" d="M 313 2009 
L 1997 2009 
L 1997 1497 
L 313 1497 
L 313 2009 
z
" transform="scale(0.015625)"/>
      <path id="DejaVuSans-4a" d="M 2906 1791 
Q 2906 2416 2648 2759 
Q 2391 3103 1925 3103 
Q 1463 3103 1205 2759 
Q 947 2416 947 1791 
Q 947 1169 1205 825 
Q 1463 481 1925 481 
Q 2391 481 2648 825 
Q 2906 1169 2906 1791 
z
M 3481 434 
Q 3481 -459 3084 -895 
Q 2688 -1331 1869 -1331 
Q 1566 -1331 1297 -1286 
Q 1028 -1241 775 -1147 
L 775 -588 
Q 1028 -725 1275 -790 
Q 1522 -856 1778 -856 
Q 2344 -856 2625 -561 
Q 2906 -266 2906 331 
L 2906 616 
Q 2728 306 2450 153 
Q 2172 0 1784 0 
Q 1141 0 747 490 
Q 353 981 353 1791 
Q 353 2603 747 3093 
Q 1141 3584 1784 3584 
Q 2172 3584 2450 3431 
Q 2728 3278 2906 2969 
L 2906 3500 
L 3481 3500 
L 3481 434 
z
" transform="scale(0.015625)"/>
      <path id="DejaVuSans-33" d="M 1259 4147 
L 1259 2394 
L 2053 2394 
Q 2494 2394 2734 2622 
Q 2975 2850 2975 3272 
Q 2975 3691 2734 3919 
Q 2494 4147 2053 4147 
L 1259 4147 
z
M 628 4666 
L 2053 4666 
Q 2838 4666 3239 4311 
Q 3641 3956 3641 3272 
Q 3641 2581 3239 2228 
Q 2838 1875 2053 1875 
L 1259 1875 
L 1259 0 
L 628 0 
L 628 4666 
z
" transform="scale(0.015625)"/>
     </defs>
     <use xlink:href="#DejaVuSans-28"/>
     <use xlink:href="#DejaVuSans-50" transform="translate(63.1875 0)"/>
     <use xlink:href="#DejaVuSans-53" transform="translate(160.59375 0)"/>
     <use xlink:href="#DejaVuSans-4c" transform="translate(224.078125 0)"/>
     <use xlink:href="#DejaVuSans-55" transform="translate(251.859375 0)"/>
     <use xlink:href="#DejaVuSans-4c" transform="translate(292.96875 0)"/>
     <use xlink:href="#DejaVuSans-46" transform="translate(320.75 0)"/>
     <use xlink:href="#DejaVuSans-44" transform="translate(375.734375 0)"/>
     <use xlink:href="#DejaVuSans-4f" transform="translate(437.015625 0)"/>
     <use xlink:href="#DejaVuSans-3" transform="translate(464.796875 0)"/>
     <use xlink:href="#DejaVuSans-26" transform="translate(496.578125 0)"/>
     <use xlink:href="#DejaVuSans-27" transform="translate(566.40625 0)"/>
     <use xlink:href="#DejaVuSans-29" transform="translate(643.40625 0)"/>
     <use xlink:href="#DejaVuSans-3" transform="translate(700.921875 0)"/>
     <use xlink:href="#DejaVuSans-52" transform="translate(732.703125 0)"/>
     <use xlink:href="#DejaVuSans-49" transform="translate(793.890625 0)"/>
     <use xlink:href="#DejaVuSans-3" transform="translate(829.09375 0)"/>
     <use xlink:href="#DejaVuSans-36" transform="translate(860.875 0)"/>
     <use xlink:href="#DejaVuSans-48" transform="translate(924.359375 0)"/>
     <use xlink:href="#DejaVuSans-4f" transform="translate(985.890625 0)"/>
     <use xlink:href="#DejaVuSans-48" transform="translate(1013.671875 0)"/>
     <use xlink:href="#DejaVuSans-46" transform="translate(1075.203125 0)"/>
     <use xlink:href="#DejaVuSans-57" transform="translate(1130.1875 0)"/>
     <use xlink:href="#DejaVuSans-48" transform="translate(1169.390625 0)"/>
     <use xlink:href="#DejaVuSans-47" transform="translate(1230.921875 0)"/>
     <use xlink:href="#DejaVuSans-3" transform="translate(1294.40625 0)"/>
     <use xlink:href="#DejaVuSans-2c" transform="translate(1326.1875 0)"/>
     <use xlink:href="#DejaVuSans-51" transform="translate(1355.6875 0)"/>
     <use xlink:href="#DejaVuSans-57" transform="translate(1419.0625 0)"/>
     <use xlink:href="#DejaVuSans-48" transform="translate(1458.265625 0)"/>
     <use xlink:href="#DejaVuSans-55" transform="translate(1519.796875 0)"/>
     <use xlink:href="#DejaVuSans-10" transform="translate(1554.515625 0)"/>
     <use xlink:href="#DejaVuSans-35" transform="translate(1590.59375 0)"/>
     <use xlink:href="#DejaVuSans-48" transform="translate(1655.59375 0)"/>
     <use xlink:href="#DejaVuSans-4a" transform="translate(1717.125 0)"/>
     <use xlink:href="#DejaVuSans-4c" transform="translate(1780.609375 0)"/>
     <use xlink:href="#DejaVuSans-52" transform="translate(1808.390625 0)"/>
     <use xlink:href="#DejaVuSans-51" transform="translate(1869.578125 0)"/>
     <use xlink:href="#DejaVuSans-3" transform="translate(1932.953125 0)"/>
     <use xlink:href="#DejaVuSans-35" transform="translate(1964.734375 0)"/>
     <use xlink:href="#DejaVuSans-37" transform="translate(2026.9375 0)"/>
     <use xlink:href="#DejaVuSans-37" transform="translate(2086.265625 0)"/>
     <use xlink:href="#DejaVuSans-3" transform="translate(2147.34375 0)"/>
     <use xlink:href="#DejaVuSans-33" transform="translate(2179.125 0)"/>
     <use xlink:href="#DejaVuSans-44" transform="translate(2234.9375 0)"/>
     <use xlink:href="#DejaVuSans-4c" transform="translate(2296.21875 0)"/>
     <use xlink:href="#DejaVuSans-55" transform="translate(2324 0)"/>
     <use xlink:href="#DejaVuSans-56" transform="translate(2365.109375 0)"/>
    </g>
   </g>
   <g id="legend_1">
    <g id="patch_7">
     <path d="M 277.014141 417.035781 
L 400.431328 417.035781 
Q 402.431328 417.035781 402.431328 415.035781 
L 402.431328 341.031875 
Q 402.431328 339.031875 400.431328 339.031875 
L 277.014141 339.031875 
Q 275.014141 339.031875 275.014141 341.031875 
L 275.014141 415.035781 
Q 275.014141 417.035781 277.014141 417.035781 
z
" style="fill: #ffffff; opacity: 0.8; stroke: #cccccc; stroke-linejoin: miter"/>
    </g>
    <g id="line2d_36">
     <path d="M 279.014141 347.130312 
L 289.014141 347.130312 
L 299.014141 347.130312 
" style="fill: none; stroke: #1f77b4; stroke-width: 1.5; stroke-linecap: square"/>
    </g>
    <g id="text_19">
     <!-- Virginia → Oregon -->
     <g transform="translate(307.014141 350.630312) scale(0.1 -0.1)">
      <defs>
       <path id="DejaVuSans-39" d="M 1831 0 
L 50 4666 
L 709 4666 
L 2188 738 
L 3669 4666 
L 4325 4666 
L 2547 0 
L 1831 0 
z
" transform="scale(0.015625)"/>
       <path id="DejaVuSans-c1c" d="M 5050 2147 
L 5050 1866 
L 3822 638 
L 3447 1013 
L 4175 1741 
L 366 1741 
L 366 2272 
L 4175 2272 
L 3447 3000 
L 3822 3375 
L 5050 2147 
z
" transform="scale(0.015625)"/>
       <path id="DejaVuSans-32" d="M 2522 4238 
Q 1834 4238 1429 3725 
Q 1025 3213 1025 2328 
Q 1025 1447 1429 934 
Q 1834 422 2522 422 
Q 3209 422 3611 934 
Q 4013 1447 4013 2328 
Q 4013 3213 3611 3725 
Q 3209 4238 2522 4238 
z
M 2522 4750 
Q 3503 4750 4090 4092 
Q 4678 3434 4678 2328 
Q 4678 1225 4090 567 
Q 3503 -91 2522 -91 
Q 1538 -91 948 565 
Q 359 1222 359 2328 
Q 359 3434 948 4092 
Q 1538 4750 2522 4750 
z
" transform="scale(0.015625)"/>
      </defs>
      <use xlink:href="#DejaVuSans-39"/>
      <use xlink:href="#DejaVuSans-4c" transform="translate(66.203125 0)"/>
      <use xlink:href="#DejaVuSans-55" transform="translate(93.984375 0)"/>
      <use xlink:href="#DejaVuSans-4a" transform="translate(133.34375 0)"/>
      <use xlink:href="#DejaVuSans-4c" transform="translate(196.828125 0)"/>
      <use xlink:href="#DejaVuSans-51" transform="translate(224.609375 0)"/>
      <use xlink:href="#DejaVuSans-4c" transform="translate(287.984375 0)"/>
      <use xlink:href="#DejaVuSans-44" transform="translate(315.765625 0)"/>
      <use xlink:href="#DejaVuSans-3" transform="translate(377.046875 0)"/>
      <use xlink:href="#DejaVuSans-c1c" transform="translate(408.828125 0)"/>
      <use xlink:href="#DejaVuSans-3" transform="translate(492.625 0)"/>
      <use xlink:href="#DejaVuSans-32" transform="translate(524.40625 0)"/>
      <use xlink:href="#DejaVuSans-55" transform="translate(603.125 0)"/>
      <use xlink:href="#DejaVuSans-48" transform="translate(642.03125 0)"/>
      <use xlink:href="#DejaVuSans-4a" transform="translate(703.5625 0)"/>
      <use xlink:href="#DejaVuSans-52" transform="translate(767.046875 0)"/>
      <use xlink:href="#DejaVuSans-51" transform="translate(828.234375 0)"/>
     </g>
    </g>
    <g id="line2d_37">
     <path d="M 279.014141 362.131094 
L 289.014141 362.131094 
L 299.014141 362.131094 
" style="fill: none; stroke: #ff7f0e; stroke-width: 1.5; stroke-linecap: square"/>
    </g>
    <g id="text_20">
     <!-- Virginia → Ireland -->
     <g transform="translate(307.014141 365.631094) scale(0.1 -0.1)">
      <use xlink:href="#DejaVuSans-39"/>
      <use xlink:href="#DejaVuSans-4c" transform="translate(66.203125 0)"/>
      <use xlink:href="#DejaVuSans-55" transform="translate(93.984375 0)"/>
      <use xlink:href="#DejaVuSans-4a" transform="translate(133.34375 0)"/>
      <use xlink:href="#DejaVuSans-4c" transform="translate(196.828125 0)"/>
      <use xlink:href="#DejaVuSans-51" transform="translate(224.609375 0)"/>
      <use xlink:href="#DejaVuSans-4c" transform="translate(287.984375 0)"/>
      <use xlink:href="#DejaVuSans-44" transform="translate(315.765625 0)"/>
      <use xlink:href="#DejaVuSans-3" transform="translate(377.046875 0)"/>
      <use xlink:href="#DejaVuSans-c1c" transform="translate(408.828125 0)"/>
      <use xlink:href="#DejaVuSans-3" transform="translate(492.625 0)"/>
      <use xlink:href="#DejaVuSans-2c" transform="translate(524.40625 0)"/>
      <use xlink:href="#DejaVuSans-55" transform="translate(553.90625 0)"/>
      <use xlink:href="#DejaVuSans-48" transform="translate(592.8125 0)"/>
      <use xlink:href="#DejaVuSans-4f" transform="translate(654.34375 0)"/>
      <use xlink:href="#DejaVuSans-44" transform="translate(682.125 0)"/>
      <use xlink:href="#DejaVuSans-51" transform="translate(743.40625 0)"/>
      <use xlink:href="#DejaVuSans-47" transform="translate(806.78125 0)"/>
     </g>
    </g>
    <g id="line2d_38">
     <path d="M 279.014141 377.131875 
L 289.014141 377.131875 
L 299.014141 377.131875 
" style="fill: none; stroke: #2ca02c; stroke-width: 1.5; stroke-linecap: square"/>
    </g>
    <g id="text_21">
     <!-- Mumbai → Ireland -->
     <g transform="translate(307.014141 380.631875) scale(0.1 -0.1)">
      <defs>
       <path id="DejaVuSans-30" d="M 628 4666 
L 1569 4666 
L 2759 1491 
L 3956 4666 
L 4897 4666 
L 4897 0 
L 4281 0 
L 4281 4097 
L 3078 897 
L 2444 897 
L 1241 4097 
L 1241 0 
L 628 0 
L 628 4666 
z
" transform="scale(0.015625)"/>
      </defs>
      <use xlink:href="#DejaVuSans-30"/>
      <use xlink:href="#DejaVuSans-58" transform="translate(86.28125 0)"/>
      <use xlink:href="#DejaVuSans-50" transform="translate(149.65625 0)"/>
      <use xlink:href="#DejaVuSans-45" transform="translate(247.0625 0)"/>
      <use xlink:href="#DejaVuSans-44" transform="translate(310.546875 0)"/>
      <use xlink:href="#DejaVuSans-4c" transform="translate(371.828125 0)"/>
      <use xlink:href="#DejaVuSans-3" transform="translate(399.609375 0)"/>
      <use xlink:href="#DejaVuSans-c1c" transform="translate(431.390625 0)"/>
      <use xlink:href="#DejaVuSans-3" transform="translate(515.1875 0)"/>
      <use xlink:href="#DejaVuSans-2c" transform="translate(546.96875 0)"/>
      <use xlink:href="#DejaVuSans-55" transform="translate(576.46875 0)"/>
      <use xlink:href="#DejaVuSans-48" transform="translate(615.375 0)"/>
      <use xlink:href="#DejaVuSans-4f" transform="translate(676.90625 0)"/>
      <use xlink:href="#DejaVuSans-44" transform="translate(704.6875 0)"/>
      <use xlink:href="#DejaVuSans-51" transform="translate(765.96875 0)"/>
      <use xlink:href="#DejaVuSans-47" transform="translate(829.34375 0)"/>
     </g>
    </g>
    <g id="line2d_39">
     <path d="M 279.014141 392.132656 
L 289.014141 392.132656 
L 299.014141 392.132656 
" style="fill: none; stroke: #d62728; stroke-width: 1.5; stroke-linecap: square"/>
    </g>
    <g id="text_22">
     <!-- Tokyo → Oregon -->
     <g transform="translate(307.014141 395.632656) scale(0.1 -0.1)">
      <defs>
       <path id="DejaVuSans-4e" d="M 581 4863 
L 1159 4863 
L 1159 1991 
L 2875 3500 
L 3609 3500 
L 1753 1863 
L 3688 0 
L 2938 0 
L 1159 1709 
L 1159 0 
L 581 0 
L 581 4863 
z
" transform="scale(0.015625)"/>
      </defs>
      <use xlink:href="#DejaVuSans-37"/>
      <use xlink:href="#DejaVuSans-52" transform="translate(44.09375 0)"/>
      <use xlink:href="#DejaVuSans-4e" transform="translate(105.28125 0)"/>
      <use xlink:href="#DejaVuSans-5c" transform="translate(159.625 0)"/>
      <use xlink:href="#DejaVuSans-52" transform="translate(218.8125 0)"/>
      <use xlink:href="#DejaVuSans-3" transform="translate(280 0)"/>
      <use xlink:href="#DejaVuSans-c1c" transform="translate(311.78125 0)"/>
      <use xlink:href="#DejaVuSans-3" transform="translate(395.578125 0)"/>
      <use xlink:href="#DejaVuSans-32" transform="translate(427.359375 0)"/>
      <use xlink:href="#DejaVuSans-55" transform="translate(506.078125 0)"/>
      <use xlink:href="#DejaVuSans-48" transform="translate(544.984375 0)"/>
      <use xlink:href="#DejaVuSans-4a" transform="translate(606.515625 0)"/>
      <use xlink:href="#DejaVuSans-52" transform="translate(670 0)"/>
      <use xlink:href="#DejaVuSans-51" transform="translate(731.1875 0)"/>
     </g>
    </g>
    <g id="line2d_40">
     <path d="M 279.014141 407.133437 
L 289.014141 407.133437 
L 299.014141 407.133437 
" style="fill: none; stroke: #9467bd; stroke-width: 1.5; stroke-linecap: square"/>
    </g>
    <g id="text_23">
     <!-- Mumbai → Oregon -->
     <g transform="translate(307.014141 410.633437) scale(0.1 -0.1)">
      <use xlink:href="#DejaVuSans-30"/>
      <use xlink:href="#DejaVuSans-58" transform="translate(86.28125 0)"/>
      <use xlink:href="#DejaVuSans-50" transform="translate(149.65625 0)"/>
      <use xlink:href="#DejaVuSans-45" transform="translate(247.0625 0)"/>
      <use xlink:href="#DejaVuSans-44" transform="translate(310.546875 0)"/>
      <use xlink:href="#DejaVuSans-4c" transform="translate(371.828125 0)"/>
      <use xlink:href="#DejaVuSans-3" transform="translate(399.609375 0)"/>
      <use xlink:href="#DejaVuSans-c1c" transform="translate(431.390625 0)"/>
      <use xlink:href="#DejaVuSans-3" transform="translate(515.1875 0)"/>
      <use xlink:href="#DejaVuSans-32" transform="translate(546.96875 0)"/>
      <use xlink:href="#DejaVuSans-55" transform="translate(625.6875 0)"/>
      <use xlink:href="#DejaVuSans-48" transform="translate(664.59375 0)"/>
      <use xlink:href="#DejaVuSans-4a" transform="translate(726.125 0)"/>
      <use xlink:href="#DejaVuSans-52" transform="translate(789.609375 0)"/>
      <use xlink:href="#DejaVuSans-51" transform="translate(850.796875 0)"/>
     </g>
    </g>
   </g>
  </g>
 </g>
 <defs>
  <clipPath id="pfb0e307fc5">
   <rect x="44.103906" y="22.318125" width="589.237656" height="399.717656"/>
  </clipPath>
 </defs>
</svg>
