<?xml version="1.0" encoding="utf-8" standalone="no"?>
<!DOCTYPE svg PUBLIC "-//W3C//DTD SVG 1.1//EN"
  "http://www.w3.org/Graphics/SVG/1.1/DTD/svg11.dtd">
<svg xmlns:xlink="http://www.w3.org/1999/xlink" width="602.443041pt" height="381.035781pt" viewBox="0 0 602.443041 381.035781" xmlns="http://www.w3.org/2000/svg" version="1.1">
 <metadata>
  <rdf:RDF xmlns:dc="http://purl.org/dc/elements/1.1/" xmlns:cc="http://creativecommons.org/ns#" xmlns:rdf="http://www.w3.org/1999/02/22-rdf-syntax-ns#">
   <cc:Work>
    <dc:type rdf:resource="http://purl.org/dc/dcmitype/StillImage"/>
    <dc:date>2026-07-11T11:47:29.253519</dc:date>
    <dc:format>image/svg+xml</dc:format>
    <dc:creator>
     <cc:Agent>
      <dc:title>Matplotlib v3.11.0, https://matplotlib.org/</dc:title>
     </cc:Agent>
    </dc:creator>
   </cc:Work>
  </rdf:RDF>
 </metadata>
 <defs>
  <style type="text/css">*{stroke-linejoin: round; stroke-linecap: butt}</style>
 </defs>
 <g id="figure_1">
  <g id="patch_1">
   <path d="M 0 381.035781 
L 602.443041 381.035781 
L 602.443041 0 
L 0 0 
z
" style="fill: #ffffff"/>
  </g>
  <g id="axes_1">
   <g id="patch_2">
    <path d="M 53.650781 342.835781 
L 593.167984 342.835781 
L 593.167984 22.318125 
L 53.650781 22.318125 
z
" style="fill: #ffffff"/>
   </g>
   <g id="patch_3">
    <path d="M 78.17429 342.835781 
L 84.305168 342.835781 
L 84.305168 342.571606 
L 78.17429 342.571606 
z
" clip-path="url(#p96d250574c)" style="fill: #1f77b4"/>
   </g>
   <g id="patch_4">
    <path d="M 84.305168 342.835781 
L 90.436045 342.835781 
L 90.436045 342.835781 
L 84.305168 342.835781 
z
" clip-path="url(#p96d250574c)" style="fill: #1f77b4"/>
   </g>
   <g id="patch_5">
    <path d="M 90.436045 342.835781 
L 96.566922 342.835781 
L 96.566922 342.791752 
L 90.436045 342.791752 
z
" clip-path="url(#p96d250574c)" style="fill: #1f77b4"/>
   </g>
   <g id="patch_6">
    <path d="M 96.566922 342.835781 
L 102.6978 342.835781 
L 102.6978 342.835781 
L 96.566922 342.835781 
z
" clip-path="url(#p96d250574c)" style="fill: #1f77b4"/>
   </g>
   <g id="patch_7">
    <path d="M 102.6978 342.835781 
L 108.828677 342.835781 
L 108.828677 342.835781 
L 102.6978 342.835781 
z
" clip-path="url(#p96d250574c)" style="fill: #1f77b4"/>
   </g>
   <g id="patch_8">
    <path d="M 108.828677 342.835781 
L 114.959554 342.835781 
L 114.959554 342.835781 
L 108.828677 342.835781 
z
" clip-path="url(#p96d250574c)" style="fill: #1f77b4"/>
   </g>
   <g id="patch_9">
    <path d="M 114.959554 342.835781 
L 121.090432 342.835781 
L 121.090432 342.835781 
L 114.959554 342.835781 
z
" clip-path="url(#p96d250574c)" style="fill: #1f77b4"/>
   </g>
   <g id="patch_10">
    <path d="M 121.090432 342.835781 
L 127.221309 342.835781 
L 127.221309 342.835781 
L 121.090432 342.835781 
z
" clip-path="url(#p96d250574c)" style="fill: #1f77b4"/>
   </g>
   <g id="patch_11">
    <path d="M 127.221309 342.835781 
L 133.352186 342.835781 
L 133.352186 342.615635 
L 127.221309 342.615635 
z
" clip-path="url(#p96d250574c)" style="fill: #1f77b4"/>
   </g>
   <g id="patch_12">
    <path d="M 133.352186 342.835781 
L 139.483063 342.835781 
L 139.483063 340.326113 
L 133.352186 340.326113 
z
" clip-path="url(#p96d250574c)" style="fill: #1f77b4"/>
   </g>
   <g id="patch_13">
    <path d="M 139.483063 342.835781 
L 145.613941 342.835781 
L 145.613941 292.246153 
L 139.483063 292.246153 
z
" clip-path="url(#p96d250574c)" style="fill: #1f77b4"/>
   </g>
   <g id="patch_14">
    <path d="M 145.613941 342.835781 
L 151.744818 342.835781 
L 151.744818 330.507586 
L 145.613941 330.507586 
z
" clip-path="url(#p96d250574c)" style="fill: #1f77b4"/>
   </g>
   <g id="patch_15">
    <path d="M 151.744818 342.835781 
L 157.875695 342.835781 
L 157.875695 300.127392 
L 151.744818 300.127392 
z
" clip-path="url(#p96d250574c)" style="fill: #1f77b4"/>
   </g>
   <g id="patch_16">
    <path d="M 157.875695 342.835781 
L 164.006573 342.835781 
L 164.006573 341.382815 
L 157.875695 341.382815 
z
" clip-path="url(#p96d250574c)" style="fill: #1f77b4"/>
   </g>
   <g id="patch_17">
    <path d="M 164.006573 342.835781 
L 170.13745 342.835781 
L 170.13745 342.395489 
L 164.006573 342.395489 
z
" clip-path="url(#p96d250574c)" style="fill: #1f77b4"/>
   </g>
   <g id="patch_18">
    <path d="M 170.13745 342.835781 
L 176.268327 342.835781 
L 176.268327 324.211401 
L 170.13745 324.211401 
z
" clip-path="url(#p96d250574c)" style="fill: #1f77b4"/>
   </g>
   <g id="patch_19">
    <path d="M 176.268327 342.835781 
L 182.399205 342.835781 
L 182.399205 287.138758 
L 176.268327 287.138758 
z
" clip-path="url(#p96d250574c)" style="fill: #1f77b4"/>
   </g>
   <g id="patch_20">
    <path d="M 182.399205 342.835781 
L 188.530082 342.835781 
L 188.530082 100.454664 
L 182.399205 100.454664 
z
" clip-path="url(#p96d250574c)" style="fill: #1f77b4"/>
   </g>
   <g id="patch_21">
    <path d="M 188.530082 342.835781 
L 194.660959 342.835781 
L 194.660959 253.412339 
L 188.530082 253.412339 
z
" clip-path="url(#p96d250574c)" style="fill: #1f77b4"/>
   </g>
   <g id="patch_22">
    <path d="M 194.660959 342.835781 
L 200.791836 342.835781 
L 200.791836 277.144114 
L 194.660959 277.144114 
z
" clip-path="url(#p96d250574c)" style="fill: #1f77b4"/>
   </g>
   <g id="patch_23">
    <path d="M 200.791836 342.835781 
L 206.922714 342.835781 
L 206.922714 263.054749 
L 200.791836 263.054749 
z
" clip-path="url(#p96d250574c)" style="fill: #1f77b4"/>
   </g>
   <g id="patch_24">
    <path d="M 206.922714 342.835781 
L 213.053591 342.835781 
L 213.053591 285.905939 
L 206.922714 285.905939 
z
" clip-path="url(#p96d250574c)" style="fill: #1f77b4"/>
   </g>
   <g id="patch_25">
    <path d="M 213.053591 342.835781 
L 219.184468 342.835781 
L 219.184468 339.709703 
L 213.053591 339.709703 
z
" clip-path="url(#p96d250574c)" style="fill: #1f77b4"/>
   </g>
   <g id="patch_26">
    <path d="M 219.184468 342.835781 
L 225.315346 342.835781 
L 225.315346 334.382162 
L 219.184468 334.382162 
z
" clip-path="url(#p96d250574c)" style="fill: #1f77b4"/>
   </g>
   <g id="patch_27">
    <path d="M 225.315346 342.835781 
L 231.446223 342.835781 
L 231.446223 342.483547 
L 225.315346 342.483547 
z
" clip-path="url(#p96d250574c)" style="fill: #1f77b4"/>
   </g>
   <g id="patch_28">
    <path d="M 231.446223 342.835781 
L 237.5771 342.835781 
L 237.5771 342.791752 
L 231.446223 342.791752 
z
" clip-path="url(#p96d250574c)" style="fill: #1f77b4"/>
   </g>
   <g id="patch_29">
    <path d="M 237.5771 342.835781 
L 243.707978 342.835781 
L 243.707978 342.439518 
L 237.5771 342.439518 
z
" clip-path="url(#p96d250574c)" style="fill: #1f77b4"/>
   </g>
   <g id="patch_30">
    <path d="M 243.707978 342.835781 
L 249.838855 342.835781 
L 249.838855 316.770455 
L 243.707978 316.770455 
z
" clip-path="url(#p96d250574c)" style="fill: #1f77b4"/>
   </g>
   <g id="patch_31">
    <path d="M 249.838855 342.835781 
L 255.969732 342.835781 
L 255.969732 326.456894 
L 249.838855 326.456894 
z
" clip-path="url(#p96d250574c)" style="fill: #1f77b4"/>
   </g>
   <g id="patch_32">
    <path d="M 255.969732 342.835781 
L 262.10061 342.835781 
L 262.10061 317.607011 
L 255.969732 317.607011 
z
" clip-path="url(#p96d250574c)" style="fill: #1f77b4"/>
   </g>
   <g id="patch_33">
    <path d="M 262.10061 342.835781 
L 268.231487 342.835781 
L 268.231487 267.76588 
L 262.10061 267.76588 
z
" clip-path="url(#p96d250574c)" style="fill: #1f77b4"/>
   </g>
   <g id="patch_34">
    <path d="M 268.231487 342.835781 
L 274.362364 342.835781 
L 274.362364 326.148689 
L 268.231487 326.148689 
z
" clip-path="url(#p96d250574c)" style="fill: #1f77b4"/>
   </g>
   <g id="patch_35">
    <path d="M 274.362364 342.835781 
L 280.493241 342.835781 
L 280.493241 331.872494 
L 274.362364 331.872494 
z
" clip-path="url(#p96d250574c)" style="fill: #1f77b4"/>
   </g>
   <g id="patch_36">
    <path d="M 280.493241 342.835781 
L 286.624119 342.835781 
L 286.624119 339.401498 
L 280.493241 339.401498 
z
" clip-path="url(#p96d250574c)" style="fill: #1f77b4"/>
   </g>
   <g id="patch_37">
    <path d="M 286.624119 342.835781 
L 292.754996 342.835781 
L 292.754996 342.747723 
L 286.624119 342.747723 
z
" clip-path="url(#p96d250574c)" style="fill: #1f77b4"/>
   </g>
   <g id="patch_38">
    <path d="M 292.754996 342.835781 
L 298.885873 342.835781 
L 298.885873 336.627655 
L 292.754996 336.627655 
z
" clip-path="url(#p96d250574c)" style="fill: #1f77b4"/>
   </g>
   <g id="patch_39">
    <path d="M 298.885873 342.835781 
L 305.016751 342.835781 
L 305.016751 319.632357 
L 298.885873 319.632357 
z
" clip-path="url(#p96d250574c)" style="fill: #1f77b4"/>
   </g>
   <g id="patch_40">
    <path d="M 305.016751 342.835781 
L 311.147628 342.835781 
L 311.147628 323.374845 
L 305.016751 323.374845 
z
" clip-path="url(#p96d250574c)" style="fill: #1f77b4"/>
   </g>
   <g id="patch_41">
    <path d="M 311.147628 342.835781 
L 317.278505 342.835781 
L 317.278505 331.784435 
L 311.147628 331.784435 
z
" clip-path="url(#p96d250574c)" style="fill: #1f77b4"/>
   </g>
   <g id="patch_42">
    <path d="M 317.278505 342.835781 
L 323.409383 342.835781 
L 323.409383 340.50223 
L 317.278505 340.50223 
z
" clip-path="url(#p96d250574c)" style="fill: #1f77b4"/>
   </g>
   <g id="patch_43">
    <path d="M 323.409383 342.835781 
L 329.54026 342.835781 
L 329.54026 294.447616 
L 323.409383 294.447616 
z
" clip-path="url(#p96d250574c)" style="fill: #1f77b4"/>
   </g>
   <g id="patch_44">
    <path d="M 329.54026 342.835781 
L 335.671137 342.835781 
L 335.671137 310.958592 
L 329.54026 310.958592 
z
" clip-path="url(#p96d250574c)" style="fill: #1f77b4"/>
   </g>
   <g id="patch_45">
    <path d="M 335.671137 342.835781 
L 341.802014 342.835781 
L 341.802014 211.760652 
L 335.671137 211.760652 
z
" clip-path="url(#p96d250574c)" style="fill: #1f77b4"/>
   </g>
   <g id="patch_46">
    <path d="M 341.802014 342.835781 
L 347.932892 342.835781 
L 347.932892 205.90476 
L 341.802014 205.90476 
z
" clip-path="url(#p96d250574c)" style="fill: #1f77b4"/>
   </g>
   <g id="patch_47">
    <path d="M 347.932892 342.835781 
L 354.063769 342.835781 
L 354.063769 340.546259 
L 347.932892 340.546259 
z
" clip-path="url(#p96d250574c)" style="fill: #1f77b4"/>
   </g>
   <g id="patch_48">
    <path d="M 354.063769 342.835781 
L 360.194646 342.835781 
L 360.194646 340.194025 
L 354.063769 340.194025 
z
" clip-path="url(#p96d250574c)" style="fill: #1f77b4"/>
   </g>
   <g id="patch_49">
    <path d="M 360.194646 342.835781 
L 366.325524 342.835781 
L 366.325524 306.643723 
L 360.194646 306.643723 
z
" clip-path="url(#p96d250574c)" style="fill: #1f77b4"/>
   </g>
   <g id="patch_50">
    <path d="M 366.325524 342.835781 
L 372.456401 342.835781 
L 372.456401 296.737138 
L 366.325524 296.737138 
z
" clip-path="url(#p96d250574c)" style="fill: #1f77b4"/>
   </g>
   <g id="patch_51">
    <path d="M 372.456401 342.835781 
L 378.587278 342.835781 
L 378.587278 282.471656 
L 372.456401 282.471656 
z
" clip-path="url(#p96d250574c)" style="fill: #1f77b4"/>
   </g>
   <g id="patch_52">
    <path d="M 378.587278 342.835781 
L 384.718156 342.835781 
L 384.718156 307.524309 
L 378.587278 307.524309 
z
" clip-path="url(#p96d250574c)" style="fill: #1f77b4"/>
   </g>
   <g id="patch_53">
    <path d="M 384.718156 342.835781 
L 390.849033 342.835781 
L 390.849033 127.400576 
L 384.718156 127.400576 
z
" clip-path="url(#p96d250574c)" style="fill: #1f77b4"/>
   </g>
   <g id="patch_54">
    <path d="M 390.849033 342.835781 
L 396.97991 342.835781 
L 396.97991 292.114065 
L 390.849033 292.114065 
z
" clip-path="url(#p96d250574c)" style="fill: #1f77b4"/>
   </g>
   <g id="patch_55">
    <path d="M 396.97991 342.835781 
L 403.110787 342.835781 
L 403.110787 342.351459 
L 396.97991 342.351459 
z
" clip-path="url(#p96d250574c)" style="fill: #1f77b4"/>
   </g>
   <g id="patch_56">
    <path d="M 403.110787 342.835781 
L 409.241665 342.835781 
L 409.241665 342.615635 
L 403.110787 342.615635 
z
" clip-path="url(#p96d250574c)" style="fill: #1f77b4"/>
   </g>
   <g id="patch_57">
    <path d="M 409.241665 342.835781 
L 415.372542 342.835781 
L 415.372542 342.659664 
L 409.241665 342.659664 
z
" clip-path="url(#p96d250574c)" style="fill: #1f77b4"/>
   </g>
   <g id="patch_58">
    <path d="M 415.372542 342.835781 
L 421.503419 342.835781 
L 421.503419 342.791752 
L 415.372542 342.791752 
z
" clip-path="url(#p96d250574c)" style="fill: #1f77b4"/>
   </g>
   <g id="patch_59">
    <path d="M 421.503419 342.835781 
L 427.634297 342.835781 
L 427.634297 342.835781 
L 421.503419 342.835781 
z
" clip-path="url(#p96d250574c)" style="fill: #1f77b4"/>
   </g>
   <g id="patch_60">
    <path d="M 427.634297 342.835781 
L 433.765174 342.835781 
L 433.765174 339.049264 
L 427.634297 339.049264 
z
" clip-path="url(#p96d250574c)" style="fill: #1f77b4"/>
   </g>
   <g id="patch_61">
    <path d="M 433.765174 342.835781 
L 439.896051 342.835781 
L 439.896051 334.954542 
L 433.765174 334.954542 
z
" clip-path="url(#p96d250574c)" style="fill: #1f77b4"/>
   </g>
   <g id="patch_62">
    <path d="M 439.896051 342.835781 
L 446.026929 342.835781 
L 446.026929 342.791752 
L 439.896051 342.791752 
z
" clip-path="url(#p96d250574c)" style="fill: #1f77b4"/>
   </g>
   <g id="patch_63">
    <path d="M 446.026929 342.835781 
L 452.157806 342.835781 
L 452.157806 335.791098 
L 446.026929 335.791098 
z
" clip-path="url(#p96d250574c)" style="fill: #1f77b4"/>
   </g>
   <g id="patch_64">
    <path d="M 452.157806 342.835781 
L 458.288683 342.835781 
L 458.288683 37.580871 
L 452.157806 37.580871 
z
" clip-path="url(#p96d250574c)" style="fill: #1f77b4"/>
   </g>
   <g id="patch_65">
    <path d="M 458.288683 342.835781 
L 464.41956 342.835781 
L 464.41956 328.790445 
L 458.288683 328.790445 
z
" clip-path="url(#p96d250574c)" style="fill: #1f77b4"/>
   </g>
   <g id="patch_66">
    <path d="M 464.41956 342.835781 
L 470.550438 342.835781 
L 470.550438 341.911167 
L 464.41956 341.911167 
z
" clip-path="url(#p96d250574c)" style="fill: #1f77b4"/>
   </g>
   <g id="patch_67">
    <path d="M 470.550438 342.835781 
L 476.681315 342.835781 
L 476.681315 342.615635 
L 470.550438 342.615635 
z
" clip-path="url(#p96d250574c)" style="fill: #1f77b4"/>
   </g>
   <g id="patch_68">
    <path d="M 476.681315 342.835781 
L 482.812192 342.835781 
L 482.812192 342.791752 
L 476.681315 342.791752 
z
" clip-path="url(#p96d250574c)" style="fill: #1f77b4"/>
   </g>
   <g id="patch_69">
    <path d="M 482.812192 342.835781 
L 488.94307 342.835781 
L 488.94307 342.791752 
L 482.812192 342.791752 
z
" clip-path="url(#p96d250574c)" style="fill: #1f77b4"/>
   </g>
   <g id="patch_70">
    <path d="M 488.94307 342.835781 
L 495.073947 342.835781 
L 495.073947 342.835781 
L 488.94307 342.835781 
z
" clip-path="url(#p96d250574c)" style="fill: #1f77b4"/>
   </g>
   <g id="patch_71">
    <path d="M 495.073947 342.835781 
L 501.204824 342.835781 
L 501.204824 342.835781 
L 495.073947 342.835781 
z
" clip-path="url(#p96d250574c)" style="fill: #1f77b4"/>
   </g>
   <g id="patch_72">
    <path d="M 501.204824 342.835781 
L 507.335702 342.835781 
L 507.335702 341.955196 
L 501.204824 341.955196 
z
" clip-path="url(#p96d250574c)" style="fill: #1f77b4"/>
   </g>
   <g id="patch_73">
    <path d="M 507.335702 342.835781 
L 513.466579 342.835781 
L 513.466579 333.325459 
L 507.335702 333.325459 
z
" clip-path="url(#p96d250574c)" style="fill: #1f77b4"/>
   </g>
   <g id="patch_74">
    <path d="M 513.466579 342.835781 
L 519.597456 342.835781 
L 519.597456 297.397577 
L 513.466579 297.397577 
z
" clip-path="url(#p96d250574c)" style="fill: #1f77b4"/>
   </g>
   <g id="patch_75">
    <path d="M 519.597456 342.835781 
L 525.728333 342.835781 
L 525.728333 337.376152 
L 519.597456 337.376152 
z
" clip-path="url(#p96d250574c)" style="fill: #1f77b4"/>
   </g>
   <g id="patch_76">
    <path d="M 525.728333 342.835781 
L 531.859211 342.835781 
L 531.859211 342.835781 
L 525.728333 342.835781 
z
" clip-path="url(#p96d250574c)" style="fill: #1f77b4"/>
   </g>
   <g id="patch_77">
    <path d="M 531.859211 342.835781 
L 537.990088 342.835781 
L 537.990088 335.570952 
L 531.859211 335.570952 
z
" clip-path="url(#p96d250574c)" style="fill: #1f77b4"/>
   </g>
   <g id="patch_78">
    <path d="M 537.990088 342.835781 
L 544.120965 342.835781 
L 544.120965 342.659664 
L 537.990088 342.659664 
z
" clip-path="url(#p96d250574c)" style="fill: #1f77b4"/>
   </g>
   <g id="patch_79">
    <path d="M 544.120965 342.835781 
L 550.251843 342.835781 
L 550.251843 342.791752 
L 544.120965 342.791752 
z
" clip-path="url(#p96d250574c)" style="fill: #1f77b4"/>
   </g>
   <g id="patch_80">
    <path d="M 550.251843 342.835781 
L 556.38272 342.835781 
L 556.38272 320.07265 
L 550.251843 320.07265 
z
" clip-path="url(#p96d250574c)" style="fill: #1f77b4"/>
   </g>
   <g id="patch_81">
    <path d="M 556.38272 342.835781 
L 562.513597 342.835781 
L 562.513597 340.238054 
L 556.38272 340.238054 
z
" clip-path="url(#p96d250574c)" style="fill: #1f77b4"/>
   </g>
   <g id="patch_82">
    <path d="M 562.513597 342.835781 
L 568.644475 342.835781 
L 568.644475 340.678347 
L 562.513597 340.678347 
z
" clip-path="url(#p96d250574c)" style="fill: #1f77b4"/>
   </g>
   <g id="matplotlib.axis_1">
    <g id="xtick_1">
     <g id="line2d_1">
      <defs>
       <path id="m6bfac3e7dd" d="M 0 0 
L 0 3.5 
" style="stroke: #000000; stroke-width: 0.8"/>
      </defs>
      <g>
       <use xlink:href="#m6bfac3e7dd" x="125.94736" y="342.835781" style="stroke: #000000; stroke-width: 0.8"/>
      </g>
     </g>
     <g id="text_1">
      <!-- 115.5 -->
      <g transform="translate(111.633298 357.433437) scale(0.1 -0.1)">
       <defs>
        <path id="DejaVuSans-14" d="M 794 531 
L 1825 531 
L 1825 4091 
L 703 3866 
L 703 4441 
L 1819 4666 
L 2450 4666 
L 2450 531 
L 3481 531 
L 3481 0 
L 794 0 
L 794 531 
z
" transform="scale(0.015625)"/>
        <path id="DejaVuSans-18" d="M 691 4666 
L 3169 4666 
L 3169 4134 
L 1269 4134 
L 1269 2991 
Q 1406 3038 1543 3061 
Q 1681 3084 1819 3084 
Q 2600 3084 3056 2656 
Q 3513 2228 3513 1497 
Q 3513 744 3044 326 
Q 2575 -91 1722 -91 
Q 1428 -91 1123 -41 
Q 819 9 494 109 
L 494 744 
Q 775 591 1075 516 
Q 1375 441 1709 441 
Q 2250 441 2565 725 
Q 2881 1009 2881 1497 
Q 2881 1984 2565 2268 
Q 2250 2553 1709 2553 
Q 1456 2553 1204 2497 
Q 953 2441 691 2322 
L 691 4666 
z
" transform="scale(0.015625)"/>
        <path id="DejaVuSans-11" d="M 684 794 
L 1344 794 
L 1344 0 
L 684 0 
L 684 794 
z
" transform="scale(0.015625)"/>
       </defs>
       <use xlink:href="#DejaVuSans-14"/>
       <use xlink:href="#DejaVuSans-14" transform="translate(63.625 0)"/>
       <use xlink:href="#DejaVuSans-18" transform="translate(127.25 0)"/>
       <use xlink:href="#DejaVuSans-11" transform="translate(190.875 0)"/>
       <use xlink:href="#DejaVuSans-18" transform="translate(222.65625 0)"/>
      </g>
     </g>
    </g>
    <g id="xtick_2">
     <g id="line2d_2">
      <g>
       <use xlink:href="#m6bfac3e7dd" x="201.77763" y="342.835781" style="stroke: #000000; stroke-width: 0.8"/>
      </g>
     </g>
     <g id="text_2">
      <!-- 116.0 -->
      <g transform="translate(187.463567 357.433437) scale(0.1 -0.1)">
       <defs>
        <path id="DejaVuSans-19" d="M 2113 2584 
Q 1688 2584 1439 2293 
Q 1191 2003 1191 1497 
Q 1191 994 1439 701 
Q 1688 409 2113 409 
Q 2538 409 2786 701 
Q 3034 994 3034 1497 
Q 3034 2003 2786 2293 
Q 2538 2584 2113 2584 
z
M 3366 4563 
L 3366 3988 
Q 3128 4100 2886 4159 
Q 2644 4219 2406 4219 
Q 1781 4219 1451 3797 
Q 1122 3375 1075 2522 
Q 1259 2794 1537 2939 
Q 1816 3084 2150 3084 
Q 2853 3084 3261 2657 
Q 3669 2231 3669 1497 
Q 3669 778 3244 343 
Q 2819 -91 2113 -91 
Q 1303 -91 875 529 
Q 447 1150 447 2328 
Q 447 3434 972 4092 
Q 1497 4750 2381 4750 
Q 2619 4750 2861 4703 
Q 3103 4656 3366 4563 
z
" transform="scale(0.015625)"/>
        <path id="DejaVuSans-13" d="M 2034 4250 
Q 1547 4250 1301 3770 
Q 1056 3291 1056 2328 
Q 1056 1369 1301 889 
Q 1547 409 2034 409 
Q 2525 409 2770 889 
Q 3016 1369 3016 2328 
Q 3016 3291 2770 3770 
Q 2525 4250 2034 4250 
z
M 2034 4750 
Q 2819 4750 3233 4129 
Q 3647 3509 3647 2328 
Q 3647 1150 3233 529 
Q 2819 -91 2034 -91 
Q 1250 -91 836 529 
Q 422 1150 422 2328 
Q 422 3509 836 4129 
Q 1250 4750 2034 4750 
z
" transform="scale(0.015625)"/>
       </defs>
       <use xlink:href="#DejaVuSans-14"/>
       <use xlink:href="#DejaVuSans-14" transform="translate(63.625 0)"/>
       <use xlink:href="#DejaVuSans-19" transform="translate(127.25 0)"/>
       <use xlink:href="#DejaVuSans-11" transform="translate(190.875 0)"/>
       <use xlink:href="#DejaVuSans-13" transform="translate(222.65625 0)"/>
      </g>
     </g>
    </g>
    <g id="xtick_3">
     <g id="line2d_3">
      <g>
       <use xlink:href="#m6bfac3e7dd" x="277.6079" y="342.835781" style="stroke: #000000; stroke-width: 0.8"/>
      </g>
     </g>
     <g id="text_3">
      <!-- 116.5 -->
      <g transform="translate(263.293837 357.433437) scale(0.1 -0.1)">
       <use xlink:href="#DejaVuSans-14"/>
       <use xlink:href="#DejaVuSans-14" transform="translate(63.625 0)"/>
       <use xlink:href="#DejaVuSans-19" transform="translate(127.25 0)"/>
       <use xlink:href="#DejaVuSans-11" transform="translate(190.875 0)"/>
       <use xlink:href="#DejaVuSans-18" transform="translate(222.65625 0)"/>
      </g>
     </g>
    </g>
    <g id="xtick_4">
     <g id="line2d_4">
      <g>
       <use xlink:href="#m6bfac3e7dd" x="353.438169" y="342.835781" style="stroke: #000000; stroke-width: 0.8"/>
      </g>
     </g>
     <g id="text_4">
      <!-- 117.0 -->
      <g transform="translate(339.124107 357.433437) scale(0.1 -0.1)">
       <defs>
        <path id="DejaVuSans-1a" d="M 525 4666 
L 3525 4666 
L 3525 4397 
L 1831 0 
L 1172 0 
L 2766 4134 
L 525 4134 
L 525 4666 
z
" transform="scale(0.015625)"/>
       </defs>
       <use xlink:href="#DejaVuSans-14"/>
       <use xlink:href="#DejaVuSans-14" transform="translate(63.625 0)"/>
       <use xlink:href="#DejaVuSans-1a" transform="translate(127.25 0)"/>
       <use xlink:href="#DejaVuSans-11" transform="translate(190.875 0)"/>
       <use xlink:href="#DejaVuSans-13" transform="translate(222.65625 0)"/>
      </g>
     </g>
    </g>
    <g id="xtick_5">
     <g id="line2d_5">
      <g>
       <use xlink:href="#m6bfac3e7dd" x="429.268439" y="342.835781" style="stroke: #000000; stroke-width: 0.8"/>
      </g>
     </g>
     <g id="text_5">
      <!-- 117.5 -->
      <g transform="translate(414.954376 357.433437) scale(0.1 -0.1)">
       <use xlink:href="#DejaVuSans-14"/>
       <use xlink:href="#DejaVuSans-14" transform="translate(63.625 0)"/>
       <use xlink:href="#DejaVuSans-1a" transform="translate(127.25 0)"/>
       <use xlink:href="#DejaVuSans-11" transform="translate(190.875 0)"/>
       <use xlink:href="#DejaVuSans-18" transform="translate(222.65625 0)"/>
      </g>
     </g>
    </g>
    <g id="xtick_6">
     <g id="line2d_6">
      <g>
       <use xlink:href="#m6bfac3e7dd" x="505.098709" y="342.835781" style="stroke: #000000; stroke-width: 0.8"/>
      </g>
     </g>
     <g id="text_6">
      <!-- 118.0 -->
      <g transform="translate(490.784646 357.433437) scale(0.1 -0.1)">
       <defs>
        <path id="DejaVuSans-1b" d="M 2034 2216 
Q 1584 2216 1326 1975 
Q 1069 1734 1069 1313 
Q 1069 891 1326 650 
Q 1584 409 2034 409 
Q 2484 409 2743 651 
Q 3003 894 3003 1313 
Q 3003 1734 2745 1975 
Q 2488 2216 2034 2216 
z
M 1403 2484 
Q 997 2584 770 2862 
Q 544 3141 544 3541 
Q 544 4100 942 4425 
Q 1341 4750 2034 4750 
Q 2731 4750 3128 4425 
Q 3525 4100 3525 3541 
Q 3525 3141 3298 2862 
Q 3072 2584 2669 2484 
Q 3125 2378 3379 2068 
Q 3634 1759 3634 1313 
Q 3634 634 3220 271 
Q 2806 -91 2034 -91 
Q 1263 -91 848 271 
Q 434 634 434 1313 
Q 434 1759 690 2068 
Q 947 2378 1403 2484 
z
M 1172 3481 
Q 1172 3119 1398 2916 
Q 1625 2713 2034 2713 
Q 2441 2713 2670 2916 
Q 2900 3119 2900 3481 
Q 2900 3844 2670 4047 
Q 2441 4250 2034 4250 
Q 1625 4250 1398 4047 
Q 1172 3844 1172 3481 
z
" transform="scale(0.015625)"/>
       </defs>
       <use xlink:href="#DejaVuSans-14"/>
       <use xlink:href="#DejaVuSans-14" transform="translate(63.625 0)"/>
       <use xlink:href="#DejaVuSans-1b" transform="translate(127.25 0)"/>
       <use xlink:href="#DejaVuSans-11" transform="translate(190.875 0)"/>
       <use xlink:href="#DejaVuSans-13" transform="translate(222.65625 0)"/>
      </g>
     </g>
    </g>
    <g id="xtick_7">
     <g id="line2d_7">
      <g>
       <use xlink:href="#m6bfac3e7dd" x="580.928978" y="342.835781" style="stroke: #000000; stroke-width: 0.8"/>
      </g>
     </g>
     <g id="text_7">
      <!-- 118.5 -->
      <g transform="translate(566.614916 357.433437) scale(0.1 -0.1)">
       <use xlink:href="#DejaVuSans-14"/>
       <use xlink:href="#DejaVuSans-14" transform="translate(63.625 0)"/>
       <use xlink:href="#DejaVuSans-1b" transform="translate(127.25 0)"/>
       <use xlink:href="#DejaVuSans-11" transform="translate(190.875 0)"/>
       <use xlink:href="#DejaVuSans-18" transform="translate(222.65625 0)"/>
      </g>
     </g>
    </g>
    <g id="text_8">
     <!-- RTT (ms) -->
     <g transform="translate(301.313289 371.433437) scale(0.1 -0.1)">
      <defs>
       <path id="DejaVuSans-35" d="M 2841 2188 
Q 3044 2119 3236 1894 
Q 3428 1669 3622 1275 
L 4263 0 
L 3584 0 
L 2988 1197 
Q 2756 1666 2539 1819 
Q 2322 1972 1947 1972 
L 1259 1972 
L 1259 0 
L 628 0 
L 628 4666 
L 2053 4666 
Q 2853 4666 3247 4331 
Q 3641 3997 3641 3322 
Q 3641 2881 3436 2590 
Q 3231 2300 2841 2188 
z
M 1259 4147 
L 1259 2491 
L 2053 2491 
Q 2509 2491 2742 2702 
Q 2975 2913 2975 3322 
Q 2975 3731 2742 3939 
Q 2509 4147 2053 4147 
L 1259 4147 
z
" transform="scale(0.015625)"/>
       <path id="DejaVuSans-37" d="M -19 4666 
L 3928 4666 
L 3928 4134 
L 2272 4134 
L 2272 0 
L 1638 0 
L 1638 4134 
L -19 4134 
L -19 4666 
z
" transform="scale(0.015625)"/>
       <path id="DejaVuSans-3" transform="scale(0.015625)"/>
       <path id="DejaVuSans-b" d="M 1984 4856 
Q 1566 4138 1362 3434 
Q 1159 2731 1159 2009 
Q 1159 1288 1364 580 
Q 1569 -128 1984 -844 
L 1484 -844 
Q 1016 -109 783 600 
Q 550 1309 550 2009 
Q 550 2706 781 3412 
Q 1013 4119 1484 4856 
L 1984 4856 
z
" transform="scale(0.015625)"/>
       <path id="DejaVuSans-50" d="M 3328 2828 
Q 3544 3216 3844 3400 
Q 4144 3584 4550 3584 
Q 5097 3584 5394 3201 
Q 5691 2819 5691 2113 
L 5691 0 
L 5113 0 
L 5113 2094 
Q 5113 2597 4934 2840 
Q 4756 3084 4391 3084 
Q 3944 3084 3684 2787 
Q 3425 2491 3425 1978 
L 3425 0 
L 2847 0 
L 2847 2094 
Q 2847 2600 2669 2842 
Q 2491 3084 2119 3084 
Q 1678 3084 1418 2786 
Q 1159 2488 1159 1978 
L 1159 0 
L 581 0 
L 581 3500 
L 1159 3500 
L 1159 2956 
Q 1356 3278 1631 3431 
Q 1906 3584 2284 3584 
Q 2666 3584 2933 3390 
Q 3200 3197 3328 2828 
z
" transform="scale(0.015625)"/>
       <path id="DejaVuSans-56" d="M 2834 3397 
L 2834 2853 
Q 2591 2978 2328 3040 
Q 2066 3103 1784 3103 
Q 1356 3103 1142 2972 
Q 928 2841 928 2578 
Q 928 2378 1081 2264 
Q 1234 2150 1697 2047 
L 1894 2003 
Q 2506 1872 2764 1633 
Q 3022 1394 3022 966 
Q 3022 478 2636 193 
Q 2250 -91 1575 -91 
Q 1294 -91 989 -36 
Q 684 19 347 128 
L 347 722 
Q 666 556 975 473 
Q 1284 391 1588 391 
Q 1994 391 2212 530 
Q 2431 669 2431 922 
Q 2431 1156 2273 1281 
Q 2116 1406 1581 1522 
L 1381 1569 
Q 847 1681 609 1914 
Q 372 2147 372 2553 
Q 372 3047 722 3315 
Q 1072 3584 1716 3584 
Q 2034 3584 2315 3537 
Q 2597 3491 2834 3397 
z
" transform="scale(0.015625)"/>
       <path id="DejaVuSans-c" d="M 513 4856 
L 1013 4856 
Q 1481 4119 1714 3412 
Q 1947 2706 1947 2009 
Q 1947 1309 1714 600 
Q 1481 -109 1013 -844 
L 513 -844 
Q 928 -128 1133 580 
Q 1338 1288 1338 2009 
Q 1338 2731 1133 3434 
Q 928 4138 513 4856 
z
" transform="scale(0.015625)"/>
      </defs>
      <use xlink:href="#DejaVuSans-35"/>
      <use xlink:href="#DejaVuSans-37" transform="translate(62.203125 0)"/>
      <use xlink:href="#DejaVuSans-37" transform="translate(121.53125 0)"/>
      <use xlink:href="#DejaVuSans-3" transform="translate(182.609375 0)"/>
      <use xlink:href="#DejaVuSans-b" transform="translate(214.390625 0)"/>
      <use xlink:href="#DejaVuSans-50" transform="translate(253.40625 0)"/>
      <use xlink:href="#DejaVuSans-56" transform="translate(350.8125 0)"/>
      <use xlink:href="#DejaVuSans-c" transform="translate(402.90625 0)"/>
     </g>
    </g>
   </g>
   <g id="matplotlib.axis_2">
    <g id="ytick_1">
     <g id="line2d_8">
      <path d="M 53.650781 342.835781 
L 593.167984 342.835781 
" clip-path="url(#p96d250574c)" style="fill: none; stroke: #b0b0b0; stroke-opacity: 0.25; stroke-width: 0.8; stroke-linecap: square"/>
     </g>
     <g id="line2d_9">
      <defs>
       <path id="mff911848b3" d="M 0 0 
L -3.5 0 
" style="stroke: #000000; stroke-width: 0.8"/>
      </defs>
      <g>
       <use xlink:href="#mff911848b3" x="53.650781" y="342.835781" style="stroke: #000000; stroke-width: 0.8"/>
      </g>
     </g>
     <g id="text_9">
      <!-- 0 -->
      <g transform="translate(40.288281 346.634609) scale(0.1 -0.1)">
       <use xlink:href="#DejaVuSans-13"/>
      </g>
     </g>
    </g>
    <g id="ytick_2">
     <g id="line2d_10">
      <path d="M 53.650781 298.806514 
L 593.167984 298.806514 
" clip-path="url(#p96d250574c)" style="fill: none; stroke: #b0b0b0; stroke-opacity: 0.25; stroke-width: 0.8; stroke-linecap: square"/>
     </g>
     <g id="line2d_11">
      <g>
       <use xlink:href="#mff911848b3" x="53.650781" y="298.806514" style="stroke: #000000; stroke-width: 0.8"/>
      </g>
     </g>
     <g id="text_10">
      <!-- 1000 -->
      <g transform="translate(21.200781 302.605342) scale(0.1 -0.1)">
       <use xlink:href="#DejaVuSans-14"/>
       <use xlink:href="#DejaVuSans-13" transform="translate(63.625 0)"/>
       <use xlink:href="#DejaVuSans-13" transform="translate(127.25 0)"/>
       <use xlink:href="#DejaVuSans-13" transform="translate(190.875 0)"/>
      </g>
     </g>
    </g>
    <g id="ytick_3">
     <g id="line2d_12">
      <path d="M 53.650781 254.777246 
L 593.167984 254.777246 
" clip-path="url(#p96d250574c)" style="fill: none; stroke: #b0b0b0; stroke-opacity: 0.25; stroke-width: 0.8; stroke-linecap: square"/>
     </g>
     <g id="line2d_13">
      <g>
       <use xlink:href="#mff911848b3" x="53.650781" y="254.777246" style="stroke: #000000; stroke-width: 0.8"/>
      </g>
     </g>
     <g id="text_11">
      <!-- 2000 -->
      <g transform="translate(21.200781 258.576075) scale(0.1 -0.1)">
       <defs>
        <path id="DejaVuSans-15" d="M 1228 531 
L 3431 531 
L 3431 0 
L 469 0 
L 469 531 
Q 828 903 1448 1529 
Q 2069 2156 2228 2338 
Q 2531 2678 2651 2914 
Q 2772 3150 2772 3378 
Q 2772 3750 2511 3984 
Q 2250 4219 1831 4219 
Q 1534 4219 1204 4116 
Q 875 4013 500 3803 
L 500 4441 
Q 881 4594 1212 4672 
Q 1544 4750 1819 4750 
Q 2544 4750 2975 4387 
Q 3406 4025 3406 3419 
Q 3406 3131 3298 2873 
Q 3191 2616 2906 2266 
Q 2828 2175 2409 1742 
Q 1991 1309 1228 531 
z
" transform="scale(0.015625)"/>
       </defs>
       <use xlink:href="#DejaVuSans-15"/>
       <use xlink:href="#DejaVuSans-13" transform="translate(63.625 0)"/>
       <use xlink:href="#DejaVuSans-13" transform="translate(127.25 0)"/>
       <use xlink:href="#DejaVuSans-13" transform="translate(190.875 0)"/>
      </g>
     </g>
    </g>
    <g id="ytick_4">
     <g id="line2d_14">
      <path d="M 53.650781 210.747979 
L 593.167984 210.747979 
" clip-path="url(#p96d250574c)" style="fill: none; stroke: #b0b0b0; stroke-opacity: 0.25; stroke-width: 0.8; stroke-linecap: square"/>
     </g>
     <g id="line2d_15">
      <g>
       <use xlink:href="#mff911848b3" x="53.650781" y="210.747979" style="stroke: #000000; stroke-width: 0.8"/>
      </g>
     </g>
     <g id="text_12">
      <!-- 3000 -->
      <g transform="translate(21.200781 214.546807) scale(0.1 -0.1)">
       <defs>
        <path id="DejaVuSans-16" d="M 2597 2516 
Q 3050 2419 3304 2112 
Q 3559 1806 3559 1356 
Q 3559 666 3084 287 
Q 2609 -91 1734 -91 
Q 1441 -91 1130 -33 
Q 819 25 488 141 
L 488 750 
Q 750 597 1062 519 
Q 1375 441 1716 441 
Q 2309 441 2620 675 
Q 2931 909 2931 1356 
Q 2931 1769 2642 2001 
Q 2353 2234 1838 2234 
L 1294 2234 
L 1294 2753 
L 1863 2753 
Q 2328 2753 2575 2939 
Q 2822 3125 2822 3475 
Q 2822 3834 2567 4026 
Q 2313 4219 1838 4219 
Q 1578 4219 1281 4162 
Q 984 4106 628 3988 
L 628 4550 
Q 988 4650 1302 4700 
Q 1616 4750 1894 4750 
Q 2613 4750 3031 4423 
Q 3450 4097 3450 3541 
Q 3450 3153 3228 2886 
Q 3006 2619 2597 2516 
z
" transform="scale(0.015625)"/>
       </defs>
       <use xlink:href="#DejaVuSans-16"/>
       <use xlink:href="#DejaVuSans-13" transform="translate(63.625 0)"/>
       <use xlink:href="#DejaVuSans-13" transform="translate(127.25 0)"/>
       <use xlink:href="#DejaVuSans-13" transform="translate(190.875 0)"/>
      </g>
     </g>
    </g>
    <g id="ytick_5">
     <g id="line2d_16">
      <path d="M 53.650781 166.718712 
L 593.167984 166.718712 
" clip-path="url(#p96d250574c)" style="fill: none; stroke: #b0b0b0; stroke-opacity: 0.25; stroke-width: 0.8; stroke-linecap: square"/>
     </g>
     <g id="line2d_17">
      <g>
       <use xlink:href="#mff911848b3" x="53.650781" y="166.718712" style="stroke: #000000; stroke-width: 0.8"/>
      </g>
     </g>
     <g id="text_13">
      <!-- 4000 -->
      <g transform="translate(21.200781 170.51754) scale(0.1 -0.1)">
       <defs>
        <path id="DejaVuSans-17" d="M 2419 4116 
L 825 1625 
L 2419 1625 
L 2419 4116 
z
M 2253 4666 
L 3047 4666 
L 3047 1625 
L 3713 1625 
L 3713 1100 
L 3047 1100 
L 3047 0 
L 2419 0 
L 2419 1100 
L 313 1100 
L 313 1709 
L 2253 4666 
z
" transform="scale(0.015625)"/>
       </defs>
       <use xlink:href="#DejaVuSans-17"/>
       <use xlink:href="#DejaVuSans-13" transform="translate(63.625 0)"/>
       <use xlink:href="#DejaVuSans-13" transform="translate(127.25 0)"/>
       <use xlink:href="#DejaVuSans-13" transform="translate(190.875 0)"/>
      </g>
     </g>
    </g>
    <g id="ytick_6">
     <g id="line2d_18">
      <path d="M 53.650781 122.689444 
L 593.167984 122.689444 
" clip-path="url(#p96d250574c)" style="fill: none; stroke: #b0b0b0; stroke-opacity: 0.25; stroke-width: 0.8; stroke-linecap: square"/>
     </g>
     <g id="line2d_19">
      <g>
       <use xlink:href="#mff911848b3" x="53.650781" y="122.689444" style="stroke: #000000; stroke-width: 0.8"/>
      </g>
     </g>
     <g id="text_14">
      <!-- 5000 -->
      <g transform="translate(21.200781 126.488272) scale(0.1 -0.1)">
       <use xlink:href="#DejaVuSans-18"/>
       <use xlink:href="#DejaVuSans-13" transform="translate(63.625 0)"/>
       <use xlink:href="#DejaVuSans-13" transform="translate(127.25 0)"/>
       <use xlink:href="#DejaVuSans-13" transform="translate(190.875 0)"/>
      </g>
     </g>
    </g>
    <g id="ytick_7">
     <g id="line2d_20">
      <path d="M 53.650781 78.660177 
L 593.167984 78.660177 
" clip-path="url(#p96d250574c)" style="fill: none; stroke: #b0b0b0; stroke-opacity: 0.25; stroke-width: 0.8; stroke-linecap: square"/>
     </g>
     <g id="line2d_21">
      <g>
       <use xlink:href="#mff911848b3" x="53.650781" y="78.660177" style="stroke: #000000; stroke-width: 0.8"/>
      </g>
     </g>
     <g id="text_15">
      <!-- 6000 -->
      <g transform="translate(21.200781 82.459005) scale(0.1 -0.1)">
       <use xlink:href="#DejaVuSans-19"/>
       <use xlink:href="#DejaVuSans-13" transform="translate(63.625 0)"/>
       <use xlink:href="#DejaVuSans-13" transform="translate(127.25 0)"/>
       <use xlink:href="#DejaVuSans-13" transform="translate(190.875 0)"/>
      </g>
     </g>
    </g>
    <g id="ytick_8">
     <g id="line2d_22">
      <path d="M 53.650781 34.63091 
L 593.167984 34.63091 
" clip-path="url(#p96d250574c)" style="fill: none; stroke: #b0b0b0; stroke-opacity: 0.25; stroke-width: 0.8; stroke-linecap: square"/>
     </g>
     <g id="line2d_23">
      <g>
       <use xlink:href="#mff911848b3" x="53.650781" y="34.63091" style="stroke: #000000; stroke-width: 0.8"/>
      </g>
     </g>
     <g id="text_16">
      <!-- 7000 -->
      <g transform="translate(21.200781 38.429738) scale(0.1 -0.1)">
       <use xlink:href="#DejaVuSans-1a"/>
       <use xlink:href="#DejaVuSans-13" transform="translate(63.625 0)"/>
       <use xlink:href="#DejaVuSans-13" transform="translate(127.25 0)"/>
       <use xlink:href="#DejaVuSans-13" transform="translate(190.875 0)"/>
      </g>
     </g>
    </g>
    <g id="text_17">
     <!-- Observation count -->
     <g transform="translate(14.798438 228.719922) rotate(-90) scale(0.1 -0.1)">
      <defs>
       <path id="DejaVuSans-32" d="M 2522 4238 
Q 1834 4238 1429 3725 
Q 1025 3213 1025 2328 
Q 1025 1447 1429 934 
Q 1834 422 2522 422 
Q 3209 422 3611 934 
Q 4013 1447 4013 2328 
Q 4013 3213 3611 3725 
Q 3209 4238 2522 4238 
z
M 2522 4750 
Q 3503 4750 4090 4092 
Q 4678 3434 4678 2328 
Q 4678 1225 4090 567 
Q 3503 -91 2522 -91 
Q 1538 -91 948 565 
Q 359 1222 359 2328 
Q 359 3434 948 4092 
Q 1538 4750 2522 4750 
z
" transform="scale(0.015625)"/>
       <path id="DejaVuSans-45" d="M 3116 1747 
Q 3116 2381 2855 2742 
Q 2594 3103 2138 3103 
Q 1681 3103 1420 2742 
Q 1159 2381 1159 1747 
Q 1159 1113 1420 752 
Q 1681 391 2138 391 
Q 2594 391 2855 752 
Q 3116 1113 3116 1747 
z
M 1159 2969 
Q 1341 3281 1617 3432 
Q 1894 3584 2278 3584 
Q 2916 3584 3314 3078 
Q 3713 2572 3713 1747 
Q 3713 922 3314 415 
Q 2916 -91 2278 -91 
Q 1894 -91 1617 61 
Q 1341 213 1159 525 
L 1159 0 
L 581 0 
L 581 4863 
L 1159 4863 
L 1159 2969 
z
" transform="scale(0.015625)"/>
       <path id="DejaVuSans-48" d="M 3597 1894 
L 3597 1613 
L 953 1613 
Q 991 1019 1311 708 
Q 1631 397 2203 397 
Q 2534 397 2845 478 
Q 3156 559 3463 722 
L 3463 178 
Q 3153 47 2828 -22 
Q 2503 -91 2169 -91 
Q 1331 -91 842 396 
Q 353 884 353 1716 
Q 353 2575 817 3079 
Q 1281 3584 2069 3584 
Q 2775 3584 3186 3129 
Q 3597 2675 3597 1894 
z
M 3022 2063 
Q 3016 2534 2758 2815 
Q 2500 3097 2075 3097 
Q 1594 3097 1305 2825 
Q 1016 2553 972 2059 
L 3022 2063 
z
" transform="scale(0.015625)"/>
       <path id="DejaVuSans-55" d="M 2631 2963 
Q 2534 3019 2420 3045 
Q 2306 3072 2169 3072 
Q 1681 3072 1420 2755 
Q 1159 2438 1159 1844 
L 1159 0 
L 581 0 
L 581 3500 
L 1159 3500 
L 1159 2956 
Q 1341 3275 1631 3429 
Q 1922 3584 2338 3584 
Q 2397 3584 2469 3576 
Q 2541 3569 2628 3553 
L 2631 2963 
z
" transform="scale(0.015625)"/>
       <path id="DejaVuSans-59" d="M 191 3500 
L 800 3500 
L 1894 563 
L 2988 3500 
L 3597 3500 
L 2284 0 
L 1503 0 
L 191 3500 
z
" transform="scale(0.015625)"/>
       <path id="DejaVuSans-44" d="M 2194 1759 
Q 1497 1759 1228 1600 
Q 959 1441 959 1056 
Q 959 750 1161 570 
Q 1363 391 1709 391 
Q 2188 391 2477 730 
Q 2766 1069 2766 1631 
L 2766 1759 
L 2194 1759 
z
M 3341 1997 
L 3341 0 
L 2766 0 
L 2766 531 
Q 2569 213 2275 61 
Q 1981 -91 1556 -91 
Q 1019 -91 701 211 
Q 384 513 384 1019 
Q 384 1609 779 1909 
Q 1175 2209 1959 2209 
L 2766 2209 
L 2766 2266 
Q 2766 2663 2505 2880 
Q 2244 3097 1772 3097 
Q 1472 3097 1187 3025 
Q 903 2953 641 2809 
L 641 3341 
Q 956 3463 1253 3523 
Q 1550 3584 1831 3584 
Q 2591 3584 2966 3190 
Q 3341 2797 3341 1997 
z
" transform="scale(0.015625)"/>
       <path id="DejaVuSans-57" d="M 1172 4494 
L 1172 3500 
L 2356 3500 
L 2356 3053 
L 1172 3053 
L 1172 1153 
Q 1172 725 1289 603 
Q 1406 481 1766 481 
L 2356 481 
L 2356 0 
L 1766 0 
Q 1100 0 847 248 
Q 594 497 594 1153 
L 594 3053 
L 172 3053 
L 172 3500 
L 594 3500 
L 594 4494 
L 1172 4494 
z
" transform="scale(0.015625)"/>
       <path id="DejaVuSans-4c" d="M 603 3500 
L 1178 3500 
L 1178 0 
L 603 0 
L 603 3500 
z
M 603 4863 
L 1178 4863 
L 1178 4134 
L 603 4134 
L 603 4863 
z
" transform="scale(0.015625)"/>
       <path id="DejaVuSans-52" d="M 1959 3097 
Q 1497 3097 1228 2736 
Q 959 2375 959 1747 
Q 959 1119 1226 758 
Q 1494 397 1959 397 
Q 2419 397 2687 759 
Q 2956 1122 2956 1747 
Q 2956 2369 2687 2733 
Q 2419 3097 1959 3097 
z
M 1959 3584 
Q 2709 3584 3137 3096 
Q 3566 2609 3566 1747 
Q 3566 888 3137 398 
Q 2709 -91 1959 -91 
Q 1206 -91 779 398 
Q 353 888 353 1747 
Q 353 2609 779 3096 
Q 1206 3584 1959 3584 
z
" transform="scale(0.015625)"/>
       <path id="DejaVuSans-51" d="M 3513 2113 
L 3513 0 
L 2938 0 
L 2938 2094 
Q 2938 2591 2744 2837 
Q 2550 3084 2163 3084 
Q 1697 3084 1428 2787 
Q 1159 2491 1159 1978 
L 1159 0 
L 581 0 
L 581 3500 
L 1159 3500 
L 1159 2956 
Q 1366 3272 1645 3428 
Q 1925 3584 2291 3584 
Q 2894 3584 3203 3211 
Q 3513 2838 3513 2113 
z
" transform="scale(0.015625)"/>
       <path id="DejaVuSans-46" d="M 3122 3366 
L 3122 2828 
Q 2878 2963 2633 3030 
Q 2388 3097 2138 3097 
Q 1578 3097 1268 2742 
Q 959 2388 959 1747 
Q 959 1106 1268 751 
Q 1578 397 2138 397 
Q 2388 397 2633 464 
Q 2878 531 3122 666 
L 3122 134 
Q 2881 22 2623 -34 
Q 2366 -91 2075 -91 
Q 1284 -91 818 406 
Q 353 903 353 1747 
Q 353 2603 823 3093 
Q 1294 3584 2113 3584 
Q 2378 3584 2631 3529 
Q 2884 3475 3122 3366 
z
" transform="scale(0.015625)"/>
       <path id="DejaVuSans-58" d="M 544 1381 
L 544 3500 
L 1119 3500 
L 1119 1403 
Q 1119 906 1312 657 
Q 1506 409 1894 409 
Q 2359 409 2629 706 
Q 2900 1003 2900 1516 
L 2900 3500 
L 3475 3500 
L 3475 0 
L 2900 0 
L 2900 538 
Q 2691 219 2414 64 
Q 2138 -91 1772 -91 
Q 1169 -91 856 284 
Q 544 659 544 1381 
z
M 1991 3584 
L 1991 3584 
z
" transform="scale(0.015625)"/>
      </defs>
      <use xlink:href="#DejaVuSans-32"/>
      <use xlink:href="#DejaVuSans-45" transform="translate(78.71875 0)"/>
      <use xlink:href="#DejaVuSans-56" transform="translate(142.203125 0)"/>
      <use xlink:href="#DejaVuSans-48" transform="translate(194.296875 0)"/>
      <use xlink:href="#DejaVuSans-55" transform="translate(255.828125 0)"/>
      <use xlink:href="#DejaVuSans-59" transform="translate(296.9375 0)"/>
      <use xlink:href="#DejaVuSans-44" transform="translate(356.125 0)"/>
      <use xlink:href="#DejaVuSans-57" transform="translate(417.40625 0)"/>
      <use xlink:href="#DejaVuSans-4c" transform="translate(456.609375 0)"/>
      <use xlink:href="#DejaVuSans-52" transform="translate(484.390625 0)"/>
      <use xlink:href="#DejaVuSans-51" transform="translate(545.578125 0)"/>
      <use xlink:href="#DejaVuSans-3" transform="translate(608.953125 0)"/>
      <use xlink:href="#DejaVuSans-46" transform="translate(640.734375 0)"/>
      <use xlink:href="#DejaVuSans-52" transform="translate(695.71875 0)"/>
      <use xlink:href="#DejaVuSans-58" transform="translate(756.90625 0)"/>
      <use xlink:href="#DejaVuSans-51" transform="translate(820.28125 0)"/>
      <use xlink:href="#DejaVuSans-57" transform="translate(883.65625 0)"/>
     </g>
    </g>
   </g>
   <g id="line2d_24">
    <path d="M 340.395363 342.835781 
L 340.395363 22.318125 
" clip-path="url(#p96d250574c)" style="fill: none; stroke-dasharray: 5.18,2.24; stroke-dashoffset: 0; stroke: #1f77b4; stroke-width: 1.4"/>
   </g>
   <g id="line2d_25">
    <path d="M 458.387263 342.835781 
L 458.387263 22.318125 
" clip-path="url(#p96d250574c)" style="fill: none; stroke-dasharray: 1.4,2.31; stroke-dashoffset: 0; stroke: #1f77b4; stroke-width: 1.4"/>
   </g>
   <g id="line2d_26">
    <path d="M 553.32676 342.835781 
L 553.32676 22.318125 
" clip-path="url(#p96d250574c)" style="fill: none; stroke-dasharray: 7.68,1.92,1.2,1.92; stroke-dashoffset: 0; stroke: #1f77b4; stroke-width: 1.2"/>
   </g>
   <g id="patch_83">
    <path d="M 53.650781 342.835781 
L 53.650781 22.318125 
" style="fill: none; stroke: #000000; stroke-width: 0.8; stroke-linejoin: miter; stroke-linecap: square"/>
   </g>
   <g id="patch_84">
    <path d="M 593.167984 342.835781 
L 593.167984 22.318125 
" style="fill: none; stroke: #000000; stroke-width: 0.8; stroke-linejoin: miter; stroke-linecap: square"/>
   </g>
   <g id="patch_85">
    <path d="M 53.650781 342.835781 
L 593.167984 342.835781 
" style="fill: none; stroke: #000000; stroke-width: 0.8; stroke-linejoin: miter; stroke-linecap: square"/>
   </g>
   <g id="patch_86">
    <path d="M 53.650781 22.318125 
L 593.167984 22.318125 
" style="fill: none; stroke: #000000; stroke-width: 0.8; stroke-linejoin: miter; stroke-linecap: square"/>
   </g>
   <g id="text_18">
    <!-- RTT Distribution: Oregon → Ireland -->
    <g transform="translate(219.990008 16.318125) scale(0.12 -0.12)">
     <defs>
      <path id="DejaVuSans-27" d="M 1259 4147 
L 1259 519 
L 2022 519 
Q 2988 519 3436 956 
Q 3884 1394 3884 2338 
Q 3884 3275 3436 3711 
Q 2988 4147 2022 4147 
L 1259 4147 
z
M 628 4666 
L 1925 4666 
Q 3281 4666 3915 4102 
Q 4550 3538 4550 2338 
Q 4550 1131 3912 565 
Q 3275 0 1925 0 
L 628 0 
L 628 4666 
z
" transform="scale(0.015625)"/>
      <path id="DejaVuSans-1d" d="M 750 794 
L 1409 794 
L 1409 0 
L 750 0 
L 750 794 
z
M 750 3309 
L 1409 3309 
L 1409 2516 
L 750 2516 
L 750 3309 
z
" transform="scale(0.015625)"/>
      <path id="DejaVuSans-4a" d="M 2906 1791 
Q 2906 2416 2648 2759 
Q 2391 3103 1925 3103 
Q 1463 3103 1205 2759 
Q 947 2416 947 1791 
Q 947 1169 1205 825 
Q 1463 481 1925 481 
Q 2391 481 2648 825 
Q 2906 1169 2906 1791 
z
M 3481 434 
Q 3481 -459 3084 -895 
Q 2688 -1331 1869 -1331 
Q 1566 -1331 1297 -1286 
Q 1028 -1241 775 -1147 
L 775 -588 
Q 1028 -725 1275 -790 
Q 1522 -856 1778 -856 
Q 2344 -856 2625 -561 
Q 2906 -266 2906 331 
L 2906 616 
Q 2728 306 2450 153 
Q 2172 0 1784 0 
Q 1141 0 747 490 
Q 353 981 353 1791 
Q 353 2603 747 3093 
Q 1141 3584 1784 3584 
Q 2172 3584 2450 3431 
Q 2728 3278 2906 2969 
L 2906 3500 
L 3481 3500 
L 3481 434 
z
" transform="scale(0.015625)"/>
      <path id="DejaVuSans-c1c" d="M 5050 2147 
L 5050 1866 
L 3822 638 
L 3447 1013 
L 4175 1741 
L 366 1741 
L 366 2272 
L 4175 2272 
L 3447 3000 
L 3822 3375 
L 5050 2147 
z
" transform="scale(0.015625)"/>
      <path id="DejaVuSans-2c" d="M 628 4666 
L 1259 4666 
L 1259 0 
L 628 0 
L 628 4666 
z
" transform="scale(0.015625)"/>
      <path id="DejaVuSans-4f" d="M 603 4863 
L 1178 4863 
L 1178 0 
L 603 0 
L 603 4863 
z
" transform="scale(0.015625)"/>
      <path id="DejaVuSans-47" d="M 2906 2969 
L 2906 4863 
L 3481 4863 
L 3481 0 
L 2906 0 
L 2906 525 
Q 2725 213 2448 61 
Q 2172 -91 1784 -91 
Q 1150 -91 751 415 
Q 353 922 353 1747 
Q 353 2572 751 3078 
Q 1150 3584 1784 3584 
Q 2172 3584 2448 3432 
Q 2725 3281 2906 2969 
z
M 947 1747 
Q 947 1113 1208 752 
Q 1469 391 1925 391 
Q 2381 391 2643 752 
Q 2906 1113 2906 1747 
Q 2906 2381 2643 2742 
Q 2381 3103 1925 3103 
Q 1469 3103 1208 2742 
Q 947 2381 947 1747 
z
" transform="scale(0.015625)"/>
     </defs>
     <use xlink:href="#DejaVuSans-35"/>
     <use xlink:href="#DejaVuSans-37" transform="translate(62.203125 0)"/>
     <use xlink:href="#DejaVuSans-37" transform="translate(121.53125 0)"/>
     <use xlink:href="#DejaVuSans-3" transform="translate(182.609375 0)"/>
     <use xlink:href="#DejaVuSans-27" transform="translate(214.390625 0)"/>
     <use xlink:href="#DejaVuSans-4c" transform="translate(291.390625 0)"/>
     <use xlink:href="#DejaVuSans-56" transform="translate(319.171875 0)"/>
     <use xlink:href="#DejaVuSans-57" transform="translate(371.265625 0)"/>
     <use xlink:href="#DejaVuSans-55" transform="translate(410.46875 0)"/>
     <use xlink:href="#DejaVuSans-4c" transform="translate(451.578125 0)"/>
     <use xlink:href="#DejaVuSans-45" transform="translate(479.359375 0)"/>
     <use xlink:href="#DejaVuSans-58" transform="translate(542.84375 0)"/>
     <use xlink:href="#DejaVuSans-57" transform="translate(606.21875 0)"/>
     <use xlink:href="#DejaVuSans-4c" transform="translate(645.421875 0)"/>
     <use xlink:href="#DejaVuSans-52" transform="translate(673.203125 0)"/>
     <use xlink:href="#DejaVuSans-51" transform="translate(734.390625 0)"/>
     <use xlink:href="#DejaVuSans-1d" transform="translate(797.765625 0)"/>
     <use xlink:href="#DejaVuSans-3" transform="translate(831.453125 0)"/>
     <use xlink:href="#DejaVuSans-32" transform="translate(863.234375 0)"/>
     <use xlink:href="#DejaVuSans-55" transform="translate(941.953125 0)"/>
     <use xlink:href="#DejaVuSans-48" transform="translate(980.859375 0)"/>
     <use xlink:href="#DejaVuSans-4a" transform="translate(1042.390625 0)"/>
     <use xlink:href="#DejaVuSans-52" transform="translate(1105.875 0)"/>
     <use xlink:href="#DejaVuSans-51" transform="translate(1167.0625 0)"/>
     <use xlink:href="#DejaVuSans-3" transform="translate(1230.4375 0)"/>
     <use xlink:href="#DejaVuSans-c1c" transform="translate(1262.21875 0)"/>
     <use xlink:href="#DejaVuSans-3" transform="translate(1346.015625 0)"/>
     <use xlink:href="#DejaVuSans-2c" transform="translate(1377.796875 0)"/>
     <use xlink:href="#DejaVuSans-55" transform="translate(1407.296875 0)"/>
     <use xlink:href="#DejaVuSans-48" transform="translate(1446.203125 0)"/>
     <use xlink:href="#DejaVuSans-4f" transform="translate(1507.734375 0)"/>
     <use xlink:href="#DejaVuSans-44" transform="translate(1535.515625 0)"/>
     <use xlink:href="#DejaVuSans-51" transform="translate(1596.796875 0)"/>
     <use xlink:href="#DejaVuSans-47" transform="translate(1660.171875 0)"/>
    </g>
   </g>
   <g id="legend_1">
    <g id="patch_87">
     <path d="M 60.650781 75.320469 
L 196.878906 75.320469 
Q 198.878906 75.320469 198.878906 73.320469 
L 198.878906 29.318125 
Q 198.878906 27.318125 196.878906 27.318125 
L 60.650781 27.318125 
Q 58.650781 27.318125 58.650781 29.318125 
L 58.650781 73.320469 
Q 58.650781 75.320469 60.650781 75.320469 
z
" style="fill: #ffffff; opacity: 0.8; stroke: #cccccc; stroke-linejoin: miter"/>
    </g>
    <g id="line2d_27">
     <path d="M 62.650781 35.416562 
L 72.650781 35.416562 
L 82.650781 35.416562 
" style="fill: none; stroke-dasharray: 5.18,2.24; stroke-dashoffset: 0; stroke: #1f77b4; stroke-width: 1.4"/>
    </g>
    <g id="text_19">
     <!-- Median = 116.91 ms -->
     <g transform="translate(90.650781 38.916562) scale(0.1 -0.1)">
      <defs>
       <path id="DejaVuSans-30" d="M 628 4666 
L 1569 4666 
L 2759 1491 
L 3956 4666 
L 4897 4666 
L 4897 0 
L 4281 0 
L 4281 4097 
L 3078 897 
L 2444 897 
L 1241 4097 
L 1241 0 
L 628 0 
L 628 4666 
z
" transform="scale(0.015625)"/>
       <path id="DejaVuSans-20" d="M 678 2906 
L 4684 2906 
L 4684 2381 
L 678 2381 
L 678 2906 
z
M 678 1631 
L 4684 1631 
L 4684 1100 
L 678 1100 
L 678 1631 
z
" transform="scale(0.015625)"/>
       <path id="DejaVuSans-1c" d="M 703 97 
L 703 672 
Q 941 559 1184 500 
Q 1428 441 1663 441 
Q 2288 441 2617 861 
Q 2947 1281 2994 2138 
Q 2813 1869 2534 1725 
Q 2256 1581 1919 1581 
Q 1219 1581 811 2004 
Q 403 2428 403 3163 
Q 403 3881 828 4315 
Q 1253 4750 1959 4750 
Q 2769 4750 3195 4129 
Q 3622 3509 3622 2328 
Q 3622 1225 3098 567 
Q 2575 -91 1691 -91 
Q 1453 -91 1209 -44 
Q 966 3 703 97 
z
M 1959 2075 
Q 2384 2075 2632 2365 
Q 2881 2656 2881 3163 
Q 2881 3666 2632 3958 
Q 2384 4250 1959 4250 
Q 1534 4250 1286 3958 
Q 1038 3666 1038 3163 
Q 1038 2656 1286 2365 
Q 1534 2075 1959 2075 
z
" transform="scale(0.015625)"/>
      </defs>
      <use xlink:href="#DejaVuSans-30"/>
      <use xlink:href="#DejaVuSans-48" transform="translate(86.28125 0)"/>
      <use xlink:href="#DejaVuSans-47" transform="translate(147.8125 0)"/>
      <use xlink:href="#DejaVuSans-4c" transform="translate(211.296875 0)"/>
      <use xlink:href="#DejaVuSans-44" transform="translate(239.078125 0)"/>
      <use xlink:href="#DejaVuSans-51" transform="translate(300.359375 0)"/>
      <use xlink:href="#DejaVuSans-3" transform="translate(363.734375 0)"/>
      <use xlink:href="#DejaVuSans-20" transform="translate(395.515625 0)"/>
      <use xlink:href="#DejaVuSans-3" transform="translate(479.3125 0)"/>
      <use xlink:href="#DejaVuSans-14" transform="translate(511.09375 0)"/>
      <use xlink:href="#DejaVuSans-14" transform="translate(574.71875 0)"/>
      <use xlink:href="#DejaVuSans-19" transform="translate(638.34375 0)"/>
      <use xlink:href="#DejaVuSans-11" transform="translate(701.96875 0)"/>
      <use xlink:href="#DejaVuSans-1c" transform="translate(733.75 0)"/>
      <use xlink:href="#DejaVuSans-14" transform="translate(797.375 0)"/>
      <use xlink:href="#DejaVuSans-3" transform="translate(861 0)"/>
      <use xlink:href="#DejaVuSans-50" transform="translate(892.78125 0)"/>
      <use xlink:href="#DejaVuSans-56" transform="translate(990.1875 0)"/>
     </g>
    </g>
    <g id="line2d_28">
     <path d="M 62.650781 50.417344 
L 72.650781 50.417344 
L 82.650781 50.417344 
" style="fill: none; stroke-dasharray: 1.4,2.31; stroke-dashoffset: 0; stroke: #1f77b4; stroke-width: 1.4"/>
    </g>
    <g id="text_20">
     <!-- p95 = 117.69 ms -->
     <g transform="translate(90.650781 53.917344) scale(0.1 -0.1)">
      <defs>
       <path id="DejaVuSans-53" d="M 1159 525 
L 1159 -1331 
L 581 -1331 
L 581 3500 
L 1159 3500 
L 1159 2969 
Q 1341 3281 1617 3432 
Q 1894 3584 2278 3584 
Q 2916 3584 3314 3078 
Q 3713 2572 3713 1747 
Q 3713 922 3314 415 
Q 2916 -91 2278 -91 
Q 1894 -91 1617 61 
Q 1341 213 1159 525 
z
M 3116 1747 
Q 3116 2381 2855 2742 
Q 2594 3103 2138 3103 
Q 1681 3103 1420 2742 
Q 1159 2381 1159 1747 
Q 1159 1113 1420 752 
Q 1681 391 2138 391 
Q 2594 391 2855 752 
Q 3116 1113 3116 1747 
z
" transform="scale(0.015625)"/>
      </defs>
      <use xlink:href="#DejaVuSans-53"/>
      <use xlink:href="#DejaVuSans-1c" transform="translate(63.484375 0)"/>
      <use xlink:href="#DejaVuSans-18" transform="translate(127.109375 0)"/>
      <use xlink:href="#DejaVuSans-3" transform="translate(190.734375 0)"/>
      <use xlink:href="#DejaVuSans-20" transform="translate(222.515625 0)"/>
      <use xlink:href="#DejaVuSans-3" transform="translate(306.3125 0)"/>
      <use xlink:href="#DejaVuSans-14" transform="translate(338.09375 0)"/>
      <use xlink:href="#DejaVuSans-14" transform="translate(401.71875 0)"/>
      <use xlink:href="#DejaVuSans-1a" transform="translate(465.34375 0)"/>
      <use xlink:href="#DejaVuSans-11" transform="translate(528.96875 0)"/>
      <use xlink:href="#DejaVuSans-19" transform="translate(560.75 0)"/>
      <use xlink:href="#DejaVuSans-1c" transform="translate(624.375 0)"/>
      <use xlink:href="#DejaVuSans-3" transform="translate(688 0)"/>
      <use xlink:href="#DejaVuSans-50" transform="translate(719.78125 0)"/>
      <use xlink:href="#DejaVuSans-56" transform="translate(817.1875 0)"/>
     </g>
    </g>
    <g id="line2d_29">
     <path d="M 62.650781 65.418125 
L 72.650781 65.418125 
L 82.650781 65.418125 
" style="fill: none; stroke-dasharray: 7.68,1.92,1.2,1.92; stroke-dashoffset: 0; stroke: #1f77b4; stroke-width: 1.2"/>
    </g>
    <g id="text_21">
     <!-- p99 = 118.32 ms -->
     <g transform="translate(90.650781 68.918125) scale(0.1 -0.1)">
      <use xlink:href="#DejaVuSans-53"/>
      <use xlink:href="#DejaVuSans-1c" transform="translate(63.484375 0)"/>
      <use xlink:href="#DejaVuSans-1c" transform="translate(127.109375 0)"/>
      <use xlink:href="#DejaVuSans-3" transform="translate(190.734375 0)"/>
      <use xlink:href="#DejaVuSans-20" transform="translate(222.515625 0)"/>
      <use xlink:href="#DejaVuSans-3" transform="translate(306.3125 0)"/>
      <use xlink:href="#DejaVuSans-14" transform="translate(338.09375 0)"/>
      <use xlink:href="#DejaVuSans-14" transform="translate(401.71875 0)"/>
      <use xlink:href="#DejaVuSans-1b" transform="translate(465.34375 0)"/>
      <use xlink:href="#DejaVuSans-11" transform="translate(528.96875 0)"/>
      <use xlink:href="#DejaVuSans-16" transform="translate(560.75 0)"/>
      <use xlink:href="#DejaVuSans-15" transform="translate(624.375 0)"/>
      <use xlink:href="#DejaVuSans-3" transform="translate(688 0)"/>
      <use xlink:href="#DejaVuSans-50" transform="translate(719.78125 0)"/>
      <use xlink:href="#DejaVuSans-56" transform="translate(817.1875 0)"/>
     </g>
    </g>
   </g>
  </g>
 </g>
 <defs>
  <clipPath id="p96d250574c">
   <rect x="53.650781" y="22.318125" width="539.517203" height="320.517656"/>
  </clipPath>
 </defs>
</svg>
